<?xml version="1.0" encoding="utf-8"?>
<!-- Generator: Adobe Illustrator 27.5.0, SVG Export Plug-In . SVG Version: 6.00 Build 0)  -->
<svg version="1.1" id="Слой_1" xmlns="http://www.w3.org/2000/svg" xmlns:xlink="http://www.w3.org/1999/xlink" x="0px" y="0px"
	 viewBox="0 0 2800 2000" style="enable-background:new 0 0 2800 2000;" xml:space="preserve">
<rect style="fill:;" width="2800" height="2000"/>
<g>
	<path style="fill:#E3EAFF;" d="M219.48,1718.521c-150.172-168.726-76.034-349.142,6.769-535.955
		c30.037-67.766-44.251-136.632-63.257-208.276c-54.689-206.152,110.84-431.598,258.148-468.188
		c174.578-43.365,285.971-64.811,360.002-116.363c91.163-63.482,169.2-254.87,516.465-273.327
		c473.674-25.174,412.717,195.112,659.351,208.33c635.293,34.05,412.253,376.377,516.421,590.724
		c65.498,209.374,190.709,95.097,216.736,306.096c21.655,175.561-29.583,355.17-40.688,529.184L219.48,1718.521z"/>
	<g>
		<polygon style="fill:;" points="729.568,846.842 681.702,1187.959 1480.334,1610.133 1689.975,979.476 1056.429,681.802 		
			"/>
		<path style="fill:#768FDB;" d="M739.694,1685.783H335.612v0.002c0-39.959,32.392-72.352,72.35-72.352h259.381
			c39.958,0,72.35,32.392,72.35,72.352V1685.783z"/>
		
			<rect x="465.722" y="1011.3" transform="matrix(0.9907 -0.1362 0.1362 0.9907 -175.1931 77.6982)" style="fill:#768FDB;" width="28.922" height="615.546"/>
		
			<rect x="556.19" y="530.574" transform="matrix(0.7779 0.6283 -0.6283 0.7779 653.4892 -172.3978)" style="fill:#768FDB;" width="28.922" height="615.547"/>
		<path style="fill:#4364CC;" d="M472.964,1018.35c-2.751,19.617-20.884,33.291-40.502,30.541
			c-19.619-2.75-33.293-20.885-30.542-40.502c2.751-19.62,20.885-33.293,40.503-30.542
			C462.041,980.597,475.715,998.731,472.964,1018.35z"/>
		<g>
			<path style="fill:#4364CC;" d="M860.121,588.013c-7.286,37.239-43.38,61.522-80.62,54.238
				c-37.24-7.286-61.523-43.38-54.237-80.619c7.285-37.24,43.379-61.523,80.619-54.239
				C843.123,514.679,867.405,550.772,860.121,588.013z"/>
			<path style="fill:#768FDB;" d="M1056.429,681.802l-326.861,165.04c-4.242-8.4-7.955-16.9-11.158-25.458
				c-37.251-99.494-5.404-206.969,77.703-248.938c82.033-41.427,185.789-4.753,244.182,81.837
				C1046.151,662.96,1051.556,672.145,1056.429,681.802z"/>
			<path style="fill:#4364CC;" d="M1056.429,681.802l-326.861,165.04c-4.242-8.4-7.955-16.9-11.158-25.458l321.884-167.101
				C1046.151,662.96,1051.556,672.145,1056.429,681.802z"/>
		</g>
	</g>
	<g>
		<g>
			<path style="fill:#062440;" d="M1434.748,1216.838c-98.188-15.453-248.413-128.621-179.625-279.082
				c68.788-150.459,118.425-101.625,53.579-255.834c-64.847-154.209,25.111-302.638,140.221-291.603
				c115.111,11.034,159.885,93.853,289.145,45.838c129.26-48.015,264.306,55.539,234.873,173.528
				c-29.432,117.99-40.867,174.278,17.676,225.193c58.546,50.916,282.781,74.746,222.078,235.384s-73.936,213.696-25.274,278.739
				c182.999,244.613-108.159,344.936-233.159,357.115c-124.998,12.18-497.89-16.098-569.305-144.537
				C1313.542,1433.139,1434.748,1216.838,1434.748,1216.838z"/>
			<g>
				<path style="fill:#F37A50;" d="M1230.94,1279.992c13.703,34.238-55.909,138.94-86.895,134.611
					c-142.555-74.436-271.629-296.626-271.629-296.626l42.219-58.977C914.635,1059.001,1061.049,1166.986,1230.94,1279.992z"/>
				<path style="fill:#F37A50;" d="M1584.9,1199.525c-84.238,71.308-401.899,223.764-440.855,215.078l24.321-147.848
					c0,0,292.995-200.732,345.748-232.713C1605.334,978.455,1722.65,1083.366,1584.9,1199.525z"/>
			</g>
			<g>
				<path style="fill:#F37A50;" d="M836.153,966.753c-8.494-8.061-61.241-23.287-74.724-20.201
					c-15.69,3.506-59.381,30.808-68.648,36.559c-9.268,5.75-2.325,14.44,12.747,15.273c19.539-0.198,38.585-6.162,54.747-17.143
					c22.705,6.771,39.075,12.685,41.142,14.033c13.668,5.907,19.96,21.774,14.054,35.442c-3.854,8.92-12.211,15.074-21.874,16.111
					l-2.291-0.021c9.758,21.152,16.504,43.568,20.042,66.594c21.624,6.447,38.838,18.199,63.245,2.892l41.733-55.596
					C909.134,1043.646,849.954,979.698,836.153,966.753z"/>
				<g>
					<path style="fill:#2C2858;" d="M634.988,1010.496l-7.663-1.33c-2.241-0.39-3.835-2.395-3.711-4.664l0,0
						c0.124-2.279,1.939-4.101,4.216-4.233l7.71-0.454c2.622-0.152,4.815,1.972,4.747,4.597l-0.047,1.783
						C640.168,1008.931,637.685,1010.965,634.988,1010.496z"/>
					<path style="fill:#2C2858;" d="M1028.424,1030.854l-30.131,0.049c-1.289,0.002-2.334-1.042-2.337-2.33l-0.021-12.826
						c-0.002-1.289,1.041-2.336,2.33-2.338l30.13-0.049c1.289-0.002,2.335,1.042,2.337,2.33l0.021,12.826
						C1030.755,1029.805,1029.712,1030.851,1028.424,1030.854z"/>
					<path style="fill:#2C2858;" d="M1012.78,1011.146l-0.367,11.813l-0.462,11.58c-0.135,2.074-1.924,3.649-3.999,3.518
						l-276.409-12.777c-8.311-0.43-98.724-9.363-97.977-14.549l0.37-6.116l0.233-5.113c0.146-3.991,90.49-5.606,98.87-5.34
						l275.709,13.058c2.001-0.219,3.802,1.225,4.023,3.225C1012.797,1010.677,1012.8,1010.912,1012.78,1011.146z"/>
				</g>
				<path style="fill:#F37A50;" d="M754.528,1014.194c-8.834-4.808-22.785-8.958-32.6-6.77
					c-31.946,8.666,2.034,26.575,11.598,38.006c9.803,11.719,29.436,69.135,119.897,78.205c3.971,4.128-28.972-82.863-49.42-79.976
					C783.896,1046.495,763.074,1019.096,754.528,1014.194z"/>
			</g>
			<path style="fill:#DE623C;" d="M1771.469,887.358l-6.305,175.96c0,0-91.622,65.45-162.467,21.853
				c10.899-54.496,25.742-144.143,25.742-144.143L1771.469,887.358z"/>
			<path style="fill:#C4204A;" d="M1601.537,1004.348c0,0-119.602,9.554-297.019,156.435
				c17.261,11.95,108.638,146.505,108.638,146.505l127.084-37.846L1601.537,1004.348z"/>
			<g>
				<path style="fill:#F37A50;" d="M1431.218,779.34c24.476,135.195,125.848,230.031,226.419,211.824
					c100.572-18.208,162.26-142.565,137.783-277.76c-24.477-135.195-125.848-230.032-226.419-211.824
					C1468.429,519.789,1406.74,644.146,1431.218,779.34z"/>
				<path style="fill:#062440;" d="M1807.529,711.211c-102.854,5.346-206.459-33.748-272.356-96.578
					c-18.784,90.781-103.955,164.706-103.955,164.706s-100.814-148.89,13.444-259.74
					C1553.662,413.851,1860.006,417.162,1807.529,711.211z"/>
				<path d="M1655.986,794.459c10.688-1.935,17.783-12.168,15.848-22.856c-1.933-10.688-12.168-17.784-22.855-15.85
					c-10.688,1.935-17.785,12.168-15.85,22.856S1645.298,796.394,1655.986,794.459z"/>
				<path d="M1513.922,818.364c10.688-1.935,17.783-12.168,15.848-22.857c-1.934-10.688-12.168-17.784-22.856-15.849
					c-10.688,1.935-17.785,12.169-15.849,22.856C1493,813.203,1503.233,820.3,1513.922,818.364z"/>
				<path style="fill:#DE623C;" d="M1575.029,801.453c-13.292,34.833-17.852,49.72-25.382,58.496
					c13.278,19.633,50.64,19.712,59.519,14.176c-27.335-4.229-35.637-18.986-35.637-18.986L1575.029,801.453z"/>
				<path style="fill:#F37A50;" d="M1771.635,737.217c-16.082,30.206-10.973,64.355,11.414,76.275
					c22.387,11.919,53.572-2.905,69.656-33.111c16.082-30.206,10.973-64.356-11.413-76.276
					C1818.904,692.185,1787.719,707.01,1771.635,737.217z"/>
				<g>
					<path style="fill:#DE623C;" d="M1800.285,790.996c0.805-0.146,1.592-0.451,2.318-0.925c2.912-1.902,3.732-5.805,1.83-8.716
						c-6.32-9.675-7.945-18.085-4.834-24.996c4.807-10.67,19.68-16.39,30.932-18.041c3.439-0.497,5.82-3.705,5.314-7.146
						c-0.505-3.442-3.703-5.82-7.146-5.316c-15.103,2.218-33.694,10.036-40.584,25.33c-3.433,7.62-5.216,20.233,5.772,37.057
						C1795.316,790.427,1797.869,791.435,1800.285,790.996z"/>
				</g>
				<g>
					<path style="fill:#062440;" d="M1457.407,766.371c0.392-0.635,0.86-1.234,1.407-1.788
						c23.869-24.144,47.338-28.313,48.326-28.479c5.452-0.915,10.615,2.764,11.529,8.217c0.911,5.43-2.734,10.572-8.15,11.518
						c-0.488,0.094-18.59,3.728-37.469,22.822c-3.887,3.931-10.225,3.967-14.156,0.081
						C1455.516,775.4,1455.014,770.249,1457.407,766.371z"/>
				</g>
				<g>
					<path style="fill:#062440;" d="M1633.066,712.769c0.707-0.239,1.449-0.401,2.225-0.477c33.785-3.349,54.514,8.421,55.379,8.925
						c4.781,2.775,6.406,8.902,3.63,13.683c-2.765,4.763-8.853,6.394-13.626,3.664c-0.437-0.239-16.691-8.997-43.41-6.348
						c-5.501,0.544-10.402-3.473-10.949-8.975C1625.847,718.512,1628.75,714.227,1633.066,712.769z"/>
				</g>
				<path style="fill:;" d="M1566.076,919.947c-3.283-3.284-1.832-9.209,2.354-9.545c10.646-0.853,28.154-2.678,44.451-6.288
					c16.297-3.609,32.939-9.346,42.949-13.066c3.937-1.463,7.752,3.296,6.164,7.66c-4.889,13.417-16.424,34.691-41.403,40.223
					C1595.609,944.462,1576.173,930.046,1566.076,919.947z"/>
			</g>
			<g>
				<polygon style="fill:#F57191;" points="698.134,1368.398 659.555,1177.301 980.001,1330.67 750.913,1387.775 				"/>
				<polygon style="fill:#F3DAD1;" points="709.91,1352.787 674.114,1184.002 690.977,1171.541 971.258,1308.596 				"/>
				<path style="fill:;" d="M704.727,1359.511c12.411-19.705,55.953-46.575,112.834-41.134
					c56.88,5.443,252.341-32.682,265.345-40.434c18.13,15.631,348.418,296.432,348.418,296.432l-13.725,24.895L704.727,1359.511z"/>
				<polygon style="fill:#F57191;" points="1436.609,1604.345 1428.243,1619.248 1081.399,1651.762 698.134,1368.398 
					706.5,1353.495 1061.708,1306.078 				"/>
				<polygon style="fill:#F5A3B7;" points="1421.345,1614.678 1066.136,1662.094 691.236,1363.826 1046.445,1316.41 				"/>
				<g>
					<g>
						<path style="fill:#F57191;" d="M931.568,1389.096c-4.5-42.388,51.107-30.127,64.813,7.084
							c11.827,32.111,9.724,56.295,7.681,73.364C848.083,1449.189,871.428,1356.881,931.568,1389.096z"/>
					</g>
				</g>
				<g>
					<g>
						<path style="fill:#F57191;" d="M1145.264,1449.051c-1.758-16.556,19.96-11.767,25.314,2.768
							c4.619,12.541,3.797,21.986,3,28.654C1112.657,1472.521,1121.774,1436.469,1145.264,1449.051z"/>
					</g>
				</g>
				<g>
					<g>
						<path style="fill:#F57191;" d="M989.175,1516.944c-1.758-16.556,19.961-11.767,25.314,2.769
							c4.619,12.541,3.798,21.986,3,28.652C956.568,1540.416,965.685,1504.361,989.175,1516.944z"/>
					</g>
				</g>
				<g>
					<g>
						<path style="fill:#F57191;" d="M895.734,1483.281c-1.757-16.555,19.961-11.767,25.314,2.768
							c4.619,12.541,3.798,21.986,3.001,28.653C863.126,1506.754,872.245,1470.699,895.734,1483.281z"/>
					</g>
				</g>
				<g>
					<g>
						<path style="fill:#F57191;" d="M1057.973,1428.119c-1.757-16.557,19.961-11.768,25.315,2.768
							c4.619,12.54,3.798,21.986,3,28.652C1025.366,1451.59,1034.484,1415.537,1057.973,1428.119z"/>
					</g>
				</g>
				<g>
					<g>
						<path style="fill:#F57191;" d="M1154.931,1527.764c-1.758-16.556,19.961-11.767,25.314,2.768
							c4.619,12.541,3.798,21.987,3,28.653C1122.323,1551.234,1131.441,1515.182,1154.931,1527.764z"/>
					</g>
				</g>
				<g>
					<g>
						<path style="fill:#F57191;" d="M1225.138,1516.944c-1.758-16.556,19.961-11.767,25.315,2.769
							c4.619,12.541,3.798,21.986,3,28.652C1192.53,1540.416,1201.648,1504.361,1225.138,1516.944z"/>
					</g>
				</g>
				<g>
					<g>
						<path style="fill:#F57191;" d="M1225.138,1584.982c-1.758-16.555,19.961-11.767,25.315,2.768
							c4.619,12.541,3.798,21.986,3,28.654C1192.53,1608.453,1201.648,1572.398,1225.138,1584.982z"/>
					</g>
				</g>
				<g>
					<g>
						<path style="fill:#F57191;" d="M1300.491,1584.982c-1.757-16.555,19.961-11.767,25.315,2.768
							c4.619,12.541,3.798,21.986,3,28.654C1267.884,1608.453,1277.001,1572.398,1300.491,1584.982z"/>
					</g>
				</g>
			</g>
			<g>
				<g>
					<g>
						<path style="fill:#E62552;" d="M1875.422,1631.898c-5.848-36.816-14.182-101.951-2.58-164.97
							c28.006-129.759,96.038-320.431,59.196-428.657c-24.638-32.109-130.458-65.771-161.64-63.907
							c-14.85,67.316-143.166,173.235-152.191,25.702c-86.041,15.925-153.054,156.458-168.182,250.522
							c-4.879,71.2,17.325,146.142,22.743,218.063c13.44,106.36-18.776,158.987-42.961,265.923l498.133-1.686
							C1898.922,1666.426,1877.854,1639.761,1875.422,1631.898z"/>
					</g>
				</g>
			</g>
			<path style="fill:#F37A50;" d="M1634.203,1515.889c38.751,15.367,55.56,140.445,44.078,149.432
				c-171.897,59.145-426.071-13.624-426.071-13.624l-7.966-75.571C1294.543,1573.355,1409.402,1567.488,1634.203,1515.889z"/>
			<path style="fill:#F37A50;" d="M1969.013,1231.51c-43.013,113.811-248.539,421.332-290.731,433.811l-85.264-131.535
				c0,0,185.483-364.81,219.206-423.863C1870.381,1007.526,2039.592,1045.838,1969.013,1231.51z"/>
			<path style="fill:#C4204A;" d="M1897.824,1003.844c18.539,0.922,111.293-1.232,105.471,171.063
				c2.383,70.619-65.69,196.742-65.69,196.742s-131.273-38.431-223.73-112.377
				C1715.942,1222.844,1806.767,1012.516,1897.824,1003.844z"/>
			<g>
				<g>
					<g>
						<g>
							<path style="fill:#F37A50;" d="M1089.767,1632.705c26.745,3.654,105.27,7.888,162.443,18.991l-7.966-75.571
								c-42.131,2.233-101.507-74.137-184.917-86.577c-28.447-4.241-41.428-8.595-43.946-4.943
								c-2.518,3.651-11.426,28.565,29.658,36.654c51.558,10.152,13.898,49.151-88.679,1.639
								c-25.684-11.895-76.386-2.76-59.846,17.903C914.74,1563.57,968.07,1616.076,1089.767,1632.705z"/>
						</g>
					</g>
				</g>
			</g>
		</g>
	</g>
	<path style="fill:#494C7F;" d="M186.227,1765.913h2460.865c22.074,0,39.971-17.894,39.971-39.97v-1.32
		c0-22.074-17.896-39.969-39.971-39.969H186.227c-22.075,0-39.97,17.895-39.97,39.969v1.32
		C146.257,1748.019,164.152,1765.913,186.227,1765.913z"/>
	<g>
		<g>
			<g>
				<path style="fill:#A11A3D;" d="M2449.131,1597.017h-397.228c-6.964,0-12.61,4.862-12.61,10.861v65.992
					c0,5.998,5.647,10.859,12.61,10.859h397.228V1597.017z"/>
			</g>
			<path style="fill:#C4204A;" d="M2462.783,1614.116v53.302c0,1.941,1.66,3.529,3.688,3.529h140.857
				c3.962,0,7.175,3.074,7.175,6.867l0,0c0,3.795-3.213,6.869-7.175,6.869h-155.924c-4.264,0-7.72-3.456-7.72-7.72v-72.393
				c0-4.264,3.456-7.721,7.72-7.721h155.924c3.962,0,7.175,3.076,7.175,6.868v0.036c0,3.793-3.213,6.867-7.175,6.867h-140.894
				C2464.426,1610.621,2462.783,1612.193,2462.783,1614.116z"/>
			<path style="fill:;" d="M2600.818,1670.951h-134.21c-3.858,0-6.987-3.128-6.987-6.986v-46.367
				c0-3.857,3.129-6.986,6.987-6.986h134.21V1670.951z"/>
			<rect x="2472.16" y="1620.918" style="fill:#E3EAFF;" width="104.352" height="5.427"/>
			<rect x="2529.644" y="1634.594" style="fill:#E3EAFF;" width="65.179" height="5.428"/>
			<rect x="2465.042" y="1660.555" style="fill:#E3EAFF;" width="84.278" height="5.428"/>
			<rect x="2483.707" y="1648.145" style="fill:#E3EAFF;" width="39.51" height="5.428"/>
			<path style="fill:#C4204A;" d="M2388.508,1665.822h-301.41c-5.611,0-10.161-4.551-10.161-10.162v-29.572
				c0-5.612,4.55-10.162,10.161-10.162h301.41c5.612,0,10.162,4.55,10.162,10.162v29.572
				C2398.67,1661.271,2394.12,1665.822,2388.508,1665.822z"/>
		</g>
		<g>
			<g>
				<path style="fill:#F5A3B7;" d="M2225.568,1433.41h408.64c6.646,0,12.034,5.387,12.034,12.033v61.564
					c0,6.646-5.389,12.033-12.034,12.033h-408.64V1433.41z"/>
			</g>
			<path style="fill:#F57191;" d="M2212.241,1450.104v52.035c0,1.896-1.621,3.446-3.601,3.446h-137.514
				c-3.868,0-7.004,3.003-7.004,6.704l0,0c0,3.703,3.136,6.705,7.004,6.705h152.222c4.162,0,7.536-3.373,7.536-7.535v-70.677
				c0-4.161-3.374-7.536-7.536-7.536h-152.222c-3.868,0-7.004,3.002-7.004,6.705v0.035c0,3.701,3.136,6.703,7.004,6.703h137.549
				C2210.637,1446.689,2212.241,1448.226,2212.241,1450.104z"/>
			<path style="fill:;" d="M2077.483,1505.589h133.325c3.798,0,6.879-3.079,6.879-6.879v-45.149
				c0-3.8-3.081-6.879-6.879-6.879h-133.325V1505.589z"/>
			<path style="fill:#F57191;" d="M2323.792,1433.41c0,0,16.352,36.797,0.272,85.631c7.33,0,21.281-0.047,21.281-0.047
				s17.371-37.736,0-85.584C2337.07,1433.41,2323.792,1433.41,2323.792,1433.41z"/>
			<path style="fill:#F57191;" d="M2287.508,1433.41c0,0,16.354,36.797,0.275,85.631c7.329,0,21.281-0.047,21.281-0.047
				s17.37-37.736,0-85.584C2300.788,1433.41,2287.508,1433.41,2287.508,1433.41z"/>
			<rect x="2129.887" y="1455.129" style="fill:#E3EAFF;" width="73.561" height="5.415"/>
			<rect x="2114.984" y="1492.099" style="fill:#E3EAFF;" width="73.563" height="5.415"/>
			<rect x="2141.477" y="1480.859" style="fill:#E3EAFF;" width="73.561" height="5.412"/>
		</g>
		<g>
			<g>
				<path style="fill:#3F964F;" d="M2415.33,1345.746h-405.914c-6.963,0-12.609,4.861-12.609,10.859v65.993
					c0,5.998,5.646,10.86,12.609,10.86h405.914V1345.746z"/>
			</g>
			<path style="fill:#0E6A41;" d="M2428.983,1362.846v53.3c0,1.942,1.659,3.53,3.688,3.53h140.856c3.964,0,7.176,3.076,7.176,6.869
				l0,0c0,3.793-3.212,6.867-7.176,6.867h-155.923c-4.264,0-7.72-3.457-7.72-7.721v-72.393c0-4.264,3.456-7.72,7.72-7.72h155.923
				c3.964,0,7.176,3.075,7.176,6.868v0.033c0,3.795-3.212,6.869-7.176,6.869h-140.893
				C2430.627,1359.35,2428.983,1360.924,2428.983,1362.846z"/>
			<path style="fill:;" d="M2567.018,1419.681h-134.211c-3.857,0-6.986-3.13-6.986-6.987v-46.366
				c0-3.859,3.129-6.986,6.986-6.986h134.211V1419.681z"/>
			<path style="fill:#0E6A41;" d="M2081.416,1345.746c0,0-16.353,37.691-0.273,87.713c-7.33,0-21.281-0.047-21.281-0.047
				s-17.371-38.654,0-87.666C2068.137,1345.746,2081.416,1345.746,2081.416,1345.746z"/>
			<path style="fill:#0E6A41;" d="M2332.518,1345.746c0,0-16.352,37.691-0.273,87.713c-7.331,0-21.281-0.047-21.281-0.047
				s-17.371-38.654,0-87.666C2319.238,1345.746,2332.518,1345.746,2332.518,1345.746z"/>
			<rect x="2438.359" y="1369.646" style="fill:#E3EAFF;" width="104.354" height="5.428"/>
			<rect x="2495.843" y="1383.323" style="fill:#E3EAFF;" width="65.179" height="5.427"/>
			<rect x="2431.24" y="1409.283" style="fill:#E3EAFF;" width="84.279" height="5.427"/>
			<rect x="2449.906" y="1396.875" style="fill:#E3EAFF;" width="39.511" height="5.425"/>
			<polygon style="fill:#E62552;" points="2489.229,1445.453 2466.391,1434.863 2445.74,1445.453 2445.74,1389.604 
				2489.229,1389.604 			"/>
		</g>
		<g>
			<path style="fill:#4364CC;" d="M2005.41,1596.424l274.694,1.951l0.412-80.604l-274.692-1.949
				c-6.251-0.033-11.344,5.01-11.377,11.26l-0.296,57.967C1994.119,1591.301,1999.16,1596.392,2005.41,1596.424z"/>
			<g>
				<path style="fill:;" d="M2273.484,1583.969l299.643-0.305l-0.11-50.016l-296.043-2.754
					c-1.468-0.008-6.173,4.151-6.179,5.256l0,0l0.134,45.6C2270.923,1582.854,2272.018,1583.962,2273.484,1583.969
					L2273.484,1583.969z"/>
				<path style="fill:#768FDB;" d="M2580.383,1599.146c4.4,0.392,8.081-2.532,8.838-6.941c0.389-4.412-2.526-8.104-6.924-8.861
					c-0.733-0.004-1.1-0.006-1.832-0.011l-297.076,0.321c-3.301-0.018-6.602-0.035-9.9-0.42c-1.083-3.314-1.798-6.996-1.412-10.672
					l-0.225-27.949c0.018-3.309,0.034-6.62,0.785-9.926c3.672-1.084,7.343-1.432,11.007-1.047l297.076-0.318
					c4.399,0.391,8.081-2.531,8.837-6.941c0.39-4.412-2.524-8.104-6.922-8.861c-0.734-0.004-1.102-0.006-1.834-0.01l-319.445-0.163
					c-4.768-0.024-8.822,3.999-8.847,8.78l0.042,63.619c-0.025,4.781,3.988,8.846,8.756,8.871L2580.383,1599.146z"/>
			</g>
			<rect x="2288.996" y="1563.71" style="fill:#E3EAFF;" width="160.431" height="4.878"/>
			<rect x="2316.785" y="1549.924" style="fill:#E3EAFF;" width="160.43" height="4.878"/>
			<rect x="2296.154" y="1539.65" style="fill:#E3EAFF;" width="68.867" height="4.879"/>
			<rect x="2397" y="1572.686" style="fill:#E3EAFF;" width="160.43" height="4.877"/>
		</g>
	</g>
	<g>
		<path style="fill:#F57191;" d="M421.14,1410.639c0-9.178-47.254-16.619-105.545-16.619c-58.291,0-105.545,7.441-105.545,16.619
			c0,9.176,47.254,16.618,105.545,16.618C373.886,1427.257,421.14,1419.814,421.14,1410.639z"/>
		<g>
			<polygon style="fill:#B0173E;" points="286.818,1637.072 343.054,1203.059 382.706,1208.243 326.469,1642.258 			"/>
			<path style="fill:#E62552;" d="M284.051,1658.225l2.767-21.152l39.65,5.186l-2.766,21.152
				c-0.976,7.465-7.819,12.724-15.285,11.748l-12.617-1.649C288.334,1672.532,283.075,1665.689,284.051,1658.225z"/>
			
				<rect x="298.222" y="1611.263" transform="matrix(-0.1297 0.9916 -0.9916 -0.1297 1965.1738 1537.6438)" style="fill:#F3C8B9;" width="19.077" height="40.031"/>
			<path style="fill:#F3AE9C;" d="M285.913,1636.848l0.111-0.84c0.084-0.65,0.679-1.107,1.327-1.021l39.375,5.15
				c0.648,0.084,1.105,0.678,1.02,1.326l-0.11,0.84c-0.085,0.65-0.679,1.106-1.327,1.023l-39.375-5.15
				C286.285,1638.09,285.828,1637.495,285.913,1636.848z"/>
			<path style="fill:#F3AE9C;" d="M286.978,1627.73l0.109-0.84c0.085-0.646,0.68-1.104,1.328-1.02l39.375,5.148
				c0.648,0.086,1.105,0.68,1.02,1.329l-0.11,0.841c-0.084,0.646-0.679,1.103-1.327,1.019l-39.376-5.149
				C287.35,1628.975,286.893,1628.38,286.978,1627.73z"/>
			<path style="fill:#F3AE9C;" d="M288.321,1618.223l0.11-0.839c0.084-0.65,0.679-1.106,1.327-1.022l39.375,5.15
				c0.648,0.085,1.105,0.68,1.02,1.328l-0.11,0.84c-0.085,0.65-0.679,1.106-1.327,1.021l-39.375-5.15
				C288.693,1619.467,288.236,1618.871,288.321,1618.223z"/>
			<path style="fill:#F3C8B9;" d="M362.179,1211.021c10.949,1.434,20.136,0.206,20.522-2.738c0.001-0.012,0-0.025,0.001-0.04
				l0.003,0.001l-0.002-0.015c0.027-0.292-0.035-0.591-0.177-0.894l-6.611-33.533l-4.712-23.896
				c-0.16-0.809-1.252-0.953-1.619-0.217l-10.787,21.701l-15.325,30.827c-0.215,0.255-0.354,0.526-0.406,0.816l-0.011,0.025h0.006
				c-0.002,0.014-0.007,0.025-0.009,0.039C342.667,1206.043,351.231,1209.592,362.179,1211.021z"/>
			<path style="fill:#E62552;" d="M367.468,1173.817c-3.393-0.442-6.427-1.331-8.671-2.427l10.787-21.701
				c0.367-0.736,1.459-0.592,1.618,0.217l4.713,23.896C373.552,1174.191,370.609,1174.229,367.468,1173.817z"/>
		</g>
		<g>
			<polygon style="fill:#3F964F;" points="299.441,1258.585 326.79,1601.996 286.939,1605.322 259.59,1261.912 			"/>
			<path style="fill:#E62552;" d="M297.667,1237.326l1.774,21.259l-39.85,3.327l-1.775-21.26
				c-0.626-7.502,4.948-14.092,12.451-14.719l12.681-1.059C290.451,1224.248,297.04,1229.823,297.667,1237.326z"/>
			
				<rect x="270.66" y="1248.665" transform="matrix(-0.0832 -0.9965 0.9965 -0.0832 -960.7885 1653.405)" style="fill:#F3C8B9;" width="19.078" height="40.032"/>
			<path style="fill:#F3AE9C;" d="M300.372,1258.613l0.07,0.844c0.055,0.65-0.429,1.225-1.081,1.278l-39.573,3.304
				c-0.651,0.055-1.225-0.43-1.279-1.082l-0.071-0.844c-0.054-0.652,0.431-1.225,1.082-1.279l39.573-3.303
				C299.746,1257.476,300.318,1257.961,300.372,1258.613z"/>
			<path style="fill:#F3AE9C;" d="M301.262,1267.747l0.071,0.845c0.054,0.651-0.43,1.225-1.082,1.279l-39.573,3.303
				c-0.652,0.054-1.224-0.431-1.279-1.082l-0.07-0.844c-0.055-0.652,0.43-1.225,1.081-1.279l39.573-3.303
				C300.635,1266.611,301.207,1267.096,301.262,1267.747z"/>
			<path style="fill:#F3AE9C;" d="M301.962,1277.324l0.07,0.844c0.054,0.652-0.43,1.225-1.081,1.279l-39.573,3.303
				c-0.652,0.055-1.224-0.428-1.278-1.08l-0.07-0.846c-0.054-0.651,0.43-1.225,1.082-1.278l39.573-3.304
				C301.335,1276.188,301.908,1276.672,301.962,1277.324z"/>
			<path style="fill:#F3C8B9;" d="M306.412,1598.26c-11.003,0.918-19.724,4.063-19.476,7.023c0.001,0.013,0.005,0.026,0.007,0.04
				h-0.004l0.006,0.013c0.035,0.293,0.159,0.571,0.361,0.837l13.561,31.372l9.665,22.357c0.327,0.757,1.425,0.669,1.627-0.13
				l5.948-23.492l8.45-33.375c0.157-0.293,0.235-0.588,0.223-0.883l0.008-0.026l-0.007,0.001c0-0.014,0.002-0.025,0.001-0.041
				C326.536,1598.996,317.415,1597.342,306.412,1598.26z"/>
			<path style="fill:#E62552;" d="M309.12,1635.742c3.412-0.285,6.564-0.06,8.989,0.537l-5.948,23.492
				c-0.202,0.799-1.301,0.887-1.627,0.13l-9.665-22.357C303.095,1636.662,305.963,1636.006,309.12,1635.742z"/>
		</g>
		<g>
			<polygon style="fill:#0E6A41;" points="304.555,1639.605 196.956,1271.945 235.001,1260.736 342.6,1628.396 			"/>
			<path style="fill:#E62552;" d="M310.533,1659.901l-5.979-20.296l38.045-11.209l5.98,20.297c2.11,7.162-1.985,14.68-9.148,16.791
				l-12.106,3.566C320.161,1671.16,312.643,1667.064,310.533,1659.901z"/>
			
				<rect x="311.765" y="1606.094" transform="matrix(0.2826 0.9592 -0.9592 0.2826 1790.1312 858.3506)" style="fill:#F3C8B9;" width="18.921" height="39.705"/>
			<path style="fill:#F3AE9C;" d="M303.643,1639.766l-0.237-0.807c-0.183-0.623,0.172-1.275,0.794-1.459l37.78-11.131
				c0.623-0.184,1.275,0.174,1.458,0.795l0.238,0.807c0.184,0.621-0.173,1.275-0.794,1.459l-37.781,11.129
				C304.479,1640.742,303.827,1640.387,303.643,1639.766z"/>
			<path style="fill:#F3AE9C;" d="M300.951,1631.07l-0.238-0.808c-0.183-0.621,0.173-1.275,0.795-1.458l37.781-11.131
				c0.622-0.184,1.274,0.172,1.458,0.795l0.237,0.807c0.183,0.621-0.172,1.275-0.794,1.459l-37.78,11.129
				C301.788,1632.047,301.135,1631.691,300.951,1631.07z"/>
			<path style="fill:#F3AE9C;" d="M298.354,1621.906l-0.238-0.806c-0.183-0.623,0.172-1.274,0.795-1.459l37.78-11.131
				c0.622-0.183,1.275,0.173,1.458,0.796l0.238,0.805c0.184,0.623-0.172,1.275-0.794,1.459l-37.781,11.131
				C299.189,1622.885,298.537,1622.529,298.354,1621.906z"/>
			<path style="fill:#F3C8B9;" d="M217.499,1271.494c10.505-3.096,18.346-7.894,17.514-10.721c-0.004-0.012-0.011-0.023-0.015-0.035
				l0.003-0.002l-0.008-0.012c-0.093-0.275-0.269-0.524-0.519-0.74l-19.454-27.762l-13.865-19.783
				c-0.468-0.668-1.518-0.362-1.555,0.453l-1.075,24.012l-1.528,34.111c-0.093,0.318-0.11,0.619-0.04,0.902l-0.001,0.027
				l0.005-0.002c0.004,0.014,0.005,0.027,0.009,0.039C197.803,1274.809,206.995,1274.59,217.499,1271.494z"/>
			<path style="fill:#3F964F;" d="M207.366,1235.627c-3.257,0.958-6.363,1.371-8.839,1.277l1.075-24.012
				c0.037-0.815,1.087-1.121,1.555-0.453l13.865,19.783C213.035,1233.525,210.38,1234.738,207.366,1235.627z"/>
		</g>
		<g>
			<polygon style="fill:#0E6A41;" points="423.91,1295.936 364.013,1593.866 325.191,1585.744 385.088,1287.813 			"/>
			<path style="fill:#E62552;" d="M428.244,1275.225l-4.332,20.711l-38.822-8.122l4.333-20.712
				c1.529-7.307,8.693-11.994,16.003-10.463l12.353,2.582C425.086,1260.75,429.772,1267.916,428.244,1275.225z"/>
			
				<rect x="393.3" y="1280.23" transform="matrix(0.2048 -0.9788 0.9788 0.2048 -952.244 1428.1091)" style="fill:#F3C8B9;" width="18.922" height="39.705"/>
			<path style="fill:#F3AE9C;" d="M424.788,1296.225l-0.172,0.822c-0.132,0.635-0.754,1.042-1.39,0.909l-38.552-8.064
				c-0.635-0.133-1.041-0.756-0.908-1.391l0.172-0.823c0.132-0.634,0.755-1.042,1.39-0.909l38.551,8.064
				C424.514,1294.967,424.921,1295.59,424.788,1296.225z"/>
			<path style="fill:#F3AE9C;" d="M423.047,1305.158l-0.172,0.822c-0.133,0.637-0.755,1.043-1.39,0.91l-38.552-8.065
				c-0.635-0.133-1.042-0.756-0.909-1.391l0.172-0.822c0.133-0.635,0.755-1.041,1.39-0.908l38.552,8.065
				C422.772,1303.902,423.18,1304.523,423.047,1305.158z"/>
			<path style="fill:#F3AE9C;" d="M421.001,1314.461l-0.172,0.822c-0.133,0.635-0.755,1.043-1.391,0.909l-38.551-8.064
				c-0.635-0.133-1.042-0.755-0.909-1.39l0.172-0.823c0.133-0.635,0.755-1.042,1.39-0.909l38.552,8.064
				C420.727,1313.203,421.133,1313.826,421.001,1314.461z"/>
			<path style="fill:#F3C8B9;" d="M345.7,1584.546c-10.719-2.243-19.898-1.724-20.501,1.159c-0.003,0.014-0.003,0.025-0.005,0.041
				l-0.003-0.002l0.001,0.016c-0.049,0.287-0.01,0.586,0.107,0.897l4.007,33.66l2.857,23.989c0.096,0.812,1.166,1.038,1.584,0.337
				l12.306-20.646l17.482-29.331c0.232-0.235,0.39-0.493,0.462-0.775l0.014-0.024l-0.006-0.001c0.003-0.013,0.009-0.024,0.012-0.038
				C364.621,1590.943,356.419,1586.788,345.7,1584.546z"/>
			<path style="fill:#3F964F;" d="M337.662,1620.941c3.322,0.694,6.256,1.801,8.393,3.055l-12.306,20.646
				c-0.418,0.701-1.488,0.475-1.584-0.337l-2.857-23.989C331.674,1620.111,334.586,1620.298,337.662,1620.941z"/>
		</g>
		<path style="fill:#F5A3B7;" d="M421.071,1411.232l-6.032,50.592l-2.682,22.507v0.005l-16.833,141.309l-2.602,21.802l-4.431,37.208
			h-150.64l-3.807-37.512l-2.206-21.738l-14.262-140.578l-2.249-22.191l-5.228-51.507c1.644,8.953,48.244,16.128,105.497,16.128
			C372.623,1427.256,419.086,1420.137,421.071,1411.232z"/>
		<path style="fill:#DE6280;" d="M210.05,1410.639l0.05,0.489C210.063,1410.966,210.05,1410.806,210.05,1410.639z"/>
		<path style="fill:#DE6280;" d="M421.139,1410.639c0,0.197-0.025,0.396-0.068,0.594L421.139,1410.639z"/>
		<path style="fill:#F57191;" d="M395.524,1625.645l-2.602,21.802c-19.324,3.398-47.385,5.53-78.604,5.53
			c-32.134,0-60.919-2.261-80.273-5.834l-2.206-21.738c19.336,3.806,49.097,6.246,82.466,6.246
			C346.971,1631.65,376.169,1629.314,395.524,1625.645z"/>
		<path style="fill:#F57191;" d="M415.039,1461.824l-2.682,22.507v0.005c-15.548,6.131-53.583,10.457-98.039,10.457
			c-43.263,0-80.446-4.098-96.741-9.967l-2.249-22.191c14.918,6.327,53.601,10.832,98.978,10.832
			C361.592,1473.467,401.611,1468.572,415.039,1461.824z"/>
	</g>
	<g>
		<g>
			<g>
				<path style="fill:#607FDB;" d="M2422.308,1300.527h-39.772c-6.342,0-11.483-5.141-11.483-11.483
					c0-6.341,5.142-11.481,11.483-11.481h28.289v-74.699h-28.289c-6.342,0-11.483-5.141-11.483-11.483
					c0-6.341,5.142-11.481,11.483-11.481h39.772c6.341,0,11.481,5.141,11.481,11.481v97.664
					C2433.789,1295.387,2428.648,1300.527,2422.308,1300.527z"/>
			</g>
			<path style="fill:#768FDB;" d="M2382.535,1145.895v188.627c0,6.199-5.021,11.221-11.221,11.221h-126.85
				c-6.191,0-11.222-5.021-11.222-11.221v-188.627c0-6.19,5.03-11.221,11.222-11.221h126.85
				C2377.514,1134.674,2382.535,1139.705,2382.535,1145.895z"/>
		</g>
		<path style="fill:;" d="M2299.295,1114.582c0,0-56.23-23.895-38.831-67.148c17.399-43.253,80.675-37.556,44.688-100.209
			c43.399,25.062,49.923,80.88,16.212,94.548C2287.65,1055.445,2285.929,1090.046,2299.295,1114.582z"/>
		<path style="fill:;" d="M2352.137,1114.582c0,0-39.986-16.992-27.614-47.748c12.374-30.757,57.368-26.707,31.778-71.259
			c30.859,17.821,35.5,57.514,11.527,67.235C2343.855,1072.529,2342.631,1097.135,2352.137,1114.582z"/>
		<g>
			<path style="fill:#607FDB;" d="M2307.289,1222.407c20.914-24.233,40.162-1.44,35.65,15.614
				c-3.602,19.029-35.681,44.406-36.263,41.922C2238.119,1229.348,2288.523,1193.751,2307.289,1222.407z"/>
		</g>
		<path style="fill:#607FDB;" d="M2382.535,1328.85v5.672c0,6.199-5.021,11.221-11.221,11.221h-126.85
			c-6.191,0-11.222-5.021-11.222-11.221v-5.672H2382.535z"/>
	</g>
	<g>
		<path style="fill:;" d="M2099.428,627.5c-19.469,0-35.305-15.837-35.305-35.305c0-19.468,15.836-35.306,35.305-35.306
			c19.467,0,35.306,15.837,35.306,35.306C2134.733,611.663,2118.895,627.5,2099.428,627.5z M2099.428,566.614
			c-14.105,0-25.581,11.476-25.581,25.582c0,14.104,11.476,25.581,25.581,25.581s25.581-11.476,25.581-25.581
			C2125.009,578.09,2113.533,566.614,2099.428,566.614z"/>
	</g>
	<g>
		<path style="fill:;" d="M610.394,678.847c-19.468,0-35.306-15.838-35.306-35.306c0-19.467,15.838-35.305,35.306-35.305
			c19.467,0,35.305,15.838,35.305,35.305C645.7,663.009,629.862,678.847,610.394,678.847z M610.394,617.959
			c-14.106,0-25.581,11.477-25.581,25.582c0,14.105,11.476,25.581,25.581,25.581c14.105,0,25.581-11.477,25.581-25.581
			C635.975,629.436,624.5,617.959,610.394,617.959z"/>
	</g>
	<g>
		<path style="fill:#E3EAFF;" d="M1072.737,830.083c-19.467,0-35.305-15.838-35.305-35.306c0-19.467,15.838-35.306,35.305-35.306
			c19.468,0,35.305,15.838,35.305,35.306C1108.042,814.245,1092.205,830.083,1072.737,830.083z M1072.737,769.196
			c-14.105,0-25.581,11.476-25.581,25.581c0,14.107,11.476,25.581,25.581,25.581c14.106,0,25.582-11.475,25.582-25.581
			C1098.319,780.672,1086.843,769.196,1072.737,769.196z"/>
	</g>
	<g>
		<path style="fill:;" d="M235.856,889.44c-13.087,0-23.734-10.647-23.734-23.734c0-13.086,10.646-23.733,23.734-23.733
			c13.086,0,23.734,10.647,23.734,23.733C259.59,878.793,248.943,889.44,235.856,889.44z M235.856,848.51
			c-9.483,0-17.197,7.714-17.197,17.196c0,9.482,7.714,17.198,17.197,17.198c9.482,0,17.197-7.715,17.197-17.198
			C253.053,856.224,245.338,848.51,235.856,848.51z"/>
	</g>
	<g>
		<path style="fill:;" d="M1258.563,270.98c-19.358-2.061-33.43-19.486-31.37-38.844
			c2.061-19.359,19.487-33.431,38.845-31.37c19.358,2.061,33.43,19.486,31.369,38.845
			C1295.346,258.969,1277.92,273.042,1258.563,270.98z M1265.008,210.436c-14.026-1.494-26.652,8.703-28.146,22.729
			c-1.493,14.026,8.703,26.652,22.729,28.146c14.026,1.494,26.652-8.704,28.146-22.73
			C1289.23,224.555,1279.034,211.929,1265.008,210.436z"/>
	</g>
	<path style="fill:;" d="M2186.539,535.526c0,10.975-8.898,19.871-19.873,19.871s-19.871-8.896-19.871-19.871
		c0-10.975,8.896-19.872,19.871-19.872S2186.539,524.551,2186.539,535.526z"/>
	<path style="fill:;" d="M1215.835,305.242c-1.162,10.913-10.951,18.818-21.864,17.656
		c-10.913-1.162-18.819-10.951-17.657-21.864c1.163-10.913,10.951-18.818,21.865-17.656
		C1209.093,284.54,1216.998,294.328,1215.835,305.242z"/>
	<path style="fill:;" d="M1194.07,592.195c0,10.974-8.897,19.872-19.872,19.872c-10.975,0-19.872-8.898-19.872-19.872
		c0-10.975,8.897-19.872,19.872-19.872C1185.173,572.323,1194.07,581.221,1194.07,592.195z"/>
	<path style="fill:#E3EAFF;" d="M1092.609,877.278c0,10.974-8.897,19.871-19.872,19.871c-10.975,0-19.872-8.897-19.872-19.871
		c0-10.975,8.897-19.872,19.872-19.872C1083.712,857.406,1092.609,866.303,1092.609,877.278z"/>
	<path style="fill:;" d="M2550.092,1155.818c0,10.974-8.896,19.873-19.871,19.873c-10.976,0-19.873-8.899-19.873-19.873
		c0-10.975,8.897-19.871,19.873-19.871C2541.195,1135.947,2550.092,1144.844,2550.092,1155.818z"/>
	<path style="fill:;" d="M610.394,1362.354c0,10.975-8.897,19.872-19.872,19.872c-10.975,0-19.873-8.897-19.873-19.872
		s8.898-19.871,19.873-19.871C601.497,1342.482,610.394,1351.379,610.394,1362.354z"/>
	
		<ellipse transform="matrix(0.9925 -0.1222 0.1222 0.9925 -88.9983 41.4155)" style="fill:;" cx="293.19" cy="746.372" rx="49.696" ry="49.696"/>
</g>
</svg>
