<svg xmlns="http://www.w3.org/2000/svg" xmlns:xlink="http://www.w3.org/1999/xlink" width="272" zoomAndPan="magnify" viewBox="0 0 204 68.999997" height="92" preserveAspectRatio="xMidYMid meet" version="1.0"><defs><clipPath id="2216b00016"><path d="M 48.457031 3.734375 L 151.242188 3.734375 L 151.242188 65.152344 L 48.457031 65.152344 Z M 48.457031 3.734375 " clip-rule="nonzero"/></clipPath><clipPath id="81166abd9c"><path d="M 45.589844 6 L 47 6 L 47 62 L 45.589844 62 Z M 45.589844 6 " clip-rule="nonzero"/></clipPath></defs><rect x="-20.4" width="244.8" fill="#ffffff" y="-6.9" height="82.799996" fill-opacity="1"/><rect x="-20.4" width="244.8" fill="#ffffff" y="-6.9" height="82.799996" fill-opacity="1"/><g clip-path="url(#2216b00016)"><path fill="#6a2055" d="M 101.132812 4.230469 L 123.0625 13.136719 L 144.992188 22.046875 L 151.613281 24.730469 L 144.992188 27.414062 L 139.464844 29.652344 L 139.464844 54.84375 C 140.578125 55.425781 141.363281 56.613281 141.363281 57.980469 C 141.363281 59.925781 139.777344 61.515625 137.832031 61.515625 C 135.886719 61.515625 134.292969 59.925781 134.292969 57.980469 C 134.292969 56.613281 135.058594 55.453125 136.171875 54.84375 L 136.171875 24.703125 L 120.871094 18.488281 L 100.039062 10.046875 L 85.824219 15.824219 L 99.808594 21.484375 L 109.570312 25.449219 L 109.210938 25.578125 L 105.359375 27.144531 L 101.847656 28.574219 L 96.433594 26.386719 L 92.582031 24.820312 L 80.835938 20.054688 L 78.109375 18.933594 L 63.894531 24.703125 L 79.207031 30.90625 L 100.039062 39.359375 L 120.890625 30.90625 L 123.488281 29.855469 L 128.679688 31.957031 L 128.679688 53.59375 L 119.007812 57.507812 L 101.152344 64.761719 L 100.058594 65.207031 L 98.960938 64.761719 L 81.105469 57.507812 L 71.4375 53.59375 L 71.4375 39.183594 L 77.03125 41.441406 L 77.253906 41.535156 L 77.253906 49.679688 L 83.273438 52.117188 L 100.058594 58.917969 L 116.84375 52.117188 L 122.863281 49.679688 L 122.863281 36.363281 L 101.152344 45.183594 L 100.058594 45.628906 L 98.960938 45.183594 L 77.03125 36.273438 L 55.101562 27.367188 L 48.457031 24.703125 L 55.082031 22.019531 L 98.941406 4.210938 L 100.039062 3.761719 Z M 101.132812 4.230469 " fill-opacity="1" fill-rule="evenodd"/></g><g clip-path="url(#81166abd9c)"><path fill="#6a2055" d="M 0.285156 61.03125 L 11.875 61.03125 L 11.875 41.445312 L 17.742188 41.445312 L 31.460938 61.03125 L 46.097656 61.03125 L 30.773438 40.757812 C 39.542969 38.625 43.347656 31.304688 43.347656 23.988281 C 43.347656 15.148438 38.09375 6.535156 24.371094 6.535156 L 0.285156 6.535156 Z M 11.875 32.21875 L 11.875 15.832031 L 21.171875 15.832031 C 26.890625 15.832031 31.609375 16.902344 31.609375 23.988281 C 31.609375 30.925781 26.890625 32.21875 21.171875 32.21875 Z M 11.875 32.21875 " fill-opacity="1" fill-rule="nonzero"/></g></svg>