<svg xmlns="http://www.w3.org/2000/svg" xmlns:xlink="http://www.w3.org/1999/xlink" width="500" zoomAndPan="magnify" viewBox="0 0 810 809.999993" height="36" preserveAspectRatio="xMidYMid meet" version="1.0"><defs><g/><clipPath id="d710eb476d"><path d="M 565.351562 368.222656 L 686.363281 368.222656 L 686.363281 440.402344 L 565.351562 440.402344 Z M 565.351562 368.222656 " clip-rule="nonzero"/></clipPath></defs><g clip-path="url(#d710eb476d)"><path fill="#f4e2de" d="M 627.035156 368.804688 L 652.710938 379.234375 L 678.390625 389.660156 L 686.148438 392.804688 L 678.390625 395.949219 L 671.917969 398.570312 L 671.917969 428.074219 C 673.230469 428.753906 674.144531 430.144531 674.144531 431.742188 C 674.144531 434.023438 672.285156 435.882812 670.003906 435.882812 C 667.726562 435.882812 665.867188 434.023438 665.867188 431.742188 C 665.867188 430.144531 666.757812 428.78125 668.066406 428.074219 L 668.066406 392.78125 L 650.144531 385.496094 L 625.75 375.617188 L 609.109375 382.375 L 625.488281 389.007812 L 636.910156 393.644531 L 636.492188 393.800781 L 631.984375 395.636719 L 627.871094 397.3125 L 621.53125 394.746094 L 617.023438 392.910156 L 603.265625 387.328125 L 600.070312 386.019531 L 583.433594 392.78125 L 601.355469 400.039062 L 625.75 409.941406 L 650.171875 400.039062 L 653.210938 398.804688 L 659.289062 401.269531 L 659.289062 426.605469 L 647.96875 431.191406 L 627.058594 439.683594 L 625.777344 440.207031 L 624.492188 439.683594 L 603.582031 431.191406 L 592.261719 426.605469 L 592.261719 409.734375 L 598.8125 412.378906 L 599.074219 412.484375 L 599.074219 422.023438 L 606.125 424.878906 L 625.777344 432.84375 L 645.425781 424.878906 L 652.476562 422.023438 L 652.476562 406.429688 L 627.058594 416.753906 L 625.777344 417.277344 L 624.492188 416.753906 L 598.8125 406.324219 L 573.132812 395.898438 L 565.351562 392.78125 L 573.109375 389.636719 L 598.785156 379.207031 L 624.464844 368.777344 L 625.75 368.253906 Z M 627.035156 368.804688 " fill-opacity="1" fill-rule="evenodd"/></g><g fill="#f4e2de" fill-opacity="1"><g transform="translate(164.274192, 436.499992)"><g><path d="M 5.398438 0 L 52.289062 0 L 52.289062 -12.601562 L 19.078125 -12.601562 L 19.078125 -25.921875 L 48.421875 -25.921875 L 48.421875 -38.519531 L 19.078125 -38.519531 L 19.078125 -51.660156 L 52.289062 -51.660156 L 52.289062 -64.261719 L 5.398438 -64.261719 Z M 5.398438 0 "/></g></g></g><g fill="#f4e2de" fill-opacity="1"><g transform="translate(221.964127, 436.499992)"><g><path d="M 5.398438 0 L 32.671875 0 C 52.289062 0 61.828125 -13.859375 61.828125 -32.488281 C 61.828125 -53.730469 49.320312 -64.261719 32.671875 -64.261719 L 5.398438 -64.261719 Z M 19.078125 -11.878906 L 19.078125 -52.378906 L 29.160156 -52.378906 C 43.109375 -52.378906 47.699219 -44.101562 47.699219 -31.140625 C 47.699219 -16.921875 39.871094 -11.878906 31.679688 -11.878906 Z M 19.078125 -11.878906 "/></g></g></g><g fill="#f4e2de" fill-opacity="1"><g transform="translate(289.19405, 436.499992)"><g><path d="M 32.308594 1.078125 C 49.050781 1.078125 59.308594 -7.378906 59.308594 -24.75 L 59.308594 -64.261719 L 45.628906 -64.261719 L 45.628906 -24.75 C 45.628906 -15.121094 42.390625 -10.800781 32.308594 -10.800781 C 20.878906 -10.800781 19.078125 -17.730469 19.078125 -24.75 L 19.078125 -64.261719 L 5.398438 -64.261719 L 5.398438 -24.75 C 5.398438 -7.199219 15.390625 1.078125 32.308594 1.078125 Z M 32.308594 1.078125 "/></g></g></g><g fill="#f4e2de" fill-opacity="1"><g transform="translate(353.903984, 436.499992)"><g><path d="M 38.699219 1.078125 C 51.660156 1.078125 62.550781 -6.121094 68.128906 -16.648438 C 62.28125 -19.351562 62.101562 -19.710938 55.800781 -22.949219 C 52.46875 -16.648438 46.078125 -12.691406 38.699219 -12.691406 C 27.898438 -12.691406 19.171875 -21.421875 19.171875 -32.21875 C 19.171875 -42.929688 27.898438 -51.75 38.699219 -51.75 C 45.808594 -51.75 52.019531 -47.878906 55.261719 -42.210938 C 61.558594 -45.269531 62.011719 -45.539062 67.589844 -48.511719 C 62.011719 -58.5 51.300781 -65.519531 38.699219 -65.519531 C 20.339844 -65.519531 5.398438 -50.398438 5.398438 -32.21875 C 5.398438 -13.859375 20.339844 1.078125 38.699219 1.078125 Z M 38.699219 1.078125 "/></g></g></g><g fill="#f4e2de" fill-opacity="1"><g transform="translate(427.433891, 436.499992)"><g><path d="M 38.609375 1.078125 C 56.878906 1.078125 71.910156 -13.769531 71.910156 -32.128906 C 71.910156 -50.578125 56.878906 -65.429688 38.609375 -65.429688 C 20.25 -65.429688 5.398438 -50.578125 5.398438 -32.128906 C 5.398438 -13.769531 20.25 1.078125 38.609375 1.078125 Z M 18.988281 -32.128906 C 18.988281 -42.839844 27.898438 -51.839844 38.609375 -51.839844 C 49.320312 -51.839844 58.050781 -42.839844 58.050781 -32.128906 C 58.050781 -21.421875 49.320312 -12.511719 38.609375 -12.511719 C 27.898438 -12.511719 18.988281 -21.421875 18.988281 -32.128906 Z M 18.988281 -32.128906 "/></g></g></g><g fill="#f4e2de" fill-opacity="1"><g transform="translate(504.743803, 436.499992)"><g><path d="M 5.398438 0 L 19.078125 0 L 19.078125 -23.128906 L 26.011719 -23.128906 L 42.210938 0 L 59.488281 0 L 41.398438 -23.941406 C 51.75 -26.460938 56.25 -35.101562 56.25 -43.738281 C 56.25 -54.179688 50.039062 -64.351562 33.839844 -64.351562 L 5.398438 -64.351562 Z M 19.078125 -34.019531 L 19.078125 -53.371094 L 30.058594 -53.371094 C 36.808594 -53.371094 42.390625 -52.109375 42.390625 -43.738281 C 42.390625 -35.550781 36.808594 -34.019531 30.058594 -34.019531 Z M 19.078125 -34.019531 "/></g></g></g></svg>