<svg xmlns="http://www.w3.org/2000/svg" xmlns:xlink="http://www.w3.org/1999/xlink" width="272" zoomAndPan="magnify" viewBox="0 0 204 68.999997" height="92" preserveAspectRatio="xMidYMid meet" version="1.0"><defs><clipPath id="31e72d1821"><path d="M 158.675781 21.675781 L 201.269531 21.675781 L 201.269531 47.128906 L 158.675781 47.128906 Z M 158.675781 21.675781 " clip-rule="nonzero"/></clipPath></defs><g clip-path="url(#31e72d1821)"><path fill="#6a2055" d="M 180.507812 21.882812 L 198.679688 29.265625 L 201.425781 30.378906 L 198.679688 31.488281 L 196.390625 32.417969 L 196.390625 42.859375 C 196.851562 43.097656 197.175781 43.589844 197.175781 44.15625 C 197.175781 44.960938 196.519531 45.621094 195.714844 45.621094 C 194.90625 45.621094 194.246094 44.960938 194.246094 44.15625 C 194.246094 43.589844 194.5625 43.109375 195.027344 42.859375 L 195.027344 30.367188 L 188.683594 27.792969 L 180.050781 24.292969 L 174.160156 26.6875 L 179.957031 29.03125 L 184 30.675781 L 183.851562 30.730469 L 182.257812 31.378906 L 180.800781 31.972656 L 178.558594 31.066406 L 176.960938 30.414062 L 172.09375 28.441406 L 170.964844 27.976562 L 165.074219 30.367188 L 171.417969 32.9375 L 180.050781 36.441406 L 188.691406 32.9375 L 189.769531 32.5 L 191.921875 33.371094 L 191.921875 42.339844 L 187.914062 43.960938 L 180.515625 46.96875 L 180.058594 47.152344 L 179.605469 46.96875 L 172.207031 43.960938 L 168.199219 42.339844 L 168.199219 36.367188 L 170.519531 37.304688 L 170.609375 37.339844 L 170.609375 40.71875 L 173.105469 41.726562 L 180.058594 44.546875 L 187.015625 41.726562 L 189.511719 40.71875 L 189.511719 35.199219 L 180.515625 38.855469 L 180.058594 39.039062 L 179.605469 38.855469 L 170.519531 35.160156 L 161.429688 31.46875 L 158.675781 30.367188 L 161.421875 29.253906 L 179.597656 21.875 L 180.050781 21.6875 Z M 180.507812 21.882812 " fill-opacity="1" fill-rule="evenodd"/></g><path fill="#6a2055" d="M 19.238281 45.421875 L 35.695312 45.421875 L 35.695312 41 L 24.042969 41 L 24.042969 36.324219 L 34.339844 36.324219 L 34.339844 31.902344 L 24.042969 31.902344 L 24.042969 27.292969 L 35.695312 27.292969 L 35.695312 22.871094 L 19.238281 22.871094 Z M 19.238281 45.421875 " fill-opacity="1" fill-rule="nonzero"/><path fill="#6a2055" d="M 39.484375 45.421875 L 49.054688 45.421875 C 55.941406 45.421875 59.289062 40.554688 59.289062 34.019531 C 59.289062 26.566406 54.898438 22.871094 49.054688 22.871094 L 39.484375 22.871094 Z M 44.285156 41.25 L 44.285156 27.039062 L 47.820312 27.039062 C 52.71875 27.039062 54.328125 29.945312 54.328125 34.492188 C 54.328125 39.480469 51.582031 41.25 48.707031 41.25 Z M 44.285156 41.25 " fill-opacity="1" fill-rule="nonzero"/><path fill="#6a2055" d="M 72.519531 45.800781 C 78.394531 45.800781 81.996094 42.832031 81.996094 36.734375 L 81.996094 22.871094 L 77.195312 22.871094 L 77.195312 36.734375 C 77.195312 40.113281 76.054688 41.628906 72.519531 41.628906 C 68.507812 41.628906 67.878906 39.199219 67.878906 36.734375 L 67.878906 22.871094 L 63.074219 22.871094 L 63.074219 36.734375 C 63.074219 42.894531 66.582031 45.800781 72.519531 45.800781 Z M 72.519531 45.800781 " fill-opacity="1" fill-rule="nonzero"/><path fill="#6a2055" d="M 97.46875 45.800781 C 102.019531 45.800781 105.835938 43.273438 107.796875 39.578125 C 105.742188 38.628906 105.679688 38.503906 103.46875 37.367188 C 102.300781 39.578125 100.058594 40.96875 97.46875 40.96875 C 93.679688 40.96875 90.617188 37.90625 90.617188 34.113281 C 90.617188 30.355469 93.679688 27.257812 97.46875 27.257812 C 99.964844 27.257812 102.144531 28.617188 103.28125 30.609375 C 105.492188 29.535156 105.648438 29.441406 107.605469 28.398438 C 105.648438 24.890625 101.890625 22.425781 97.46875 22.425781 C 91.027344 22.425781 85.78125 27.734375 85.78125 34.113281 C 85.78125 40.554688 91.027344 45.800781 97.46875 45.800781 Z M 97.46875 45.800781 " fill-opacity="1" fill-rule="nonzero"/><path fill="#6a2055" d="M 123.238281 45.800781 C 129.652344 45.800781 134.925781 40.589844 134.925781 34.144531 C 134.925781 27.671875 129.652344 22.460938 123.238281 22.460938 C 116.796875 22.460938 111.585938 27.671875 111.585938 34.144531 C 111.585938 40.589844 116.796875 45.800781 123.238281 45.800781 Z M 116.355469 34.144531 C 116.355469 30.386719 119.480469 27.230469 123.238281 27.230469 C 126.996094 27.230469 130.0625 30.386719 130.0625 34.144531 C 130.0625 37.90625 126.996094 41.03125 123.238281 41.03125 C 119.480469 41.03125 116.355469 37.90625 116.355469 34.144531 Z M 116.355469 34.144531 " fill-opacity="1" fill-rule="nonzero"/><path fill="#6a2055" d="M 138.714844 45.421875 L 143.515625 45.421875 L 143.515625 37.304688 L 145.949219 37.304688 L 151.632812 45.421875 L 157.699219 45.421875 L 151.347656 37.019531 C 154.980469 36.136719 156.558594 33.101562 156.558594 30.070312 C 156.558594 26.40625 154.382812 22.839844 148.695312 22.839844 L 138.714844 22.839844 Z M 143.515625 33.480469 L 143.515625 26.691406 L 147.367188 26.691406 C 149.738281 26.691406 151.695312 27.132812 151.695312 30.070312 C 151.695312 32.945312 149.738281 33.480469 147.367188 33.480469 Z M 143.515625 33.480469 " fill-opacity="1" fill-rule="nonzero"/></svg>