<?xml version="1.0" encoding="utf-8"?>
<!-- Generator: Adobe Illustrator 27.5.0, SVG Export Plug-In . SVG Version: 6.00 Build 0)  -->
<svg version="1.1" xmlns="http://www.w3.org/2000/svg" xmlns:xlink="http://www.w3.org/1999/xlink" x="0px" y="0px"
	 viewBox="0 0 500 500" style="enable-background:new 0 0 500 500;" xml:space="preserve">
<g id="Floor">
	<path id="Floor_00000022538987399999297860000017594367201687829146_" style="fill:#FAFAFA;" d="M86.653,260.635
		c-91.692,52.939-91.69,138.769,0.005,191.708s240.359,52.939,332.051,0c91.692-52.939,91.69-138.769-0.005-191.708
		S178.345,207.696,86.653,260.635z"/>
</g>
<g id="Picture">
	<g id="Picture_00000129921456818249377920000001320897025334055575_">
		<g id="Frame_7_">
			<polygon id="XMLID_00000180353492085170086220000001907070359557217188_" style="fill:#FAFAFA;" points="169.413,29.731 
				172.663,31.548 172.662,107.292 169.413,105.478 			"/>
			<g id="XMLID_832_">
				<g id="XMLID_00000023239568461493830740000005192968269030704260_">
					<g id="XMLID_00000123402523721267701200000017720747504902688188_">
						<polygon id="XMLID_00000084499311552275600670000017275177461301504412_" style="fill:#FFFFFF;" points="169.413,105.478 
							169.406,33.428 38.119,109.14 38.146,181.178 						"/>
					</g>
				</g>
			</g>
			<path id="XMLID_00000091706430553154243200000007840574373887274885_" style="fill:#F0F0F0;" d="M178.694,110.777l0-89.677
				L32.087,105.655l0.001,89.677L178.694,110.777z M38.119,184.883l0.001-75.744l134.543-77.592l0,75.744L38.119,184.883z"/>
			<polygon id="XMLID_00000134234467623832846580000016244911000244393870_" style="fill:#E0E0E0;" points="172.662,107.292 
				169.413,105.478 38.146,181.178 38.119,184.883 			"/>
			<polygon id="XMLID_00000131362304005656223580000013263799786063716254_" style="fill:#FAFAFA;" points="32.088,195.333 
				28.855,193.45 28.855,103.773 32.087,105.655 			"/>
			<polygon id="XMLID_00000114767304765775279820000017859368004163362474_" style="fill:#E0E0E0;" points="28.855,103.773 
				32.087,105.655 178.694,21.1 175.462,19.219 			"/>
		</g>
		<g id="Land_00000178206134134590533080000005739199577271961271_">
			<polygon style="fill:#F0F0F0;" points="163.839,103.293 163.839,42.048 45.345,110.372 45.345,171.617 			"/>
		</g>
		<g id="Land_6_">
			<polygon style="fill:#F0F0F0;" points="163.839,103.293 163.839,42.048 45.345,110.372 45.345,171.617 			"/>
		</g>
		<path style="fill:#FAFAFA;" d="M126.949,63.329c1.429,2.077,2.64,4.323,3.735,6.597c3.836,7.965,6.554,16.468,8.051,25.181
			c1.158,6.744,1.704,13.835,4.936,19.813l20.168-11.626l0-8.294c-3.622-1.209-6.974-3.085-9.658-5.793
			c-7.44-7.507-8.227-19.155-12.437-28.849c-0.64-1.473-1.394-2.892-2.199-4.283L126.949,63.329z"/>
		<path style="fill:#FAFAFA;" d="M101.12,78.17c2.894,12.032,6.451,24.037,3.146,35.723c-2.665,9.42-9.478,17.067-16.607,23.777
			c-7.128,6.71-14.877,12.963-20.329,21.094c-0.054,0.081-0.099,0.167-0.153,0.249l53.998-31.105
			c0.525-1.072,1.054-2.141,1.532-3.238c5.248-12.027,7.144-26.38,1.182-38.069c-2.802-5.493-7.233-10.285-10.265-15.578
			L101.12,78.17z"/>
		<path style="fill:#FAFAFA;" d="M70.557,95.816c-2.4,11.894-11.119,22.552-22.62,26.629c-0.853,0.302-1.719,0.562-2.592,0.804
			l0,23.561c1.122-0.741,2.253-1.468,3.391-2.168c6.641-4.083,13.607-7.792,19.326-13.09c9.589-8.883,15.001-22.098,14.396-35.154
			c-0.108-2.334-0.416-4.653-0.895-6.937L70.557,95.816z"/>
	</g>
</g>
<g id="Shadows">
	<path id="Shadow_00000178901789660497153610000007389327513494428078_" style="fill:#E0E0E0;" d="M349.388,265.946
		c-28.477,16.441-28.477,43.098,0.001,59.541c28.478,16.441,74.651,16.441,103.127,0c28.478-16.442,28.478-43.099-0.001-59.541
		C424.038,249.504,377.866,249.504,349.388,265.946z"/>
	<path id="Shadow_61_" style="fill:#E0E0E0;" d="M208.263,457.141L71.516,378.167c-1.918-1.108-1.918-2.903,0-4.011l166.34-96.149
		c1.918-1.108,5.029-1.108,6.947,0l136.747,78.973c1.918,1.107,1.918,2.903,0,4.011L215.21,457.141
		C213.292,458.248,210.182,458.248,208.263,457.141z"/>
	<path id="Shadow_33_" style="fill:#E0E0E0;" d="M106.189,467.241l50.19-28.986c1.504-0.868,1.504-2.276,0-3.144l-78.227-45.163
		c-1.503-0.868-3.941-0.868-5.445,0l-50.189,28.985c-1.503,0.868-1.503,2.276,0,3.144l78.226,45.163
		C102.248,468.109,104.686,468.109,106.189,467.241z"/>
</g>
<g id="Table">
	<g id="Table_00000148657293803880346220000011874901912751394710_">
		<g id="Table_00000136381278798828415300000008961542413011930787_">
			<g>
				<path style="fill:#455A64;" d="M365.238,173.603c-0.001-0.602,0.396-1.204,1.191-1.663c1.589-0.917,4.166-0.917,5.755,0
					c0.794,0.459,1.192,1.06,1.192,1.662l-30.564,126.912h-0.005c-0.012,0.415-0.289,0.829-0.838,1.146
					c-1.124,0.649-2.945,0.649-4.069,0c-0.549-0.317-0.826-0.731-0.838-1.146h-0.004L365.238,173.603z"/>
				<path style="fill:#455A64;" d="M435.677,173.603c0.001-0.602-0.396-1.204-1.191-1.663c-1.589-0.917-4.165-0.917-5.755,0
					c-0.794,0.459-1.192,1.06-1.192,1.662l30.564,126.912h0.005c0.012,0.415,0.289,0.829,0.838,1.146
					c1.124,0.649,2.946,0.649,4.069,0c0.549-0.317,0.826-0.731,0.838-1.146h0.004L435.677,173.603z"/>
				<path style="fill:#455A64;" d="M405.022,177.79c0.001-0.602-0.396-1.204-1.191-1.663c-1.589-0.917-4.166-0.917-5.755,0
					c-0.794,0.459-1.192,1.06-1.192,1.662l1.192,143.132h0.004c0.012,0.415,0.289,0.829,0.838,1.146
					c1.124,0.649,2.946,0.649,4.069,0c0.549-0.317,0.826-0.731,0.838-1.146h0.004L405.022,177.79z"/>
			</g>
			<g>
				<path style="fill:#BA68C8;" d="M473.875,194.97h-0.067c0.011-10.775-7.051-21.548-21.293-29.77
					c-28.476-16.442-74.65-16.442-103.126,0c-14.24,8.222-21.302,18.995-21.29,29.77h-0.068v5.785l0,0
					c0.171,10.634,7.305,21.236,21.358,29.351c28.479,16.441,74.651,16.441,103.127,0c14.057-8.115,21.189-18.716,21.359-29.351l0,0
					V194.97z"/>
				<path id="XMLID_00000036211014404892977220000018190519483781107116_" style="fill:#BA68C8;" d="M349.389,165.2
					c-28.477,16.441-28.477,43.098,0.001,59.541c28.478,16.441,74.651,16.441,103.127,0c28.478-16.442,28.478-43.099-0.001-59.541
					C424.038,148.758,377.866,148.758,349.389,165.2z"/>
				<path id="XMLID_00000005963711148183882540000012561391324172634518_" style="opacity:0.45;fill:#FFFFFF;" d="M349.389,165.2
					c-28.477,16.441-28.477,43.098,0.001,59.541c28.478,16.441,74.651,16.441,103.127,0c28.478-16.442,28.478-43.099-0.001-59.541
					C424.038,148.758,377.866,148.758,349.389,165.2z"/>
			</g>
		</g>
		<g id="Pot_00000050637331530393391850000018242130546467050931_">
			<g id="XMLID_00000014616190359393023660000011178130629447416722_" style="opacity:0.1;">
				<path id="XMLID_00000081611925234841122250000004490658336919068578_" d="M451.505,179.681c7.88,4.549,7.88,11.925-0.001,16.475
					c-7.88,4.549-20.656,4.549-28.535,0c-7.88-4.55-7.879-11.926,0.001-16.475C430.849,175.131,443.625,175.131,451.505,179.681z"/>
			</g>
			<g id="XMLID_00000077286806560538688960000010457287046470604470_">
				<path id="XMLID_00000071537249368421300440000002257195132211669687_" style="fill:#EBEBEB;" d="M424.687,188.934
					c-6.863-7.002-10.894-24.487-4.2-30.041h34.057c6.692,5.552,2.665,23.027-4.194,30.034c-0.059,0.065-0.126,0.128-0.188,0.193
					c-0.078,0.078-0.157,0.156-0.236,0.231c-0.194,0.188-0.4,0.372-0.62,0.552c-0.054,0.045-0.109,0.085-0.164,0.129
					c-0.168,0.132-0.334,0.264-0.518,0.391c-0.292,0.208-0.588,0.401-0.887,0.567c-5.645,3.259-14.797,3.259-20.442,0h0h-0.001
					c-0.302-0.167-0.598-0.362-0.893-0.571c-0.171-0.119-0.325-0.242-0.482-0.365c-0.068-0.054-0.135-0.103-0.203-0.159
					c-0.213-0.174-0.411-0.351-0.598-0.532c-0.092-0.086-0.182-0.177-0.273-0.266C424.794,189.042,424.736,188.989,424.687,188.934z
					"/>
				<path id="XMLID_00000121279163369471395900000012288060117387605141_" style="fill:#FAFAFA;" d="M451.587,156.656
					c7.771,4.487,7.771,11.761,0,16.247c-7.771,4.486-20.37,4.487-28.141,0c-7.771-4.486-7.771-11.761,0-16.247
					C431.217,152.17,443.816,152.17,451.587,156.656z"/>
				<path id="XMLID_00000080907630750697501150000012558165559764110746_" style="fill:#EBEBEB;" d="M446.077,159.838
					c4.728,2.729,4.728,7.155,0,9.885c-4.728,2.729-12.393,2.729-17.121,0c-4.728-2.73-4.728-7.156,0-9.885
					C433.684,157.108,441.349,157.108,446.077,159.838z"/>
				<path id="XMLID_00000090289714199713798900000003646183779184122024_" style="fill:#E0E0E0;" d="M428.956,164.529
					c4.728-2.729,12.393-2.729,17.12,0c1.314,0.759,2.248,1.65,2.832,2.597c-0.584,0.947-1.518,1.839-2.832,2.597
					c-4.728,2.729-12.393,2.729-17.12,0c-1.314-0.758-2.248-1.65-2.832-2.597C426.708,166.178,427.643,165.287,428.956,164.529z"/>
			</g>
			<g id="XMLID_00000071534113164819040970000001129071595927430823_">
				<path id="XMLID_00000096779071739456110170000007386774682530804866_" style="fill:#BA68C8;" d="M445.034,167.126
					c0,0,3.333-3.176,6.192-8.232c2.859-5.057,3.388-11.831,1.909-12.667c-1.478-0.836-7.496,5.921-7.496,5.921
					s0.886-4.128,0.633-8.631c-0.253-4.504-1.35-8.596-2.639-9.422c-1.29-0.827-4.176,4.856-5.414,8.974
					c-1.238,4.118-1.977,7.502-1.977,7.502s-0.845-5.565-2.218-9.475c-1.501-4.275-2.862-5.241-3.918-4.818
					c-1.056,0.422-1.752,2.417-2.061,8.11c-0.216,3.986,0.255,8.148,0.255,8.148s-2.122-2.333-4.478-4.596
					c-2.587-2.484-3.694-2.827-4.433-2.353c-0.739,0.474-0.943,4.34,3.063,11.586c3.536,6.394,7.563,9.954,7.563,9.954
					S435.559,170.701,445.034,167.126z"/>
				<path id="XMLID_00000037671483283313391370000015805750471062035363_" style="opacity:0.3;" d="M445.034,167.126
					c0,0,3.333-3.176,6.192-8.232c2.859-5.057,3.388-11.831,1.909-12.667c-1.478-0.836-7.496,5.921-7.496,5.921
					s0.886-4.128,0.633-8.631c-0.253-4.504-1.35-8.596-2.639-9.422c-1.29-0.827-4.176,4.856-5.414,8.974
					c-1.238,4.118-1.977,7.502-1.977,7.502s-0.845-5.565-2.218-9.475c-1.501-4.275-2.862-5.241-3.918-4.818
					c-1.056,0.422-1.752,2.417-2.061,8.11c-0.216,3.986,0.255,8.148,0.255,8.148s-2.122-2.333-4.478-4.596
					c-2.587-2.484-3.694-2.827-4.433-2.353c-0.739,0.474-0.943,4.34,3.063,11.586c3.536,6.394,7.563,9.954,7.563,9.954
					S435.559,170.701,445.034,167.126z"/>
			</g>
		</g>
		<g id="Lamp_00000081616819409387006600000000940882064515903924_">
			<g>
				<path style="fill:#37474F;" d="M392.478,183.211h-0.017c0.003-2.83-1.852-5.659-5.593-7.819c-7.479-4.318-19.607-4.318-27.086,0
					c-3.741,2.159-5.595,4.989-5.592,7.819h-0.018v1.811l0,0c0.045,2.793,1.919,5.577,5.61,7.709c7.48,4.318,19.607,4.318,27.086,0
					c3.692-2.131,5.565-4.915,5.61-7.709l0,0V183.211z"/>
				<g id="XMLID_00000154401718041383976240000010364450032303365534_">
					<g id="XMLID_00000070115801258303381620000007905788926954115512_">
						<path id="XMLID_00000095305965354162550570000004349326640962831764_" style="fill:#455A64;" d="M359.782,175.392
							c-7.48,4.319-7.48,11.32,0,15.638c7.48,4.319,19.607,4.319,27.086,0c7.48-4.318,7.48-11.32,0-15.638
							C379.388,171.074,367.261,171.074,359.782,175.392z"/>
					</g>
				</g>
			</g>
			<path id="XMLID_00000125589564281919401300000008405758241534362795_" style="fill:#37474F;" d="M370.975,128.059h4.8v52.518
				h-0.02c0.058,0.393-0.162,0.797-0.683,1.097c-0.938,0.541-2.457,0.541-3.395,0c-0.521-0.3-0.741-0.705-0.683-1.097h-0.02V128.059
				z"/>
			<path id="XMLID_00000162331114979713067550000014104908671613508741_" style="fill:#BA68C8;" d="M342.324,117.216h-0.013
				l14.626-37.293h32.88l14.626,37.293h-0.017c2.083,5.833-0.78,12.137-8.62,16.663c-12.388,7.152-32.474,7.152-44.862,0
				C343.104,129.353,340.242,123.049,342.324,117.216z"/>
			<g id="XMLID_00000124848254543243643530000007820848121594499969_" style="opacity:0.4;">
				<path style="fill:#FFFFFF;" d="M342.324,117.216h-0.013l14.626-37.293h32.88l14.626,37.293h-0.017
					c2.083,5.833-0.78,12.137-8.62,16.663c-12.388,7.152-32.474,7.152-44.862,0C343.104,129.353,340.242,123.049,342.324,117.216z"
					/>
			</g>
			<path style="opacity:0.2;fill:#BA68C8;" d="M358.503,124.3c-5.956-9.675,1.663-27.988,7.262-43.277l0.008-1.1h-8.836
				l-14.626,37.293h0.013c-2.082,5.833,0.78,12.137,8.62,16.663c12.388,7.152,32.474,7.152,44.862,0
				C384.611,138.273,364.46,133.975,358.503,124.3z"/>
			<g>
				<path id="XMLID_00000122695038324837081040000006600135061671077302_" style="fill:#BA68C8;" d="M385.271,88.854
					c-6.57,3.793-17.222,3.793-23.792,0c-6.569-3.793-6.569-9.944,0-13.737c6.57-3.793,17.222-3.793,23.792,0
					C391.841,78.91,391.841,85.061,385.271,88.854z"/>
			</g>
			<g style="opacity:0.6;">
				<g id="XMLID_00000074412453388459573210000014270229482902878902_">
					<path style="fill:#FFFFFF;" d="M385.271,88.854c-6.57,3.793-17.222,3.793-23.792,0c-6.569-3.793-6.569-9.944,0-13.737
						c6.57-3.793,17.222-3.793,23.792,0C391.841,78.91,391.841,85.061,385.271,88.854z"/>
				</g>
			</g>
			<g>
				<path id="XMLID_00000096047891499699608500000006497315780087967420_" style="fill:#BA68C8;" d="M373.375,89.747
					c4.156,0,8.034-0.919,10.919-2.585c2.549-1.47,3.952-3.308,3.952-5.177c0-1.869-1.403-3.707-3.952-5.176
					c-2.885-1.666-6.763-2.586-10.919-2.586c-4.157,0-8.034,0.919-10.919,2.586c-2.549,1.47-3.953,3.308-3.953,5.176
					c0,1.868,1.404,3.707,3.953,5.177C365.341,88.828,369.219,89.747,373.375,89.747z"/>
			</g>
		</g>
	</g>
</g>
<g id="Couch">
	<g id="Couch_00000121252589886518966670000002307509179370717067_">
		<g>
			<polygon style="fill:#B16668;" points="212.872,449.044 215.181,415.953 231.208,406.7 222.04,443.751 			"/>
			<polygon style="fill:#9A4A4D;" points="212.872,449.044 203.705,443.751 203.882,409.431 215.181,415.954 			"/>
		</g>
		<g>
			<polygon style="fill:#B16668;" points="100.558,384.214 102.868,351.123 118.894,341.87 109.726,378.921 			"/>
			<polygon style="fill:#9A4A4D;" points="100.558,384.214 91.391,378.921 91.568,344.601 102.867,351.123 			"/>
		</g>
		<g>
			<polygon style="fill:#B16668;" points="367.729,359.644 365.42,329.22 349.393,338.473 358.562,364.937 			"/>
			<polygon style="fill:#9A4A4D;" points="358.561,364.937 349.393,359.645 338.094,331.952 349.393,338.475 			"/>
		</g>
		<g>
			<polygon style="fill:#B16668;" points="212.872,414.618 369.222,324.362 369.222,334.948 212.872,425.204 			"/>
			<polygon style="fill:#9A4A4D;" points="84.524,351.102 212.872,425.204 212.872,414.618 84.523,340.516 			"/>
			<polygon style="fill:#9A4A4D;" points="212.872,414.618 369.222,324.362 240.874,250.26 84.523,340.516 			"/>
		</g>
		<g id="XMLID_00000003783998161727829600000003874689409342813108_">
			<path id="XMLID_00000046327570576349814830000016253747269189617054_" style="fill:#37474F;" d="M369.389,259.19v55.921
				c0,5.692-4.036,12.688-8.962,15.523l-2.588,1.505c-0.041,0.021-0.083,0.041-0.124,0.062c-2.877,1.614-7.496,2.377-11.199,1.925
				L233.479,394.21c-0.249,5.547-4.119,12.108-8.858,14.902c-0.021,0-0.062,0.021-0.083,0.042l-2.579,1.495
				c-0.228,0.145-0.455,0.269-0.683,0.352c-0.124,0.083-0.249,0.124-0.372,0.186c-0.042,0.02-0.083,0.02-0.104,0.041
				c-4.015,1.842-9.542,2.049-13.909,0.642c-0.538-0.165-1.055-0.352-1.552-0.579c-0.082-0.041-0.165-0.062-0.249-0.103
				c-0.372-0.166-0.724-0.352-1.055-0.538L87.445,343.341c-4.947-2.856-8.962-9.831-8.962-15.523l-0.021-121.138
				c0-5.691,4.036-12.667,8.962-15.523l138.469-80.016c4.947-2.856,12.998-2.856,17.924,0l7.307,4.202
				c4.925,2.857,9.583,9.79,10.328,15.44l7.037,59.795l91.938,53.089C365.353,246.502,369.389,253.498,369.389,259.19z"/>
			<path id="XMLID_00000068653375315747460210000006652066460518946450_" style="fill:#455A64;" d="M251.123,115.352l-7.298-4.214
				c-4.95-2.857-12.975-2.857-17.924,0L87.434,191.161c-0.526,0.304-1.098,0.702-0.921,0.575c-4.078,2.856-7.389,8.445-7.948,13.433
				c0.662-4.574,4.388-6.23,8.859-3.664c-0.6-0.347,7.308,4.218,7.308,4.218c4.95,2.858,12.975,2.858,17.924,0l138.467-80.023
				C256.073,122.843,256.073,118.21,251.123,115.352z"/>
		</g>
		<g id="XMLID_00000109031598803643534080000015586404594878205597_">
			<path id="XMLID_00000171698794781562028220000011622105024309054626_" style="fill:#263238;" d="M369.389,259.19v55.921
				c0,5.692-4.036,12.688-8.962,15.523l-2.588,1.505c-0.041,0.021-0.083,0.041-0.124,0.062c-2.877,1.614-6.768,2.277-10.494,1.987
				c-2.67-0.186-5.257-0.89-7.306-2.049l-82.956-47.915c-4.926-2.835-8.962-9.831-8.962-15.523V212.78
				c0-5.692,4.015-12.688,8.962-15.523l11.53-6.679l91.938,53.089C365.353,246.502,369.389,253.498,369.389,259.19z"/>
			<path id="XMLID_00000135650731108749603050000016042504724009617068_" style="fill:#455A64;" d="M268.493,190.583l-11.542,6.671
				c-4.929,2.846-4.929,7.503,0,10.349l82.965,47.9c4.929,2.846,8.962,9.831,8.962,15.523l-0.001,55.932
				c0,5.692,4.033,8.02,8.962,5.174l2.581-1.497c4.93-2.846,8.962-9.831,8.962-15.523V259.18c0-5.692-4.033-12.677-8.962-15.523
				L268.493,190.583z"/>
			<path id="XMLID_00000137822494194782883160000015451159157065097913_" style="fill:#37474F;" d="M348.878,271.025l-0.001,55.932
				c0,5.692,4.033,8.021,8.962,5.175l2.581-1.497c4.93-2.846,8.963-9.832,8.963-15.523V259.18c0-2.846-1.009-6.016-2.633-8.829
				l-20.505,11.845C347.87,265.01,348.878,268.179,348.878,271.025z"/>
		</g>
		<g id="XMLID_00000162353929279853067940000004099823916561707446_">
			<path id="XMLID_00000100345925187326543170000014619595782845854108_" style="fill:#263238;" d="M345.149,334.188
				c-0.845,1.766-1.968,3.464-3.274,4.93c-1.9,2.134-5.956,4.468-8.43,5.897c-31.526,18.211-57.593,33.318-89.12,51.519
				c-2.475,1.429-6.487,1.428-8.962-0.001l-29.145-16.832l-58.305-33.654c-4.947-2.856-8.962-9.521-8.962-14.882
				c0-5.361,4.015-12.025,8.962-14.882l33.074-19.104l25.23-14.551l30.745-17.819c2.484-1.428,5.713-2.132,8.962-2.132
				c3.25,0,6.479,0.704,8.963,2.132l82.955,47.915c4.947,2.856,8.962,5.066,8.962,11.638
				C346.805,326.452,346.184,331.994,345.149,334.188z"/>
			<path id="XMLID_00000016060650944160808530000011481848545603970999_" style="fill:#37474F;" d="M244.333,377.122l97.991-56.648
				c2.475-1.429,4.481-0.27,4.481,2.587v9.067c0,2.858-2.006,6.333-4.482,7.762l-97.998,56.644c-2.475,1.429-4.48,0.27-4.479-2.588
				l0.003-9.063C239.851,382.026,241.858,378.551,244.333,377.122z"/>
		</g>
		<g id="XMLID_00000181805499477692674540000002483523799352268442_">
			<g>
				<path id="XMLID_00000117644672995106593310000017687834763197422465_" style="fill:#37474F;" d="M235.938,233.157l-88.023,50.88
					c-4.95,2.858-8.962,9.808-8.961,15.523l0,6.029c0.001,5.715,4.013,12.665,8.963,15.523l82.965,47.9
					c4.949,2.858,12.975,2.858,17.924,0l88.021-50.878c4.95-2.857,8.962-9.808,8.962-15.523v-6.032
					c0-5.715-4.012-12.665-8.962-15.523l-82.965-47.899C248.913,230.3,240.888,230.3,235.938,233.157z"/>
				<path id="XMLID_00000179627549389108279270000008839513857145527722_" style="fill:#263238;" d="M239.852,344.418v26.744
					c-3.25,0-6.499-0.724-8.962-2.152l-82.976-47.894c-4.947-2.856-8.962-9.811-8.962-15.523v-6.027
					c0-5.361,3.539-11.798,8.051-14.944c-4.015,2.877-3.705,7.099,0.911,9.769l82.976,47.894
					C233.374,343.714,236.602,344.418,239.852,344.418z"/>
				<path id="XMLID_00000102545121805808326350000014165205585312800675_" style="fill:#455A64;" d="M248.806,342.285l88.021-50.88
					c4.95-2.858,4.95-7.491,0-10.349l-82.965-47.899c-4.95-2.857-12.975-2.857-17.924,0l-88.023,50.88
					c-4.95,2.858-4.95,7.491,0,10.349l82.967,47.899C235.832,345.143,243.857,345.143,248.806,342.285z"/>
			</g>
		</g>
		<g id="Cushion_00000003087918674935786370000000929046005748049597_">
			<path style="fill:#BA68C8;" d="M189.35,186.259c-5.739-0.573-10.49,6.044-20.057,10.724
				c-17.826,8.721-25.851,16.648-34.153,26.322c-8.302,9.675-11.44,8.042-13.975,14.068c-2.536,6.027,4.476,8.615,7.819,17.169
				c5.634,14.416,12.638,24.1,19.931,30.108c12.874,10.606,10.906,17.992,16.763,17.924c6.24-0.073,5.79-5.428,15.595-9.236
				c23.197-9.011,32.72-17.038,43.439-32.9c4.187-6.196,9.521-5.675,10.533-11.658c0.507-2.993-3.846-4.601-7.773-13.99
				c-6.525-15.603-16.941-30.24-27.097-37.843C195.943,193.629,195.191,186.842,189.35,186.259z"/>
			<path style="opacity:0.3;" d="M189.35,186.259c-5.739-0.573-10.49,6.044-20.057,10.724
				c-17.826,8.721-25.851,16.648-34.153,26.322c-8.302,9.675-11.44,8.042-13.975,14.068c-2.536,6.027,4.476,8.615,7.819,17.169
				c5.634,14.416,12.638,24.1,19.931,30.108c12.874,10.606,10.906,17.992,16.763,17.924c6.24-0.073,5.79-5.428,15.595-9.236
				c23.197-9.011,32.72-17.038,43.439-32.9c4.187-6.196,9.521-5.675,10.533-11.658c0.507-2.993-3.846-4.601-7.773-13.99
				c-6.525-15.603-16.941-30.24-27.097-37.843C195.943,193.629,195.191,186.842,189.35,186.259z"/>
			<path style="opacity:0.2;" d="M127.476,247.42c4.902,6.947,4.253,13.877,14.332,26.647c9.68,12.264,16.688,15.706,19.591,21.214
				c2.41,4.571,5.7,6.709,6.487,1.361c0.787-5.348-3.42-20.648-13.172-33.738c-11.233-15.077-18.4-20.845-23.25-23.058
				C123.861,236.377,123.622,241.959,127.476,247.42z"/>
			<path style="opacity:0.2;" d="M181.661,287.443c-6.401,2.21-6.677,7.884-9.892,12.27c1.966-1.875,4.278-4.344,9.505-6.375
				c10.567-4.105,18.292-8.008,24.59-12.538C197.669,285.116,186.308,285.839,181.661,287.443z M221.739,258.034
				c-3.967,3.656-3.575,10.155-8.349,16.428c4.042-3.98,7.611-8.532,11.323-14.024c3.823-5.658,8.592-5.729,10.164-10.251
				C231.368,254.633,226.514,253.635,221.739,258.034z"/>
			<path style="opacity:0.3;fill:#BA68C8;" d="M181.366,200.074c-13.658,2.554-27.321,9.595-36.712,20.104
				c-1.758,2.125-2.802,5.01-2.499,7.924c0.381,3.673,2.059,6.691,5.516,8.646c3.208,1.815,7.908,1.818,11.262,1.388
				c7.071-0.907,11.237-2.755,20.38-2.899c2.697-0.042,6.616,0.763,9.635,2.44c4.514,2.507,7.881,5.342,11.832,7.458
				c5.441,2.914,15.1,1.584,18.454-1.774c3.582-3.587,4.387-8.971,1.179-15.724C213.286,212.638,200.001,198.024,181.366,200.074z"
				/>
		</g>
		<g id="XMLID_00000101080959004050804270000005322058349372174497_">
			<path id="XMLID_00000119800601688577212500000005983076041929827484_" style="fill:#263238;" d="M212.992,405.482v-55.931
				c0-5.692-4.033-12.677-8.962-15.523l-91.927-53.074l-7.041-59.798c-0.752-5.642-5.4-12.587-10.329-15.433l-7.298-4.213
				c-4.929-2.846-8.962-0.517-8.962,5.174l0.001,121.133c0,5.692,4.033,12.677,8.962,15.523l116.595,67.316
				C208.959,413.503,212.992,411.174,212.992,405.482z"/>
			<path id="XMLID_00000179616435708753615210000011852993947820737677_" style="fill:#455A64;" d="M233.499,337.689v55.942
				c0,0.186,0,0.393-0.021,0.579c-0.249,5.547-4.119,12.108-8.858,14.902c-0.021,0-0.062,0.021-0.083,0.042l-2.579,1.495
				c-0.228,0.145-0.455,0.269-0.683,0.352c-0.124,0.083-0.249,0.124-0.372,0.186c-0.042,0.02-0.083,0.02-0.104,0.041
				c-0.248,0.103-0.496,0.207-0.724,0.269c-3.932,1.552-9.066,1.676-13.184,0.372c-0.538-0.165-1.055-0.352-1.552-0.579
				c4.305,1.78,7.638-0.641,7.658-5.795c0,0,0,0,0-0.021v-55.921c0-5.692-4.036-12.688-8.962-15.523l-16.268-9.397l-75.67-43.672
				l11.562-6.69c4.926-2.836,12.998-2.836,17.924,0l66.708,38.518l16.248,9.376C229.484,325.022,233.499,331.997,233.499,337.689z"
				/>
			<path id="XMLID_00000031896051547551531180000001782874287842734253_" style="fill:#37474F;" d="M212.996,349.554v55.921
				c0,0.021,0,0.021,0,0.021c-0.02,5.154-3.353,7.575-7.658,5.795c0.497,0.228,1.014,0.414,1.552,0.579
				c4.119,1.304,9.252,1.18,13.184-0.372c0.228-0.062,0.476-0.166,0.724-0.269c0.021-0.021,0.062-0.021,0.104-0.041
				c0.124-0.062,0.248-0.104,0.372-0.186c0.228-0.083,0.455-0.207,0.683-0.352l2.579-1.495c0.021-0.021,0.062-0.042,0.083-0.042
				c4.739-2.794,8.61-9.355,8.858-14.902c0.021-0.186,0.021-0.393,0.021-0.579v-55.942c0-2.845-1.003-6.011-2.625-8.822
				l-20.513,11.854C211.987,343.536,212.996,346.708,212.996,349.554z"/>
			<g id="XMLID_00000064353586928414713020000003795399624998046109_" style="opacity:0.2;">
				<path style="fill:#FFFFFF;" d="M112.095,280.962c2.854-1.711,9.032-5.42,11.798-7.025c5.46-2.802,12.456-2.815,17.902,0.055
					c17.811,10.098,49.675,28.515,67.368,38.858c0,0,15.778,9.282,15.778,9.282c5.068,3.424,8.453,9.451,8.558,15.557
					c-0.302-6.002-3.776-11.922-8.814-15.138c0,0-15.907-9.034-15.907-9.034c-17.834-10.168-49.659-28.531-67.332-38.919
					c-5.223-2.854-12.023-2.892-17.376-0.329C121.264,275.789,114.952,279.39,112.095,280.962L112.095,280.962z"/>
			</g>
		</g>
	</g>
</g>
<g id="Character">
	<g id="Character_00000124135723712528289420000008974430344811719588_">
		<g>
			<g>
				<g>
					<path style="fill:#C8856A;" d="M286.714,326.987l15.986-20.429l24.364,18.325c-16.478,10.929-34.611,24.59-39.09,29.894
						c0,0-13.891-6.066-14.718-13.907C272.429,333.029,282.327,328.677,286.714,326.987z"/>
					<g>
						<path style="fill:#263238;" d="M268.625,332.685c-1.604,0.689-2.697,1.678-3.904,2.879c-1.207,1.201-2.239,7.978-3.744,10.919
							c-1.505,2.941-2.357,3.637-4.616,7.252c-2.503,4.006-6.336,7.36-5.077,19.169c1.275,11.967,5.744,18.202,9.873,21.839
							c2.17,1.912,5.356,2.471,5.356,2.471s6.566-1.108,6.34-4.906C272.628,388.51,268.625,332.685,268.625,332.685z"/>
						<path id="XMLID_00000164490744565667944980000010774600773591614108_" style="fill:#BA68C8;" d="M293.039,350.181
							c-0.395,1.113-2.345,2.56-3.18,3.368c-2.811,2.717-4.656,6.777-6.15,10.349c-7.071,16.906-1.83,27.236-12.611,31.978
							c-3.088,1.189-8.691-0.407-15.166-13.213c-3.308-6.542-3.538-18.701-0.773-23.642c2.764-4.941,5.803-7.915,7.716-11.759
							c1.911-3.843,2.823-11.527,5.752-14.575c1.718-1.789,4.141-2.808,6.431-3.648c1.882-0.691,5.824-1.313,7.732-1.95
							c2.062-0.689,3.068-1.559,3.926-0.099l-2.46,2.057c-3.933,3.67-3.194,4.466-3.569,6.758c-0.391,2.39-1.677,4.748-2.576,7.027
							c2.744-2.34,4.12-4.587,6.436-3.688c2.168,0.84,2.626,0.837,5.43,4.74C292.778,347.784,293.389,349.192,293.039,350.181z"/>
						<path id="XMLID_00000154415138346332494980000014555011245419044282_" style="opacity:0.4;" d="M293.039,350.181
							c-0.395,1.113-2.345,2.56-3.18,3.368c-2.811,2.717-4.656,6.777-6.15,10.349c-7.071,16.906-1.83,27.236-12.611,31.978
							c-3.088,1.189-8.691-0.407-15.166-13.213c-3.308-6.542-3.538-18.701-0.773-23.642c2.764-4.941,5.803-7.915,7.716-11.759
							c1.911-3.843,2.823-11.527,5.752-14.575c1.718-1.789,4.141-2.808,6.431-3.648c1.882-0.691,5.824-1.313,7.732-1.95
							c2.062-0.689,3.068-1.559,3.926-0.099l-2.46,2.057c-3.933,3.67-3.194,4.466-3.569,6.758c-0.391,2.39-1.677,4.748-2.576,7.027
							c2.744-2.34,4.12-4.587,6.436-3.688c2.168,0.84,2.626,0.837,5.43,4.74C292.778,347.784,293.389,349.192,293.039,350.181z"/>
						<path style="opacity:0.3;" d="M255.932,382.661c-3.308-6.542-3.538-18.701-0.774-23.642c0.999-1.786,2.033-3.311,3.039-4.717
							c-0.144,0.342-0.322,0.685-0.431,0.982c-0.242,0.661-0.466,1.329-0.667,2.004c-0.774,2.596-1.332,5.481-0.697,8.168
							c0.566,2.391,1.781,8.35,4.723,9.055c1.665,0.399,3.405-0.963,4.421-2.713c0.428-0.739,1.3-2.787,1.3-2.787
							s4.189,1.804,7.084,4.661c3.74,3.69,3.459,4.289,3.459,4.289c-0.371,0.936-0.89,2.547-0.882,3.746
							c0.008,1.202,0.295,3.197,0.861,4.074c0.273,0.424,0.59,0.777,0.922,1.093c-0.976,4.027-2.668,7.013-7.19,9.001
							C268.009,397.063,262.406,395.467,255.932,382.661z"/>
						<g>
							<path style="fill:#37474F;" d="M283.708,363.897c-2.194,5.245-3.201,9.855-3.871,13.863
								c-2.506,4.192-3.897,3.779-3.632,1.405c0.267-2.388,5.288-11.464,9.184-19.021
								C284.773,361.403,284.218,362.678,283.708,363.897z"/>
							<path style="fill:#37474F;" d="M278.546,333.543c0.172-2.248,1.305-4.371,2.993-6.106c0.464-0.117,0.898-0.234,1.249-0.351
								c2.063-0.689,3.068-1.559,3.926-0.099l-2.46,2.057c-3.933,3.67-3.194,4.466-3.569,6.758c-0.39,2.39-1.677,4.747-2.576,7.026
								c-3.3,7.294-5.441,9.527-7.709,16.585c-2.268,7.058-1.777,12.199-2.877,12.406c-1.1,0.208-3.001-1.017-2.235-6.881
								c0.765-5.864,5.234-15.09,7.944-19.346C275.942,341.337,278.305,336.704,278.546,333.543z"/>
						</g>
						<g>
							<g>
								<path style="fill:#EBEBEB;" d="M266.231,369.415c0.078,0.118,0.189,0.215,0.329,0.274c4.865,2.042,7.317,3.848,10.217,9.037
									c0.21,0.345,0.643,0.481,0.999,0.283c0.354-0.198,0.481-0.646,0.283-0.999c-3.065-5.482-5.755-7.505-10.932-9.675
									c-0.373-0.156-0.803,0.019-0.961,0.393C266.069,368.962,266.102,369.218,266.231,369.415z"/>
							</g>
							<g>
								<path style="fill:#EBEBEB;" d="M268.331,363.57c0.076,0.116,0.186,0.212,0.321,0.274c5.007,2.246,7.626,4.305,10.712,9.777
									c0.236,0.397,0.665,0.49,1.027,0.287c0.362-0.205,0.491-0.665,0.287-1.027c-3.258-5.763-6.101-8.03-11.409-10.412
									c-0.379-0.171-0.825-0.001-0.996,0.379C268.163,363.091,268.194,363.363,268.331,363.57z"/>
							</g>
							<g>
								<path style="fill:#EBEBEB;" d="M269.509,356.911c0.083,0.127,0.203,0.233,0.354,0.301
									c5.522,2.479,8.563,4.942,11.962,10.972c0.212,0.389,0.733,0.54,1.133,0.315c0.398-0.226,0.54-0.733,0.315-1.133
									c-3.583-6.34-6.878-9.043-12.73-11.671c-0.418-0.188-0.91,0-1.098,0.418C269.324,356.382,269.358,356.681,269.509,356.911z"
									/>
							</g>
							<g>
								<path style="fill:#EBEBEB;" d="M271.585,351.433c0.082,0.124,0.2,0.229,0.348,0.294c5.414,2.427,8.359,4.797,11.701,10.721
									c0.213,0.376,0.717,0.53,1.109,0.308c0.392-0.22,0.53-0.717,0.308-1.11c-3.506-6.217-6.716-8.833-12.453-11.406
									c-0.41-0.184-0.892,0-1.076,0.41C271.404,350.914,271.437,351.208,271.585,351.433z"/>
							</g>
							<g>
								<path style="fill:#EBEBEB;" d="M274.75,346.323c0.082,0.124,0.2,0.229,0.348,0.294c5.413,2.431,8.356,4.794,11.701,10.723
									c0.219,0.384,0.717,0.53,1.109,0.308c0.392-0.22,0.53-0.717,0.308-1.11c-3.512-6.223-6.714-8.833-12.451-11.409
									c-0.41-0.183-0.893,0.001-1.078,0.41C274.569,345.804,274.603,346.098,274.75,346.323z"/>
							</g>
						</g>
					</g>
				</g>
				<g>
					<path style="fill:#BA68C8;" d="M269.192,232.378c0.311,4.58,26.531,12.25,46.654,17.944
						c23.116,6.542,34.188,11.426,42.907,19.62c4.92,4.624,7.869,10.587,6.718,18.385c-0.839,5.677-5.389,14.992-15.827,23.843
						c-19.799,16.79-29.535,20.873-43.556,30.639c0,0-15.006-9.201-17.693-20.365l19.69-23.105l-59.286-15.365L269.192,232.378z"/>
					<path style="opacity:0.4;fill:#FFFFFF;" d="M269.192,232.378c0.311,4.58,26.531,12.25,46.654,17.944
						c23.116,6.542,34.188,11.426,42.907,19.62c4.92,4.624,7.869,10.587,6.718,18.385c-0.839,5.677-5.389,14.992-15.827,23.843
						c-19.799,16.79-29.535,20.873-43.556,30.639c0,0-15.006-9.201-17.693-20.365l19.69-23.105l-59.286-15.365L269.192,232.378z"/>
					<path style="opacity:0.5;fill:#BA68C8;" d="M317.265,321.37c1.234,4.101,3.267,11.452,3.289,12.044
						c-3.592,2.261-10.514,6.645-14.466,9.397c0,0-15.006-9.201-17.693-20.365l17.242-20.233
						C311.891,308.002,314.01,310.552,317.265,321.37z"/>
					<path style="opacity:0.5;fill:#BA68C8;" d="M313.659,286.798c-4.931,4.64-6.934,4.384-17.013,2.427
						c-1.117-0.217-2.432-0.474-3.896-0.761l-21.352-16.962c2.359-7.845,3.248-14.005,0.617-20.538l-9.645-7.831l-13.573,40.842
						l7.261,1.882l52.026,13.483c7.151-9.28,14.818-17.967,22.268-19.144C325.393,279.223,320.513,280.348,313.659,286.798z"/>
				</g>
			</g>
			<g>
				<g>
					<path style="fill:#C8856A;" d="M317.375,417.507l-17.496-29.932l29.006-18.208c6.842,18.802,12.148,41.117,17.517,48.719
						c0,0-8.075,13.786-16.865,12.6C320.748,429.499,318.091,422.643,317.375,417.507z"/>
					<g>
						<path style="fill:#263238;" d="M319.39,433.474c0.34,1.896,1.139,3.326,2.141,4.934c1.002,1.607,8.147,4.5,10.976,6.886
							c2.829,2.385,3.37,3.481,6.74,6.849c3.735,3.734,6.414,8.717,19.656,10.489c13.419,1.797,21.392-1.334,26.436-4.787
							c2.652-1.815,4.085-5.073,4.085-5.073s0.484-7.312-3.73-8.073C381.482,443.937,319.39,433.474,319.39,433.474z"/>
						<path id="XMLID_00000046334134164271425520000011619940539560236461_" style="fill:#BA68C8;" d="M344.828,411.997
							c1.115,0.716,2.195,3.182,2.862,4.289c2.246,3.723,6.21,6.767,9.731,9.307c16.665,12.022,29.318,9.148,31.72,21.924
							c0.503,3.615-2.689,9.183-18.367,12.723c-8.009,1.808-21.367-1.156-26.059-5.416c-4.691-4.26-7.159-8.293-10.869-11.353
							c-3.71-3.058-11.879-6.061-14.457-9.997c-1.513-2.309-2.002-5.168-2.33-7.838c-0.27-2.195-0.747-9.638-0.747-9.638
							c2.999,5.173,7.191,4.402,9.601,5.408c2.513,1.049,4.76,3.046,7.02,4.609c-1.851-3.551-3.953-5.615-2.373-7.853
							c1.479-2.096,1.594-2.586,6.586-4.552C342.14,411.643,343.837,411.362,344.828,411.997z"/>
						<path id="XMLID_00000134960312892606816070000015559030546274284958_" style="opacity:0.4;" d="M344.828,411.997
							c1.115,0.716,2.195,3.182,2.862,4.289c2.246,3.723,6.21,6.767,9.731,9.307c16.665,12.022,29.318,9.148,31.72,21.924
							c0.503,3.615-2.689,9.183-18.367,12.723c-8.009,1.808-21.367-1.156-26.059-5.416c-4.691-4.26-7.159-8.293-10.869-11.353
							c-3.71-3.058-11.879-6.061-14.457-9.997c-1.513-2.309-2.002-5.168-2.33-7.838c-0.27-2.195-0.747-9.638-0.747-9.638
							c2.999,5.173,7.191,4.402,9.601,5.408c2.513,1.049,4.76,3.046,7.02,4.609c-1.851-3.551-3.953-5.615-2.373-7.853
							c1.479-2.096,1.594-2.586,6.586-4.552C342.14,411.643,343.837,411.362,344.828,411.997z"/>
						<path style="opacity:0.3;" d="M370.775,460.24c-8.009,1.809-21.367-1.156-26.059-5.416c-1.696-1.54-3.096-3.048-4.375-4.494
							c0.337,0.244,0.666,0.525,0.962,0.719c0.661,0.433,1.334,0.85,2.02,1.243c2.64,1.513,5.651,2.871,8.754,2.902
							c2.762,0.027,9.592,0.3,11.124-2.657c0.866-1.674-0.174-3.895-1.826-5.442c-0.698-0.653-2.713-2.125-2.713-2.125
							s3.055-4.001,6.927-6.342c5.001-3.023,5.584-2.565,5.584-2.565c0.927,0.643,2.556,1.624,3.869,1.932
							c1.316,0.309,3.573,0.529,4.678,0.156c0.534-0.18,1.002-0.426,1.433-0.696c4.153,2.106,6.982,4.704,7.989,10.062
							C389.645,451.132,386.453,456.7,370.775,460.24z"/>
						<g>
							<path style="fill:#37474F;" d="M357.422,425.593c5.17,3.729,9.952,6.023,14.164,7.798c3.938,3.785,3.126,5.164,0.599,4.254
								c-2.542-0.916-11.173-8.68-18.433-14.84C354.97,423.796,356.22,424.727,357.422,425.593z"/>
							<path style="fill:#37474F;" d="M322.89,423.096c-2.415-0.778-4.365-1.085-6.207-2.714c-1.187-0.974-1.226-4.159-0.836-5.491
								l1.641,2.783c3.321,2.494,6.016,2.725,8.426,3.731c2.514,1.048,4.759,3.046,7.02,4.609c7.126,5.453,9.015,8.332,16.149,12.62
								c7.134,4.289,12.883,5.12,12.827,6.352c-0.057,1.231-1.887,2.939-8.104,0.572c-6.216-2.367-15.153-9.58-19.108-13.6
								C330.742,427.938,326.285,424.188,322.89,423.096z"/>
						</g>
						<g>
							<g>
								<path style="fill:#EBEBEB;" d="M358.945,445.733c0.15-0.052,0.284-0.146,0.385-0.28c3.489-4.662,6.098-6.805,12.522-8.535
									c0.432-0.134,0.692-0.561,0.568-0.993c-0.126-0.43-0.582-0.685-1.02-0.566c-6.787,1.828-9.694,4.17-13.405,9.13
									c-0.267,0.358-0.186,0.864,0.182,1.131C358.408,445.786,358.697,445.819,358.945,445.733z"/>
							</g>
							<g>
								<path style="fill:#EBEBEB;" d="M353.094,441.945c0.147-0.051,0.28-0.143,0.383-0.27c3.749-4.759,6.677-7.016,13.458-8.868
									c0.495-0.147,0.708-0.582,0.579-1.022c-0.131-0.441-0.601-0.7-1.049-0.578c-7.144,1.961-10.358,4.401-14.334,9.446
									c-0.284,0.361-0.214,0.882,0.157,1.164C352.528,441.997,352.832,442.036,353.094,441.945z"/>
							</g>
							<g>
								<path style="fill:#EBEBEB;" d="M346.115,438.927c0.16-0.055,0.308-0.155,0.421-0.298c4.138-5.248,7.617-7.848,15.089-9.89
									c0.48-0.123,0.78-0.64,0.637-1.128c-0.144-0.485-0.661-0.771-1.158-0.636c-7.859,2.155-11.667,4.964-16.052,10.526
									c-0.313,0.398-0.235,0.973,0.174,1.284C345.489,438.984,345.825,439.028,346.115,438.927z"/>
							</g>
							<g>
								<path style="fill:#EBEBEB;" d="M340.66,435.261c0.157-0.055,0.302-0.153,0.411-0.294c4.052-5.146,7.405-7.669,14.747-9.677
									c0.466-0.128,0.764-0.626,0.623-1.105c-0.139-0.477-0.647-0.756-1.134-0.622c-7.706,2.105-11.395,4.846-15.69,10.3
									c-0.307,0.389-0.231,0.953,0.171,1.259C340.045,435.318,340.375,435.36,340.66,435.261z"/>
							</g>
							<g>
								<path style="fill:#EBEBEB;" d="M335.887,430.528c0.157-0.055,0.302-0.153,0.412-0.294c4.057-5.145,7.401-7.666,14.749-9.676
									c0.477-0.132,0.765-0.627,0.624-1.105c-0.14-0.477-0.648-0.756-1.134-0.622c-7.713,2.111-11.394,4.844-15.693,10.297
									c-0.306,0.39-0.23,0.955,0.171,1.261C335.273,430.585,335.603,430.627,335.887,430.528z"/>
							</g>
						</g>
					</g>
				</g>
				<g id="XMLID_00000032637695114644302030000018254120078216291463_">
					<path style="fill:#BA68C8;" d="M269.365,232.652C269.109,232.639,269.365,232.652,269.365,232.652
						c-26.779,2.771-55.062,6.779-81.766,9.436c-0.685,12.911-2.64,23.64,1.506,36.855c3.795,12.096,14.951,21.969,26.074,28.89
						c13.196,8.212,39.228,18.149,49.63,23.665c14.996,7.952,10.203,11.031,15.206,24.89c3.202,8.871,7.883,16.634,16.985,30.413
						c5.69,8.614,8.122,12.529,13.475,19.936c9.651,3.397,21.732-2.641,27.881-10.532c-7.654-23.79-15.675-48.474-22.837-71.971
						c-4-13.125-7.357-17.702-18.957-27.188c-9.098-7.44-19.721-15.265-31.717-24.051
						C277.457,254.416,269.693,242.663,269.365,232.652z"/>
					<path style="opacity:0.4;fill:#FFFFFF;" d="M269.365,232.652C269.109,232.639,269.365,232.652,269.365,232.652
						c-26.779,2.771-55.062,6.779-81.766,9.436c-0.685,12.911-2.64,23.64,1.506,36.855c3.795,12.096,14.951,21.969,26.074,28.89
						c13.196,8.212,39.228,18.149,49.63,23.665c14.996,7.952,10.203,11.031,15.206,24.89c3.202,8.871,7.883,16.634,16.985,30.413
						c5.69,8.614,8.122,12.529,13.475,19.936c9.651,3.397,21.732-2.641,27.881-10.532c-7.654-23.79-15.675-48.474-22.837-71.971
						c-4-13.125-7.357-17.702-18.957-27.188c-9.098-7.44-19.721-15.265-31.717-24.051
						C277.457,254.416,269.693,242.663,269.365,232.652z"/>
				</g>
				<path style="fill:#BA68C8;" d="M336.267,388.629c-5.878,9.654-19.439,13.198-30.022,12.55c1.702,2.967,3.82,5.673,5.51,8.646
					c11.193,2.08,20.373-2.629,27.22-11.401C338.137,395.142,337.223,391.879,336.267,388.629z"/>
			</g>
		</g>
		<g id="Top_00000035501898354046380040000017629614011754432438_">
			<path style="fill:#E0E0E0;" d="M232.512,136.559c16.295-1.242,23.024-0.092,37.814,23.497
				c10.406,16.598,32.97,46.482,32.97,46.482l-22.889,19.922c-10.362-15.29-21.626-25.88-38.256-48.169L232.512,136.559z"/>
			<g id="Chest_00000034768850280225158720000011753588385560662184_">
				<g>
					<path id="XMLID_00000119823937346057832450000016821203628832516777_" style="fill:#FAFAFA;" d="M259.287,168.916
						c-4.508-24.93-13.865-32.597-26.775-32.357c-0.247,0.006-17.687,2.986-27.763,5.24c-4.767,1.066-22.557,8.909-27.587,11.964
						c-6.436,3.909-9.382,15.923-7.914,33.737c1.043,12.656,3.216,29.001,7.918,51.035c3.065,14.363,3.605,20.902,9.719,39.233
						c18.234,4.334,89.479-19.179,86.936-41.598c-2.285-4.979-5.974-10.636-8.345-20.93
						C262.006,197.101,260.704,176.752,259.287,168.916z"/>
				</g>
				<g id="Head_00000031916456706480624910000015963982084260476863_">
					<path style="fill:#263238;" d="M196.158,132.074c-0.943-7.102-7.698-14.722-10.639-20.992
						c-2.836-6.045-3.981-10.687-3.936-16.28c0.163-20.279,18.574-31.474,36.115-29.485c31.823,3.608,28.817,26.929,28.029,31.178
						c-0.393,2.124-2.994,5.571-4.276,7.345c-1.289,1.784-3.276,1.765-5.382,1.553c-2.123-0.213-4.175,0.571-6.298,0.961
						c-2.464,0.453-4.947,0.799-7.417,1.217c-2.238,0.379-4.474,0.759-6.711,1.138c-0.39,0.066-2.407,0.115-2.658,0.451
						C212.985,109.163,196.158,132.074,196.158,132.074z"/>
					<g id="XMLID_00000022530238180846400000000012954080357179324565_">
						<path style="fill:#C8856A;" d="M187.27,119.351c4.855,3.144,8.333,0.058,8.333,0.058l-0.533,26.551
							c3.509,10.099,18.492,10.616,24.783,8.024c6.291-2.592,5.686-6.656,3.806-10.246l0.566-3.789c0,0,5.076,0.275,8.41-0.069
							c5.561-0.558,9.888-4.895,11.685-10.831c1.878-6.204,2.63-16.173,1.541-23.731c-0.288-2-0.318-4.023-0.06-6.027
							c1.212-9.431-5.071-18.95-13.387-22.958c-2.595-0.137-0.015,2.094,0.186,4.435c0.145,1.694-1.85,2.866-3.53,3.129
							c-2.15,0.337-4.318-0.35-6.367-1.082c-4.754-1.7-9.611-3.735-14.645-3.344c-1.058,0.082-2.382,0.576-2.366,1.638
							c0.005,0.363,0.183,0.698,0.355,1.017c0.868,1.604,1.943,3.156,2.727,4.778c1.228,2.543,2.437,6.666,1.541,9.498
							c-0.511,1.614-1.599,3.164-2.742,4.392c-0.367,0.394-4.251,3.104-4.252,3.099c0.189,2.12,0.258,7.462-3.207,7.236
							c-2.496-0.162-3.217-6.586-5.681-9.44c-2.515-2.914-8.427-3.814-10.893,0.173C180.09,107.441,181.953,115.907,187.27,119.351z
							"/>
						<path style="fill:#AF6152;" d="M224.226,139.949c-8.74-1.354-15.376-2.552-19.718-9.079
							c-2.723-4.094-4.913-10.598-4.913-10.598s0.616,7.807,3.29,13.178c2.061,4.14,7.157,7.915,20.877,9.601L224.226,139.949z"/>
						<path style="fill:#263238;" d="M230.605,117.563c-8.013-0.297-9.347,1.791-16.749,2.79
							c-9.92,1.339-11.177-8.858-10.532-13.399l-7.067-2.464c2.002,4.749,0.489,13.226,2.475,21.432
							c1.986,8.206,7.012,11.001,13.812,13.148c6.8,2.146,19.744,3.179,26.767-0.746c8.215-4.591,6.83-19.786,6.83-19.786
							C240.89,120.681,238.618,117.86,230.605,117.563z"/>
						<path style="fill:#C8856A;" d="M228.969,121.946c-4.487-0.292-7.493,1.007-8.559,4.103c-1.067,3.096-0.672,5.275,0.826,5.532
							c1.498,0.258,5.069,0.046,5.337-1.531c0.267-1.577-2.046-3.214,1.483-2.876s1.079,2.078,1.048,3.332
							c-0.031,1.255,1.65,2.194,5.646,1.635c2.194-0.307,1.729-3.396,1.42-5.363C235.861,124.811,233.558,122.245,228.969,121.946z"
							/>
						<path style="fill:#AF6152;" d="M228.942,124.955c-0.255-0.061-0.542-0.026-0.803-0.028c-0.237-0.002-0.474-0.015-0.71-0.036
							c-0.383-0.035-0.771-0.088-1.142-0.193c-0.404-0.115-0.804-0.271-1.17-0.477c-0.433-0.243-0.777-0.64-1.257-0.787
							c-0.185-0.057-0.524,0.061-0.511,0.3c0.026,0.449,0.381,0.744,0.714,1.005c0.324,0.253,0.682,0.462,1.059,0.624
							c0.724,0.311,1.522,0.466,2.305,0.516c0.426,0.027,0.86,0.04,1.286,0.014c0.24-0.014,0.535-0.052,0.64-0.304
							C229.475,125.298,229.217,125.021,228.942,124.955z"/>
						<path style="fill:#37474F;" d="M211.141,97.603l-17.752,3.13c0,0,1.054,0.517,2.308,2.766l15.587-2.006L211.141,97.603z"/>
						<path style="fill:#455A64;" d="M249.897,95.84c-0.349-0.033-0.712-0.062-1.089-0.086c-3.516-0.233-8.143-0.135-11.02,0.867
							c-3.618,1.267-4.982,2.563-6.934,2.663c-2.086,0.085-3.272-1.097-6.904-2.033c-2.889-0.737-7.872-0.397-11.732,0.174
							c-0.415,0.062-0.817,0.126-1.202,0.192c-0.663,0.114-1.491,1.042-1.585,2.088c-0.093,1.049,0.56,1.855,0.82,2.322
							c0.115,0.207,0.212,0.507,0.262,0.943c0.187,1.643,0.021,4.837,0.583,6.595c0.227,0.708,0.574,1.576,1.226,2.354
							c0.213,0.252,0.437,0.474,0.695,0.683c0.134,0.105,0.269,0.204,0.414,0.302c0.367,0.242,0.784,0.45,1.268,0.618
							c0.072,0.025,0.145,0.049,0.218,0.069c0.111,0.032,0.229,0.067,0.346,0.096c0.118,0.029,0.24,0.054,0.365,0.08
							c0.359,0.071,0.751,0.123,1.173,0.143c0.162,0.014,0.332,0.018,0.507,0.022c0.204-0.001,0.418-0.002,0.64-0.012
							c4.955-0.208,7.296-2.796,8.794-5.406c1.49-2.585,1.55-6.12,3.795-6.215c0.075-0.002,0.146-0.003,0.213,0.003
							c0.068,0.003,0.135,0.012,0.195,0.024c1.618,0.329,1.092,3.589,1.911,5.906c0.316,0.893,0.737,1.777,1.358,2.526
							c0.109,0.135,0.222,0.263,0.345,0.386c0.061,0.065,0.123,0.123,0.188,0.181c0.064,0.06,0.129,0.117,0.197,0.173
							c0.06,0.051,0.119,0.099,0.182,0.146c0.106,0.08,0.152,0.113,0.198,0.145c0.051,0.038,0.104,0.072,0.159,0.105
							c0.035,0.025,0.072,0.049,0.11,0.072c0.534,0.327,1.158,0.585,1.892,0.745c0.057,0.012,0.117,0.025,0.178,0.036
							c0.694,0.138,1.485,0.193,2.387,0.145c4.631-0.236,6.449-3.174,7.34-5.006c0.884-1.824,1.404-5.019,1.894-6.698
							c0.108-0.371,0.287-0.66,0.477-0.88c0.359-0.418,1.067-1.408,1.197-2.453C251.089,96.813,250.497,95.898,249.897,95.84z
							 M225.728,106.189c-0.315,0.981-0.918,2.406-2.094,3.615l-0.003,0.001c-1.191,1.217-2.968,2.207-5.615,2.285
							c-2.677,0.082-4.092-1.027-4.853-2.362c-0.048-0.083-0.093-0.166-0.132-0.247c-0.044-0.083-0.083-0.164-0.118-0.246
							c-0.036-0.076-0.068-0.153-0.097-0.232c-0.027-0.068-0.054-0.139-0.077-0.208c-0.022-0.056-0.041-0.111-0.057-0.166
							c-0.02-0.051-0.036-0.101-0.049-0.149c-0.025-0.083-0.05-0.168-0.072-0.25l0-0.003c-0.068-0.251-0.121-0.494-0.162-0.73
							c-0.003-0.005-0.002-0.01-0.004-0.018c-0.026-0.15-0.049-0.297-0.07-0.438c-0.035-0.255-0.058-0.495-0.076-0.706
							c-0.003-0.046-0.007-0.092-0.011-0.135c-0.004-0.043-0.008-0.086-0.012-0.129c-0.15-1.741-0.15-5.15,0.785-5.957
							c0.9-0.775,3.237-1.699,6.8-1.498c0.121,0,0.249,0.01,0.38,0.021c0.545,0.042,1.085,0.114,1.614,0.218
							c0.21,0.04,0.417,0.086,0.62,0.133c0.548,0.13,1.073,0.289,1.545,0.469c0.164,0.061,0.32,0.125,0.468,0.19
							c0.178,0.075,0.346,0.156,0.503,0.239c0.034,0.017,0.067,0.034,0.1,0.054c0.064,0.032,0.125,0.066,0.182,0.104
							c0.468,0.271,0.813,0.567,0.983,0.86C226.816,101.936,226.354,104.213,225.728,106.189z M247.04,104.465
							c-0.388,1.386-1.228,4.398-3.902,5.83c-0.764,0.41-1.686,0.69-2.783,0.757c-2.915,0.192-4.443-1.008-5.24-2.419
							c-0.005-0.009-0.01-0.018-0.012-0.026c-0.032-0.055-0.06-0.107-0.086-0.159c-0.033-0.062-0.064-0.125-0.092-0.184
							c-0.016-0.03-0.031-0.063-0.046-0.096c-0.04-0.09-0.079-0.184-0.113-0.274c-0.042-0.107-0.08-0.212-0.115-0.321
							c-0.019-0.051-0.036-0.104-0.051-0.156c-0.01-0.03-0.016-0.059-0.025-0.088c-0.014-0.045-0.025-0.089-0.036-0.132
							c-0.009-0.035-0.02-0.07-0.026-0.102c-0.121-0.47-0.187-0.917-0.225-1.301c-0.185-1.937-0.163-4.19,0.622-5.288
							c0.782-1.095,3.55-2.378,6.136-2.824c0.596-0.103,1.151-0.169,1.665-0.203c0.066-0.004,0.132-0.008,0.196-0.011
							c0.072-0.004,0.142-0.007,0.211-0.009c0.196-0.008,0.388-0.009,0.571-0.01c0.069,0.001,0.138,0.001,0.207,0.004
							c0.093,0.004,0.183,0.006,0.269,0.012c0.153,0.005,0.302,0.017,0.445,0.032c0.292,0.027,0.565,0.065,0.817,0.116
							c0.065,0.013,0.13,0.027,0.192,0.041c0.015,0.002,0.033,0.005,0.05,0.011c0.041,0.009,0.085,0.018,0.129,0.032
							c0.065,0.013,0.132,0.034,0.194,0.051c0.079,0.02,0.159,0.047,0.232,0.07c0.138,0.045,0.262,0.092,0.379,0.145
							c0.024,0.009,0.044,0.017,0.067,0.029c0.377,0.165,0.657,0.354,0.843,0.543C248.23,99.259,247.53,102.697,247.04,104.465z"/>
						<path style="fill:#AF6152;" d="M239.287,114.476l-8.807,2.515l-1.909-13.005c0.442-0.959,0.995-1.623,1.972-1.678
							c0.074-0.019,0.148-0.019,0.203,0c0.074,0,0.129,0,0.203,0.018c0.111,0.018,0.203,0.055,0.277,0.092
							c0.019,0.018,0.037,0.018,0.056,0.037c0.129,0.129,0.276,0.258,0.406,0.406c0.867,0.885,1.771,2.083,2.675,3.466
							c0.83,1.253,1.697,2.655,2.545,4.093c0.48,0.811,0.941,1.622,1.42,2.433C238.641,113.407,238.973,113.942,239.287,114.476z"/>
					</g>
					<g id="XMLID_00000065043063235162915660000004657399927409684899_">
						<path id="XMLID_00000183222783195964273480000008977217028724758402_" style="fill:#263238;" d="M222.301,105.189
							c-0.035,1.418-1.171,2.537-2.535,2.499c-1.365-0.038-2.442-1.218-2.407-2.636c0.036-1.418,1.171-2.537,2.536-2.499
							C221.259,102.591,222.337,103.771,222.301,105.189z"/>
						<path id="XMLID_00000160182790867558724550000012132347505949149837_" style="fill:#263238;" d="M221.687,94.957l-5.826,1.593
							c-0.402-1.66,0.579-3.363,2.187-3.802C219.658,92.308,221.287,93.297,221.687,94.957z"/>
						<path id="XMLID_00000005258477293966314990000002377001027312371353_" style="fill:#263238;" d="M243.977,95.217l-5.982-1.124
							c0.25-1.676,1.792-2.784,3.444-2.474C243.092,91.929,244.228,93.54,243.977,95.217z"/>
						<path id="XMLID_00000088847469579933245290000007286961159018541758_" style="fill:#263238;" d="M241.518,104.709
							c-0.159,1.409-1.387,2.425-2.743,2.268c-1.356-0.157-2.327-1.426-2.168-2.835c0.159-1.409,1.387-2.425,2.743-2.269
							C240.706,102.03,241.676,103.299,241.518,104.709z"/>
					</g>
				</g>
				<path style="fill:#EBEBEB;" d="M216.013,157.095c-12.318,1.37-22.952-5.539-24.242-8.183c-1.299-2.643,1.548-7.613,1.505-9.833
					c-0.033-2.23,0.519-4.062,2.323-3.439l-0.142,2.907c0,0,2.008,4.198,13.385,5.805c11.378,1.607,14.993-1.8,14.993-1.8
					l0.251-1.648c0.928,0.038,1.91,0.014,2.852,0.039c-0.119,1.105-0.245,3.084,0.258,4.786
					C227.919,148.165,228.33,155.715,216.013,157.095z"/>
			</g>
			<g>
				<g>
					<g>
						<g>
							<path style="fill:#BA68C8;" d="M306.394,186.928c0,0-0.521-2.615,2.631-5.63c3.152-3.016,7.423-5.662,8.08-12.239
								l5.148,2.149l-6.325,14.602L306.394,186.928z"/>
							<path style="opacity:0.75;fill:#FFFFFF;" d="M306.394,186.928c0,0-0.521-2.615,2.631-5.63
								c3.152-3.016,7.423-5.662,8.08-12.239l5.148,2.149l-6.325,14.602L306.394,186.928z"/>
						</g>
						<g>
							<path style="fill:#BA68C8;" d="M306.394,186.928c0,0-5.578-1.946-16.738,1.894c-11.159,3.84-20.141,8.114-42.231,10.467
								l6.14,2.565l56.772-10.686L306.394,186.928z"/>
							<path style="opacity:0.75;fill:#FFFFFF;" d="M306.394,186.928c0,0-5.578-1.946-16.738,1.894
								c-11.159,3.84-20.141,8.114-42.231,10.467l6.14,2.565l56.772-10.686L306.394,186.928z"/>
							<polygon style="fill:#BA68C8;" points="247.426,199.289 235.446,267.736 241.586,270.3 253.565,201.854 							"/>
							<polygon style="opacity:0.8;fill:#FFFFFF;" points="247.426,199.289 235.446,267.736 241.586,270.3 253.565,201.854 							
								"/>
							<polygon style="opacity:0.1;" points="247.426,199.289 235.446,267.736 241.586,270.3 253.565,201.854 							"/>
						</g>
						<g style="opacity:0.1;">
							<path d="M317.554,172.594c-0.352,1.439-1.003,2.807-1.88,4.011c-0.869,1.211-1.888,2.299-2.899,3.382
								c-1.012,1.088-2.08,2.111-2.842,3.34c-0.387,0.609-0.696,1.261-0.904,1.936c-0.196,0.658-0.289,1.418-0.161,1.997
								l-0.683,0.191c-0.154-0.882,0.017-1.631,0.254-2.378c0.257-0.732,0.617-1.414,1.049-2.038
								c0.858-1.263,1.992-2.261,3.034-3.297c1.051-1.039,2.104-2.078,3.01-3.24C316.445,175.345,317.144,174.019,317.554,172.594z"
								/>
							<path d="M317.113,176.423c-0.344,0.902-0.907,1.703-1.468,2.482c-0.568,0.778-1.16,1.536-1.709,2.319
								c-0.548,0.782-1.059,1.588-1.439,2.442c-0.38,0.851-0.616,1.761-0.578,2.656l-0.71,0.005
								c0.021-1.036,0.352-2.019,0.807-2.892c0.458-0.878,1.033-1.668,1.636-2.424c0.603-0.756,1.24-1.476,1.852-2.215
								C316.111,178.056,316.715,177.302,317.113,176.423z"/>
							<path d="M269.515,196.936c3.098-0.682,6.152-1.551,9.152-2.572c3.004-1.013,5.956-2.169,8.929-3.281
								c2.963-1.162,6.079-1.94,9.228-2.43c1.577-0.24,3.169-0.407,4.777-0.421c0.804-0.016,1.613,0.036,2.422,0.143
								c0.804,0.148,1.633,0.309,2.385,0.824l-0.422,0.57c-0.562-0.406-1.325-0.592-2.068-0.738
								c-0.76-0.114-1.537-0.181-2.319-0.179c-1.564-0.015-3.138,0.119-4.699,0.327c-3.125,0.428-6.216,1.137-9.183,2.237
								c-2.988,1.054-5.968,2.157-8.994,3.116C275.699,195.5,272.625,196.313,269.515,196.936z"/>
							<path d="M284.603,194.707c1.743-0.467,3.447-1.062,5.162-1.621c1.714-0.564,3.436-1.112,5.185-1.579
								c1.748-0.467,3.525-0.859,5.34-1.05c1.81-0.186,3.679-0.194,5.493,0.298l-0.203,0.68c-1.665-0.513-3.469-0.575-5.243-0.449
								c-1.78,0.128-3.551,0.457-5.302,0.864c-1.752,0.407-3.487,0.897-5.218,1.404
								C288.086,193.758,286.361,194.297,284.603,194.707z"/>
						</g>
					</g>
					<g>
						<polygon style="fill:#BA68C8;" points="321.843,167.912 314.482,185.206 301.626,258.597 304.696,259.879 311.576,238.963 
							324.898,169.191 						"/>
						<polygon style="opacity:0.2;" points="317.552,186.488 324.898,169.191 311.576,238.963 304.696,259.879 						"/>
					</g>
					<g>
						<polygon style="fill:#BA68C8;" points="305.778,191.844 249.831,202.723 236.976,276.113 240.046,277.396 295.993,266.518 
							308.848,193.126 						"/>
						<polygon style="opacity:0.2;" points="252.902,204.005 240.046,277.396 295.993,266.518 308.849,193.127 						"/>
						<polygon style="opacity:0.35;" points="249.831,202.723 252.902,204.005 240.046,277.396 236.976,276.113 						"/>
					</g>
					<g>
						<path style="fill:#BA68C8;" d="M308.849,193.127l8.703-6.638l-12.856,73.391c-0.969,3.997-3.975,6.112-8.703,6.638
							L308.849,193.127z"/>
						<path style="opacity:0.35;" d="M308.849,193.127l8.703-6.638l-12.856,73.391c-1.122,4.239-4.242,6.202-8.703,6.638
							L308.849,193.127z"/>
						<path style="fill:#455A64;" d="M314.14,185.061c-1.88-0.796-5.342,0.034-7.746,1.867c-2.403,1.833-2.828,3.964-0.948,4.759
							l3.403,1.44l8.703-6.638c0,0-1.345-0.554-3.07-1.282C314.373,185.16,314.251,185.108,314.14,185.061z"/>
						<path style="fill:#BA68C8;" d="M314.482,185.206c-0.207,2.777-3.45,4.918-8.704,6.638l3.071,1.282
							c4.556-1.129,7.379-3.394,8.703-6.638L314.482,185.206z"/>
					</g>
				</g>
				<path style="fill:#C8856A;" d="M176.979,155.828c-11.552,6.778-17.634,10.949-18.508,26.874
					c-0.983,17.91-1.285,31.887,0.595,61.273c0.445,6.958-0.875,15.643,14.951,17.922c20.308,2.924,49.598,2.901,56.916,2.858
					c4.68-0.028,14.999-0.039,18.565-0.794c11.19-2.37,16.614-9.651,19.846-13.485c1.787-2.12,3.487-4.668,3.202-7.426
					c-0.091-0.885-0.388-1.77-0.236-2.646c0.152-0.873,0.727-1.607,1.064-2.427c0.373-0.909,0.446-1.938,0.205-2.89
					c-0.217-0.858-0.682-1.66-0.74-2.544c-0.118-1.781,1.393-3.216,1.975-4.904c0.087-0.252,0.154-0.523,0.098-0.784
					c-0.124-0.578-0.778-0.87-1.364-0.952c-2.379-0.332-5.572,0.972-7.501,2.404c-6.752,5.012-10.354,10.794-20.361,11.981
					c-2.394,0.284-5.372-0.425-4.956-2.8l0.819-4.684c-5.628,1.682-8.212,7.603-12.847,9c-4.107,1.238-39.1-7.063-39.1-7.063
					l-0.217-35.142C189.384,199.598,191.751,165.626,176.979,155.828z"/>
				<path style="fill:#E0E0E0;" d="M177.163,153.763c-9.181,4.924-17.9,9.818-19.091,24.289c-1.191,14.472-1.229,37.885-0.35,57.67
					c0.879,19.785,1.321,21.489,7.333,24.529c10.753,5.438,43.38,4.222,43.38,4.222s-3.255-3.411-2.327-12.538
					c0.927-9.128,4.207-12.646,4.207-12.646l-19.549-4.92c0,0,0.453-32.673,0.101-42.573
					C190.515,181.895,187.576,161.775,177.163,153.763z"/>
				<path style="fill:#C8856A;" d="M317.151,209.775c-0.458,2.4-2.146,5.578-3.079,7.622c-0.895,1.962-0.544,4.123,0.755,4.549
					l-2.321,12.166c0,0,1.681,0.032,4.772-4.301c3.091-4.333,4.782-12.059,5.075-16.182c0.292-4.124,0.118-11.434-3.483-12.859
					L317.151,209.775z"/>
			</g>
		</g>
	</g>
</g>
<g id="Speech_Bubble">
	<g id="Speech_Bubble_1_">
		<g id="Speech_Bubble_6_">
			<path style="fill:#FFFFFF;" d="M312.213,95.742c-6.519,3.944-13.989,4.987-20.917,3.527l-3.19-0.868
				c-6.275-2.093-11.875-6.33-15.562-12.424c-8.245-13.626-3.867-31.421,9.76-39.666c6.094-3.687,13.02-4.842,19.55-3.784
				l3.229,0.712c6.815,1.921,12.948,6.311,16.892,12.83C330.223,69.699,325.845,87.494,312.213,95.742z"/>
			<path style="fill:#E0E0E0;" d="M324.069,54.8c-8.945-14.784-28.252-19.534-43.036-10.589
				c-13.264,8.026-18.439,24.388-12.905,38.344l-5.945,7.708c-1.015,1.317,0.12,3.193,1.757,2.905l9.587-1.69
				c9.795,11.377,26.689,14.383,39.952,6.358C328.264,88.891,333.014,69.584,324.069,54.8z M312.213,95.742
				c-6.519,3.944-13.989,4.987-20.917,3.527l-3.19-0.868c-6.275-2.093-11.875-6.33-15.562-12.424
				c-8.245-13.626-3.867-31.421,9.76-39.666c6.094-3.687,13.02-4.842,19.55-3.784l3.229,0.712
				c6.815,1.921,12.948,6.311,16.892,12.83C330.223,69.699,325.845,87.494,312.213,95.742z"/>
		</g>
		<g>
			<path id="Heart_1_" style="fill:#BA68C8;" d="M297.237,87.809c-20.372-10.882-22.004-22.534-16.071-28.224
				c5.315-5.098,15.024-1.722,16.096,5.573c1.088-7.292,10.803-10.648,16.108-5.538C319.289,65.322,317.633,76.971,297.237,87.809z"
				/>
		</g>
	</g>
</g>
<g id="Books">
	<g id="Books_00000100367949699200896340000016392208005275100040_">
		<g id="Book_00000014594044605653831120000018171615363713971635_">
			<g id="XMLID_5500_">
				<polygon style="fill:#BA68C8;" points="147.187,433.964 103.269,458.764 35.825,420.063 79.739,395.26 				"/>
				<polygon style="opacity:0.6;" points="147.187,433.964 103.269,458.764 35.825,420.063 79.739,395.26 				"/>
			</g>
			<path style="fill:#F5F5F5;" d="M102.792,456.95l42.438-24.109c-1.054-2.992-0.975-3.9,0.218-7.883l-42.18,23.864
				C103.268,448.823,102.502,448.767,102.792,456.95z"/>
			<g id="XMLID_5497_">
				<path style="fill:#BA68C8;" d="M105.327,445.554c-2.141,1.229-3.877,4.217-3.877,6.676v5.215c0,2.458,1.736,3.455,3.878,2.226
					l41.854-23.775l0.005-1.932l-41.324,23.327c-1.285,0.737-2.325,0.14-2.324-1.335l0.036-4.644
					c0.001-1.475,1.044-3.268,2.329-4.006l41.277-23.337v-2.19L105.327,445.554z"/>
				<path style="opacity:0.5;" d="M105.327,445.554c-2.141,1.229-3.877,4.217-3.877,6.676v5.215c0,2.458,1.736,3.455,3.878,2.226
					l41.854-23.775l0.005-1.932l-41.324,23.327c-1.285,0.737-2.325,0.14-2.324-1.335l0.036-4.644
					c0.001-1.475,1.044-3.268,2.329-4.006l41.277-23.337v-2.19L105.327,445.554z"/>
			</g>
			<g id="XMLID_5495_">
				<path style="fill:#BA68C8;" d="M147.182,421.784l-67.444-38.702l-41.851,23.772c-2.14,1.228-3.877,4.219-3.877,6.676
					l-0.001,5.217c0.002,1.224,0.432,2.087,1.137,2.492l67.444,38.702c-0.705-0.405-1.135-1.268-1.137-2.492l-0.006-5.222
					c0-2.456,1.737-5.447,3.877-6.675L147.182,421.784z"/>
				<path style="opacity:0.35;" d="M147.182,421.784l-67.444-38.702l-41.851,23.772c-2.14,1.228-3.877,4.219-3.877,6.676
					l-0.001,5.217c0.002,1.224,0.432,2.087,1.137,2.492l67.444,38.702c-0.705-0.405-1.135-1.268-1.137-2.492l-0.006-5.222
					c0-2.456,1.737-5.447,3.877-6.675L147.182,421.784z"/>
			</g>
			<g id="XMLID_5492_">
				<path style="fill:#BA68C8;" d="M102.582,448.429c-0.701,1.208-1.135,2.57-1.135,3.798l0.006,5.222
					c0.002,1.224,0.432,2.087,1.137,2.492l-67.444-38.702c-0.706-0.405-1.135-1.268-1.137-2.492l0.001-5.217
					c0-1.228,0.435-2.59,1.136-3.798L102.582,448.429z"/>
				<path style="opacity:0.25;" d="M102.582,448.429c-0.701,1.208-1.135,2.57-1.135,3.798l0.006,5.222
					c0.002,1.224,0.432,2.087,1.137,2.492l-67.444-38.702c-0.706-0.405-1.135-1.268-1.137-2.492l0.001-5.217
					c0-1.228,0.435-2.59,1.136-3.798L102.582,448.429z"/>
			</g>
			<g>
				<path style="fill:#BA68C8;" d="M44.255,414.904c-1.256,5.459-1.239,7.591,0,11.594l3.211,1.854
					c-1.238-4.003-1.256-6.136,0-11.594L44.255,414.904z"/>
				<path style="fill:#BA68C8;" d="M88.491,440.323c-1.257,5.458-1.239,7.522,0,11.525l3.211,1.853
					c-1.238-4.003-1.256-6.067,0-11.525L88.491,440.323z"/>
			</g>
		</g>
		<g id="Book_4_">
			<g id="XMLID_00000124867549144844139670000004437941847824816801_">
				<polygon style="fill:#BA68C8;" points="156.046,421.132 112.128,445.932 44.684,407.23 88.598,382.428 				"/>
				<polygon style="opacity:0.4;" points="156.046,421.132 112.128,445.932 44.684,407.23 88.598,382.428 				"/>
			</g>
			<g id="XMLID_00000041297205536092936360000009995062843912159622_">
				<path style="fill:#F5F5F5;" d="M111.651,444.118l42.438-24.109c-1.054-2.992-0.975-4.331,0.218-8.313l-42.18,23.864
					C112.127,435.561,111.36,435.935,111.651,444.118z"/>
			</g>
			<g id="XMLID_00000060004242567257126450000001923764273910166718_">
				<path style="fill:#BA68C8;" d="M114.186,432.291c-2.141,1.229-3.877,4.218-3.877,6.676v5.646c0,2.458,1.736,3.454,3.878,2.226
					l41.854-23.775l0.005-1.932l-41.324,23.327c-1.285,0.737-2.325,0.139-2.324-1.335l0.037-5.075
					c0.001-1.475,1.044-3.268,2.329-4.006l41.277-23.337v-2.19L114.186,432.291z"/>
				<path style="opacity:0.25;" d="M114.186,432.291c-2.141,1.229-3.877,4.218-3.877,6.676v5.646c0,2.458,1.736,3.454,3.878,2.226
					l41.854-23.775l0.005-1.932l-41.324,23.327c-1.285,0.737-2.325,0.139-2.324-1.335l0.037-5.075
					c0.001-1.475,1.044-3.268,2.329-4.006l41.277-23.337v-2.19L114.186,432.291z"/>
			</g>
			<path style="fill:#BA68C8;" d="M156.041,408.521l-67.444-38.702l-41.851,23.772c-2.14,1.228-3.877,4.219-3.878,6.676
				l-0.001,5.647c0.002,1.224,0.432,2.087,1.137,2.492l67.444,38.702c-0.705-0.405-1.135-1.268-1.137-2.492l-0.006-5.652
				c0-2.456,1.737-5.447,3.877-6.675L156.041,408.521z"/>
			<g id="XMLID_5480_">
				<path style="fill:#BA68C8;" d="M111.441,435.167c-0.701,1.208-1.135,2.57-1.135,3.798l0.006,5.652
					c0.002,1.224,0.432,2.087,1.137,2.492l-67.444-38.702c-0.705-0.405-1.135-1.268-1.137-2.492l0.001-5.647
					c0-1.229,0.435-2.59,1.136-3.798L111.441,435.167z"/>
				<path style="opacity:0.15;" d="M111.441,435.167c-0.701,1.208-1.135,2.57-1.135,3.798l0.006,5.652
					c0.002,1.224,0.432,2.087,1.137,2.492l-67.444-38.702c-0.705-0.405-1.135-1.268-1.137-2.492l0.001-5.647
					c0-1.229,0.435-2.59,1.136-3.798L111.441,435.167z"/>
			</g>
			<g>
				<path style="fill:#BA68C8;" d="M53.114,401.641c-1.257,5.459-1.238,8.022,0,12.025l3.21,1.854
					c-1.238-4.003-1.256-6.566,0-12.025L53.114,401.641z"/>
				<path style="fill:#BA68C8;" d="M97.35,427.092c-1.256,5.458-1.239,7.931,0,11.934l3.211,1.854c-1.238-4.004-1.256-6.492,0-11.95
					L97.35,427.092z"/>
			</g>
			<g style="opacity:0.4;">
				<path style="fill:#FFFFFF;" d="M53.114,401.641c-1.257,5.459-1.238,8.022,0,12.025l3.21,1.854
					c-1.238-4.003-1.256-6.566,0-12.025L53.114,401.641z"/>
				<path style="fill:#FFFFFF;" d="M97.35,427.092c-1.256,5.458-1.239,7.931,0,11.934l3.211,1.854c-1.238-4.004-1.256-6.492,0-11.95
					L97.35,427.092z"/>
			</g>
		</g>
		<g id="Book_00000025430882668987530080000007091651870341753237_">
			<path id="XMLID_1135_" style="fill:#BA68C8;" d="M150.564,406.876l-1.844-0.984l1.679-0.402
				C150.741,405.879,150.762,406.35,150.564,406.876z"/>
			<path id="XMLID_1134_" style="opacity:0.5;" d="M150.564,406.876l-1.844-0.984l1.679-0.402
				C150.741,405.879,150.762,406.35,150.564,406.876z"/>
			<g id="XMLID_00000049181784994886351800000016874114157323700866_">
				<path id="XMLID_1133_" style="fill:#BA68C8;" d="M101.738,431.465c1.035,0.598,2.713,0.598,3.748,0l42.078-24.295L84.575,371.39
					l-1.471-0.851l-42.077,23.705c-1.032,0.599-1.032,1.572,0,2.164L101.738,431.465z"/>
				<path id="XMLID_1132_" style="fill:#BA68C8;" d="M117.538,386.161l14.674,8.446l9.499-5.484l11.05,6.384c0,0,0,6.408,0,7.374
					c0,0.965-1.082,2.341-1.476,2.114c0,0-0.865,0.177-2.113,0.75c-1.247,0.574-3.05,2.256-3.05,2.256l-33.717-18.876
					L117.538,386.161z"/>
				<path id="XMLID_1131_" style="opacity:0.15;" d="M117.538,386.161l14.674,8.446l9.499-5.484l11.05,6.384c0,0,0,6.408,0,7.374
					c0,0.965-1.082,2.341-1.476,2.114c0,0-0.865,0.177-2.113,0.75c-1.247,0.574-3.05,2.256-3.05,2.256l-33.717-18.876
					L117.538,386.161z"/>
				<path style="fill:#37474F;" d="M146.697,396.394v8.004c0.045-0.032,0.089-0.057,0.129-0.081
					c0.448-0.258,1.119-0.561,1.797-0.561c0.464,0,0.868,0.036,1.183,0.279v-9.437L146.697,396.394z"/>
				<path style="fill:#E0E0E0;" d="M144.634,407.148c0.016-0.477,0.218-0.945,0.529-1.365c0.15-0.21,0.327-0.408,0.517-0.594
					c0.057-0.056,0.117-0.113,0.178-0.17c0.077-0.065,0.153-0.129,0.23-0.194c0.064-0.049,0.129-0.097,0.194-0.146
					c0.137-0.101,0.279-0.194,0.416-0.278v-7.971l-2.055,1.191v-0.041L144.634,407.148z"/>
				<path style="opacity:0.4;" d="M152.761,402.88c0,0.965-1.082,2.341-1.476,2.114h0l-1.476-0.959v-6.085l1.479-2.544l0.806-0.286
					l0.668,0.386C152.761,395.507,152.761,401.915,152.761,402.88z"/>
			</g>
			<path id="XMLID_1130_" style="fill:#EBEBEB;" d="M103.612,421.27v9.133c0.455,0,0.909-0.094,1.248-0.296l4.617-2.662
				l35.159-20.299l0.007-9.566L103.612,421.27z"/>
			<path id="XMLID_1129_" style="fill:#F5F5F5;" d="M42.08,386.961v6.897c0,0.794,0.563,1.767,1.248,2.164l54.427,31.423l4.61,2.662
				c0.339,0.202,0.793,0.296,1.248,0.296v-8.102L42.08,386.961z"/>
			<g id="XMLID_00000104682319403789593820000006675706870961060493_">
				<path id="XMLID_00000074438916092788315990000000696681523322155194_" style="fill:#BA68C8;" d="M84.575,359.521l62.989,36.371
					c0,0,0,0.375,0,0.844c0,0.469,0.657,0.642,1.465,0.173c0.815-0.469,1.472-1.053,1.472-1.861l0.079-0.801L86.4,357.198
					l-0.26-0.151c-0.065,0.123-0.108,0.26-0.108,0.39v0.39C86.032,358.295,85.383,359.045,84.575,359.521z"/>
				<path id="XMLID_1128_" style="opacity:0.1;" d="M84.575,359.521l62.989,36.371c0,0,0,0.375,0,0.844
					c0,0.469,0.657,0.642,1.465,0.173c0.815-0.469,1.472-1.053,1.472-1.861l0.079-0.801L86.4,357.198l-0.26-0.151
					c-0.065,0.123-0.108,0.26-0.108,0.39v0.39C86.032,358.295,85.383,359.045,84.575,359.521z"/>
				<path id="XMLID_00000052097110376611713180000004887040538003527073_" style="fill:#BA68C8;" d="M105.486,420.188l41.146-23.757
					c0.523-0.274,1-0.494,1.202-0.388l-0.269-0.15l-62.989-36.371c0,0-0.37-0.212-0.736-0.424c-0.406-0.235-1.295-0.104-1.985,0.294
					l-40.827,23.574c-1.032,0.599-1.032,1.573,0,2.164l60.711,35.058C102.773,420.785,104.451,420.785,105.486,420.188z"/>
				<path id="XMLID_1127_" style="fill:#BA68C8;" d="M86.141,357.047l0.26,0.151l64.18,37.049c0,0,0.043-0.101,0.137-0.173
					c0.057-0.036,0.13-0.072,0.216-0.122l0.462-0.267c0.173-0.101,0.368-0.216,0.57-0.332c0.267-0.151,0.512-0.123,0.728,0.065
					c0.029,0.014,0.051,0.036,0.072,0.065c0.072,0.072,0.137,0.166,0.195,0.267c0.065,0.108,0.123,0.231,0.166,0.361
					c0.05,0.13,0.094,0.274,0.13,0.418c0.036,0.159,0.065,0.317,0.094,0.491c0.021,0.094,0.029,0.195,0.036,0.296
					c0.007,0.079,0.014,0.152,0.022,0.238c0.015,0.18,0.021,0.368,0.021,0.563v-1.803c0-0.996-0.844-2.287-1.875-2.886
					l-60.717-35.058c-1.039-0.598-2.532-0.7-3.34-0.238l-0.765,0.447l-0.029,0.014c-0.05,0.036-0.181,0.108-0.325,0.188
					c0,0-0.007,0-0.007,0.007C86.285,356.838,86.199,356.931,86.141,357.047z"/>
				<path id="XMLID_1126_" style="fill:#BA68C8;" d="M105.487,431.463l2.54-1.472l38.095-21.994c0.014-0.476,0.209-0.945,0.52-1.363
					c0.433-0.606,1.082-1.126,1.666-1.464c0.447-0.26,1.118-0.563,1.796-0.563c0.462,0,0.866,0.144,1.183,0.389
					c0.245-0.332,0.7-1.609,0.7-3.152h1.443c0,1.991-0.656,3.989-1.464,4.451l-0.729,0.426c-0.411,0.238-0.736,0.253-0.736,0.029
					v-0.389c0-0.433-0.657-0.411-1.472,0.058c-0.808,0.469-1.465,1.198-1.465,1.63v0.39c0,0.224-0.562,0.721-1.248,1.118
					l-36.84,21.273l-3.989,2.301c0,0-0.007,0-0.007,0.007c-0.519,0.289-1.19,0.44-1.868,0.44v-1.667
					C104.29,431.91,104.968,431.766,105.487,431.463z"/>
				<path id="XMLID_1125_" style="opacity:0.3;" d="M105.487,431.463l2.54-1.472l38.095-21.994c0.014-0.476,0.209-0.945,0.52-1.363
					c0.433-0.606,1.082-1.126,1.666-1.464c0.447-0.26,1.118-0.563,1.796-0.563c0.462,0,0.866,0.144,1.183,0.389
					c0.245-0.332,0.7-1.609,0.7-3.152h1.443c0,1.991-0.656,3.989-1.464,4.451l-0.729,0.426c-0.411,0.238-0.736,0.253-0.736,0.029
					v-0.389c0-0.433-0.657-0.411-1.472,0.058c-0.808,0.469-1.465,1.198-1.465,1.63v0.39c0,0.224-0.562,0.721-1.248,1.118
					l-36.84,21.273l-3.989,2.301c0,0-0.007,0-0.007,0.007c-0.519,0.289-1.19,0.44-1.868,0.44v-1.667
					C104.29,431.91,104.968,431.766,105.487,431.463z"/>
				<path id="XMLID_1124_" style="fill:#BA68C8;" d="M105.473,420.195c0,0,0.007-0.007,0.015-0.007l2.54-1.472l29.266-16.887
					l9.342-5.396c0.664-0.39,1.205-0.527,1.241-0.325c0.007,0.007,0.007,0.015,0.007,0.022v0.425c0,0.469,0.657,0.469,1.465,0
					c0.793-0.454,1.139-1.017,1.154-1.471v-0.462c0-0.238,0.093-0.483,0.216-0.548c0.057-0.036,0.137-0.079,0.216-0.122
					c0.13-0.072,0.289-0.166,0.462-0.267c0.173-0.101,0.368-0.216,0.57-0.332c0.267-0.151,0.512-0.123,0.728,0.065
					c0.029,0.014,0.051,0.036,0.072,0.065c0.05,0.05,0.094,0.108,0.13,0.173c0.029,0.029,0.043,0.058,0.065,0.094
					c0.065,0.108,0.123,0.231,0.166,0.361c0.05,0.13,0.094,0.274,0.13,0.418c0.036,0.159,0.065,0.317,0.094,0.491
					c0.021,0.094,0.029,0.195,0.036,0.296c0.007,0.079,0.014,0.152,0.022,0.238c0.015,0.18,0.021,0.368,0.021,0.563v5.728h-1.443
					v-5.728c0-0.151-0.007-0.303-0.014-0.447l-0.036-0.361c0-0.015,0-0.022-0.007-0.036c-0.13,1.147-1.226,2.171-2.178,2.712
					c-0.426,0.252-1.082,0.548-1.761,0.548c-0.505,0-0.959-0.18-1.291-0.476l-0.13,0.072c-0.086,0.051-0.165,0.101-0.252,0.151
					l-36.84,21.273l-3.989,2.301c0,0-0.007,0-0.007,0.007c-0.007,0.007-0.015,0.007-0.029,0.014
					c-0.512,0.281-1.175,0.425-1.839,0.425v-1.665C104.357,420.636,104.95,420.471,105.473,420.195z"/>
				<path id="XMLID_1123_" style="opacity:0.3;" d="M105.473,420.195c0,0,0.007-0.007,0.015-0.007l2.54-1.472l29.266-16.887
					l9.342-5.396c0.664-0.39,1.205-0.527,1.241-0.325c0.007,0.007,0.007,0.015,0.007,0.022v0.425c0,0.469,0.657,0.469,1.465,0
					c0.793-0.454,1.139-1.017,1.154-1.471v-0.462c0-0.238,0.093-0.483,0.216-0.548c0.057-0.036,0.137-0.079,0.216-0.122
					c0.13-0.072,0.289-0.166,0.462-0.267c0.173-0.101,0.368-0.216,0.57-0.332c0.267-0.151,0.512-0.123,0.728,0.065
					c0.029,0.014,0.051,0.036,0.072,0.065c0.05,0.05,0.094,0.108,0.13,0.173c0.029,0.029,0.043,0.058,0.065,0.094
					c0.065,0.108,0.123,0.231,0.166,0.361c0.05,0.13,0.094,0.274,0.13,0.418c0.036,0.159,0.065,0.317,0.094,0.491
					c0.021,0.094,0.029,0.195,0.036,0.296c0.007,0.079,0.014,0.152,0.022,0.238c0.015,0.18,0.021,0.368,0.021,0.563v5.728h-1.443
					v-5.728c0-0.151-0.007-0.303-0.014-0.447l-0.036-0.361c0-0.015,0-0.022-0.007-0.036c-0.13,1.147-1.226,2.171-2.178,2.712
					c-0.426,0.252-1.082,0.548-1.761,0.548c-0.505,0-0.959-0.18-1.291-0.476l-0.13,0.072c-0.086,0.051-0.165,0.101-0.252,0.151
					l-36.84,21.273l-3.989,2.301c0,0-0.007,0-0.007,0.007c-0.007,0.007-0.015,0.007-0.029,0.014
					c-0.512,0.281-1.175,0.425-1.839,0.425v-1.665C104.357,420.636,104.95,420.471,105.473,420.195z"/>
				<path id="XMLID_1122_" style="fill:#BA68C8;" d="M40.255,384.027v1.695c0,0.389,0.245,0.772,0.743,1.068l0.029,0.014
					l56.728,32.75l3.982,2.301v0.007c0,0,0.007-0.007,0.007,0c0.52,0.289,1.19,0.44,1.868,0.44v-1.666
					c-0.678,0-1.356-0.144-1.875-0.447l-2.532-1.464h-0.007L41.027,385.13C40.476,384.81,40.257,384.436,40.255,384.027z"/>
				<path id="XMLID_1121_" style="opacity:0.2;" d="M40.255,384.027v1.695c0,0.389,0.245,0.772,0.743,1.068l0.029,0.014
					l56.728,32.75l3.982,2.301v0.007c0,0,0.007-0.007,0.007,0c0.52,0.289,1.19,0.44,1.868,0.44v-1.666
					c-0.678,0-1.356-0.144-1.875-0.447l-2.532-1.464h-0.007L41.027,385.13C40.476,384.81,40.257,384.436,40.255,384.027z"/>
				<path id="XMLID_1120_" style="fill:#BA68C8;" d="M40.255,395.301v1.695c0,0.39,0.245,0.772,0.743,1.068l0.029,0.014
					l56.728,32.75l3.982,2.301v0.007c0,0,0.007-0.007,0.007,0c0.52,0.289,1.19,0.44,1.868,0.44v-1.667
					c-0.678,0-1.356-0.144-1.875-0.447l-2.532-1.464h-0.007l-58.171-33.594C40.476,396.085,40.257,395.711,40.255,395.301z"/>
				<path id="XMLID_1114_" style="opacity:0.2;" d="M40.255,395.301v1.695c0,0.39,0.245,0.772,0.743,1.068l0.029,0.014l56.728,32.75
					l3.982,2.301v0.007c0,0,0.007-0.007,0.007,0c0.52,0.289,1.19,0.44,1.868,0.44v-1.667c-0.678,0-1.356-0.144-1.875-0.447
					l-2.532-1.464h-0.007l-58.171-33.594C40.476,396.085,40.257,395.711,40.255,395.301z"/>
			</g>
		</g>
		<g id="Book_57_">
			<g id="XMLID_00000010301864297094666820000017039902441464101257_">
				<polygon id="XMLID_00000083064085703658963000000003944546166980110721_" style="fill:#BA68C8;" points="151.009,385.806 
					101.811,413.83 36.381,376.281 85.576,348.254 				"/>
				<polygon id="XMLID_00000014631752048008933920000010135766553490383496_" style="opacity:0.2;fill:#FFFFFF;" points="
					151.009,385.806 101.811,413.83 36.381,376.281 85.576,348.254 				"/>
				<path id="XMLID_1111_" style="fill:#F5F5F5;" d="M101.359,412.113l47.797-27.37c-0.998-2.832-0.923-6.138,0.207-9.908
					l-47.553,27.138C101.81,401.973,101.084,404.365,101.359,412.113z"/>
				<path id="XMLID_00000096777972128836860860000012982750965143982752_" style="fill:#BA68C8;" d="M103.759,398.878
					c-2.027,1.164-3.67,3.993-3.671,6.32v7.383c0,2.327,1.644,3.271,3.671,2.107l47.244-27.054l0.005-1.829l-46.742,26.63
					c-1.217,0.698-2.201,0.132-2.2-1.264l0.035-6.842c0.001-1.396,0.988-3.094,2.205-3.792l46.698-26.639v-2.073L103.759,398.878z"
					/>
				<path id="XMLID_00000049933167370885174230000012353850392084797600_" style="opacity:0.4;fill:#FFFFFF;" d="M103.759,398.878
					c-2.027,1.164-3.67,3.993-3.671,6.32v7.383c0,2.327,1.644,3.271,3.671,2.107l47.244-27.054l0.005-1.829l-46.742,26.63
					c-1.217,0.698-2.201,0.132-2.2-1.264l0.035-6.842c0.001-1.396,0.988-3.094,2.205-3.792l46.698-26.639v-2.073L103.759,398.878z"
					/>
				<path id="XMLID_00000095330184957022493240000016663315219953488039_" style="fill:#BA68C8;" d="M151.005,371.829l-65.43-37.55
					L38.333,361.33c-2.026,1.163-3.671,3.994-3.671,6.32l-0.001,7.384c0.002,1.159,0.409,1.976,1.077,2.36l65.43,37.549
					c-0.668-0.383-1.074-1.201-1.076-2.359l-0.006-7.389c0-2.326,1.644-5.157,3.67-6.32L151.005,371.829z"/>
				<path id="XMLID_00000109010111366163025550000013260569125718401719_" style="opacity:0.85;fill:#FFFFFF;" d="M151.005,371.829
					l-65.43-37.55L38.333,361.33c-2.026,1.163-3.671,3.994-3.671,6.32l-0.001,7.384c0.002,1.159,0.409,1.976,1.077,2.36
					l65.43,37.549c-0.668-0.383-1.074-1.201-1.076-2.359l-0.006-7.389c0-2.326,1.644-5.157,3.67-6.32L151.005,371.829z"/>
				<path id="XMLID_00000007398125455173089900000002928582818873382787_" style="fill:#BA68C8;" d="M101.16,401.6
					c-0.664,1.144-1.075,2.433-1.075,3.596l0.006,7.389c0.002,1.159,0.409,1.976,1.076,2.359l-65.43-37.549
					c-0.668-0.383-1.074-1.201-1.077-2.36l0.001-7.384c0-1.163,0.411-2.452,1.076-3.596L101.16,401.6z"/>
				<path id="XMLID_00000044150538714749275570000002339659681102625435_" style="opacity:0.6;fill:#FFFFFF;" d="M101.16,401.6
					c-0.664,1.144-1.075,2.433-1.075,3.596l0.006,7.389c0.002,1.159,0.409,1.976,1.076,2.359l-65.43-37.549
					c-0.668-0.383-1.074-1.201-1.077-2.36l0.001-7.384c0-1.163,0.411-2.452,1.076-3.596L101.16,401.6z"/>
				<g>
					<path style="fill:#FFFFFF;" d="M44.362,368.952c-1.19,5.168-1.173,9.632,0,13.422l3.04,1.755c-1.172-3.79-1.189-8.254,0-13.422
						L44.362,368.952z"/>
					<path style="fill:#FFFFFF;" d="M87.82,394.043c-1.189,5.168-1.173,9.632,0,13.422l3.04,1.755
						c-1.172-3.79-1.189-8.254,0.001-13.422L87.82,394.043z"/>
				</g>
			</g>
		</g>
	</g>
</g>
</svg>
