<?xml version="1.0" encoding="UTF-8" standalone="no"?>
<!-- Created with Inkscape (http://www.inkscape.org/) -->

<svg
   version="1.1"
   id="svg2"
   width="1710.3066"
   height="1387.8"
   viewBox="0 0 1710.3066 1387.8"
   sodipodi:docname="reshot-illustration-students-with-books-MENJX8RK47.eps"
   xmlns:inkscape="http://www.inkscape.org/namespaces/inkscape"
   xmlns:sodipodi="http://sodipodi.sourceforge.net/DTD/sodipodi-0.dtd"
   xmlns="http://www.w3.org/2000/svg"
   xmlns:svg="http://www.w3.org/2000/svg">
  <defs
     id="defs6" />
  <sodipodi:namedview
     id="namedview4"
     pagecolor="#ffffff"
     bordercolor="#000000"
     borderopacity="0.25"
     inkscape:showpageshadow="2"
     inkscape:pageopacity="0.0"
     inkscape:pagecheckerboard="0"
     inkscape:deskcolor="#d1d1d1" />
  <g
     id="g8"
     inkscape:groupmode="layer"
     inkscape:label="ink_ext_XXXXXX"
     transform="matrix(1.3333333,0,0,-1.3333333,0,1387.8)">
    <g
       id="g10"
       transform="scale(0.1)">
      <path
         d="m 9688.17,8811.77 c 0,0 -2583.47,1716.03 -3842.81,1590.13 C 4520.27,10269.4 2797.62,10225.2 2135.07,6338.24 1472.52,2451.27 1516.69,1744.55 3416,1523.69 5315.32,1302.84 5624.51,3025.48 7391.32,3378.84 9158.13,3732.2 10085.7,2892.96 9334.82,1744.55 8583.92,596.109 8941.31,-549 10439.1,286.902 12338.4,1347.01 13751.8,6647.42 9688.17,8811.77"
         style="fill:#eef6fc;fill-opacity:1;fill-rule:nonzero;stroke:none"
         id="path12" />
      <path
         d="M 8629.61,3060.6 C 8204.79,3336.96 7340.36,2904.21 7127.82,2265.54 7034.69,1985.65 7023.73,1537 7304.49,1293.8 c 354.33,-306.921 997.26,-134.17 1325.12,220.86 425.66,460.92 382.85,1296.9 0,1545.94"
         style="fill:#a3c8ec;fill-opacity:1;fill-rule:nonzero;stroke:none"
         id="path14" />
      <path
         d="M 2194.4,9985.22 C 1597.14,10334.9 381.859,9787.32 83.0586,8979.22 -47.8789,8625.08 -63.2891,8057.38 331.434,7749.66 829.578,7361.31 1733.45,7579.89 2194.4,8029.11 c 598.41,583.22 538.24,1640.98 0,1956.11"
         style="fill:#eef6fc;fill-opacity:1;fill-rule:nonzero;stroke:none"
         id="path16" />
      <path
         d="m 1133.89,7311.71 c -280.519,127.03 -851.3,-71.89 -991.644,-365.45 -61.4921,-128.65 -68.7265,-334.88 116.66,-446.66 233.961,-141.08 658.489,-61.67 874.984,101.51 281.06,211.87 252.79,596.13 0,710.6"
         style="fill:#eef6fc;fill-opacity:1;fill-rule:nonzero;stroke:none"
         id="path18" />
      <path
         d="M 8366.38,2266.05 C 8425.58,2641.38 8940.6,4165.37 7129.62,3679.5 5318.64,3193.63 4744.43,1780.18 3507.66,1736.01 2270.9,1691.84 1078.3,4562.9 1873.36,6153.03 2668.42,7743.16 4611.92,10790.9 8233.87,9024.09 11855.8,7257.28 11820.1,5844.26 11900,4165.37 12032.5,1382.64 7869.7,-883.199 8366.38,2266.05 Z"
         style="fill:none;stroke:#cae5f7;stroke-width:99.6197;stroke-linecap:butt;stroke-linejoin:miter;stroke-miterlimit:10;stroke-dasharray:none;stroke-opacity:1"
         id="path20" />
      <path
         d="m 5690.61,5033.06 c -307.89,209.93 -55.49,277.24 241.5,270 -137.15,150.26 -41.58,289.87 320.5,441.2 162.53,67.94 354.58,23.89 540.6,-71.87 160.51,286.58 367.98,480.73 591.98,368.91 185.18,-92.48 320.57,-202.58 402.73,-318.87 59.79,22.85 123.98,44.25 192.56,63.8 149.27,42.59 256.58,5.49 331.1,-78.99 296.51,167.3 593.23,263.13 759.45,140.6 289.03,-213.17 320.46,-390.1 117.43,-560.74 296.29,-15.71 514.97,-118.05 116.74,-346.75 354.14,32.14 603.97,-9.96 443.6,-223.31 -357.68,-475.61 -1941.77,-527.11 -3111.47,-285.16 -742.83,54.37 -1356.22,205.45 -1464.45,452.17 -79.69,181.57 181.38,198.51 517.73,149.01"
         style="fill:#cbe6f8;fill-opacity:1;fill-rule:nonzero;stroke:none"
         id="path22" />
      <path
         d="m 2165.75,4143.65 c -65.2,132.63 14.65,251.41 321.36,326.31 334.78,81.76 655.11,50.49 918.85,-20.69 -622.97,382.87 -1349.76,927 -688.85,1023.06 206.07,29.94 523.69,-92.05 877.28,-289.05 -395.31,419.08 -613.27,768.28 -375.31,845.51 220.95,71.84 673.74,-263.23 1156.07,-713.11 -275.42,382.73 -435.37,720.32 -313.27,888.4 99.78,137.23 314.46,-5.6 561.87,-276.82 -12.08,247.6 63.72,400.88 238.33,378.52 164.23,-20.97 298.47,-302.25 394.98,-642.62 155.06,541.42 569.47,886.71 989.71,743.11 493.63,-168.68 103.5,-1467.36 -114.26,-2086.2 L 2165.75,4143.65"
         style="fill:#d9f0fb;fill-opacity:1;fill-rule:nonzero;stroke:none"
         id="path24" />
      <path
         d="m 10362.1,5135 c -328.2,-144.98 -544.74,-438.82 -607.32,-769.26 286.42,-176.26 649.52,-213.98 977.62,-69 328.2,144.97 544.8,438.82 607.3,769.23 -286.4,176.24 -649.5,213.93 -977.6,69.03"
         style="fill:#b5d8f3;fill-opacity:1;fill-rule:nonzero;stroke:none"
         id="path26" />
      <path
         d="M 11212.6,5015.77 9812.74,4397.29"
         style="fill:none;stroke:#ffffff;stroke-width:19.2931;stroke-linecap:butt;stroke-linejoin:miter;stroke-miterlimit:10;stroke-dasharray:none;stroke-opacity:1"
         id="path28" />
      <path
         d="m 10924.6,4886.52 234.8,-110.88"
         style="fill:none;stroke:#ffffff;stroke-width:19.2931;stroke-linecap:butt;stroke-linejoin:miter;stroke-miterlimit:10;stroke-dasharray:none;stroke-opacity:1"
         id="path30" />
      <path
         d="m 10685.9,4781.06 289.5,-136.63"
         style="fill:none;stroke:#ffffff;stroke-width:19.2931;stroke-linecap:butt;stroke-linejoin:miter;stroke-miterlimit:10;stroke-dasharray:none;stroke-opacity:1"
         id="path32" />
      <path
         d="m 10447.2,4675.59 483.9,-228.42"
         style="fill:none;stroke:#ffffff;stroke-width:19.2931;stroke-linecap:butt;stroke-linejoin:miter;stroke-miterlimit:10;stroke-dasharray:none;stroke-opacity:1"
         id="path34" />
      <path
         d="m 10208.5,4570.16 470.8,-222.3"
         style="fill:none;stroke:#ffffff;stroke-width:19.2931;stroke-linecap:butt;stroke-linejoin:miter;stroke-miterlimit:10;stroke-dasharray:none;stroke-opacity:1"
         id="path36" />
      <path
         d="M 9969.81,4464.69 10232,4340.93"
         style="fill:none;stroke:#ffffff;stroke-width:19.2931;stroke-linecap:butt;stroke-linejoin:miter;stroke-miterlimit:10;stroke-dasharray:none;stroke-opacity:1"
         id="path38" />
      <path
         d="m 10951.5,4903.44 76.2,248.3"
         style="fill:none;stroke:#ffffff;stroke-width:19.2931;stroke-linecap:butt;stroke-linejoin:miter;stroke-miterlimit:10;stroke-dasharray:none;stroke-opacity:1"
         id="path40" />
      <path
         d="m 10712.8,4797.97 118.7,387.12"
         style="fill:none;stroke:#ffffff;stroke-width:19.2931;stroke-linecap:butt;stroke-linejoin:miter;stroke-miterlimit:10;stroke-dasharray:none;stroke-opacity:1"
         id="path42" />
      <path
         d="m 10474.2,4692.49 148.6,484.61"
         style="fill:none;stroke:#ffffff;stroke-width:19.2931;stroke-linecap:butt;stroke-linejoin:miter;stroke-miterlimit:10;stroke-dasharray:none;stroke-opacity:1"
         id="path44" />
      <path
         d="m 10235.5,4587.05 152.6,497.76"
         style="fill:none;stroke:#ffffff;stroke-width:19.2931;stroke-linecap:butt;stroke-linejoin:miter;stroke-miterlimit:10;stroke-dasharray:none;stroke-opacity:1"
         id="path46" />
      <path
         d="M 9996.77,4481.63 10128,4909.2"
         style="fill:none;stroke:#ffffff;stroke-width:19.2931;stroke-linecap:butt;stroke-linejoin:miter;stroke-miterlimit:10;stroke-dasharray:none;stroke-opacity:1"
         id="path48" />
      <path
         d="m 9302.1,5234.06 c -224.57,-326.51 -257.92,-728.47 -125.21,-1075.5 371.57,0.29 734.9,175.28 959.51,501.86 224.5,326.56 257.9,728.49 125.2,1075.54 -371.58,-0.31 -734.93,-175.31 -959.5,-501.9"
         style="fill:#b5d8f3;fill-opacity:1;fill-rule:nonzero;stroke:none"
         id="path50" />
      <path
         d="M 10171.1,5615.01 9213.08,4221.85"
         style="fill:none;stroke:#ffffff;stroke-width:21.3153;stroke-linecap:butt;stroke-linejoin:miter;stroke-miterlimit:10;stroke-dasharray:none;stroke-opacity:1"
         id="path52" />
      <path
         d="m 9975.15,5326.53 285.15,31.86"
         style="fill:none;stroke:#ffffff;stroke-width:21.3153;stroke-linecap:butt;stroke-linejoin:miter;stroke-miterlimit:10;stroke-dasharray:none;stroke-opacity:1"
         id="path54" />
      <path
         d="m 9811.81,5088.95 351.49,39.3"
         style="fill:none;stroke:#ffffff;stroke-width:21.3153;stroke-linecap:butt;stroke-linejoin:miter;stroke-miterlimit:10;stroke-dasharray:none;stroke-opacity:1"
         id="path56" />
      <path
         d="m 9648.46,4851.41 587.64,65.68"
         style="fill:none;stroke:#ffffff;stroke-width:21.3153;stroke-linecap:butt;stroke-linejoin:miter;stroke-miterlimit:10;stroke-dasharray:none;stroke-opacity:1"
         id="path58" />
      <path
         d="m 9485.07,4613.85 571.63,63.86"
         style="fill:none;stroke:#ffffff;stroke-width:21.3153;stroke-linecap:butt;stroke-linejoin:miter;stroke-miterlimit:10;stroke-dasharray:none;stroke-opacity:1"
         id="path60" />
      <path
         d="m 9321.74,4376.31 318.31,35.55"
         style="fill:none;stroke:#ffffff;stroke-width:21.3153;stroke-linecap:butt;stroke-linejoin:miter;stroke-miterlimit:10;stroke-dasharray:none;stroke-opacity:1"
         id="path62" />
      <path
         d="m 9990.7,5358.04 -72.31,277.66"
         style="fill:none;stroke:#ffffff;stroke-width:21.3153;stroke-linecap:butt;stroke-linejoin:miter;stroke-miterlimit:10;stroke-dasharray:none;stroke-opacity:1"
         id="path64" />
      <path
         d="m 9827.38,5120.5 -112.75,432.91"
         style="fill:none;stroke:#ffffff;stroke-width:21.3153;stroke-linecap:butt;stroke-linejoin:miter;stroke-miterlimit:10;stroke-dasharray:none;stroke-opacity:1"
         id="path66" />
      <path
         d="m 9664,4882.9 -141.12,541.96"
         style="fill:none;stroke:#ffffff;stroke-width:21.3153;stroke-linecap:butt;stroke-linejoin:miter;stroke-miterlimit:10;stroke-dasharray:none;stroke-opacity:1"
         id="path68" />
      <path
         d="M 9500.69,4645.39 9355.7,5202.04"
         style="fill:none;stroke:#ffffff;stroke-width:21.3153;stroke-linecap:butt;stroke-linejoin:miter;stroke-miterlimit:10;stroke-dasharray:none;stroke-opacity:1"
         id="path70" />
      <path
         d="m 9337.29,4407.84 -124.51,478.19"
         style="fill:none;stroke:#ffffff;stroke-width:21.3153;stroke-linecap:butt;stroke-linejoin:miter;stroke-miterlimit:10;stroke-dasharray:none;stroke-opacity:1"
         id="path72" />
      <path
         d="m 9976.28,4336.25 c -885.47,7.22 -3629.24,38.95 -5294.34,134.69 -3087.48,177.5 -5609.491,-119.26 -3953.124,-456.27 462.874,-94.16 -872.613,-660.4 2395.634,-786.87 2868.96,-110.99 5793.75,130.3 7209.35,233.9 1415.6,103.67 2068.8,286.88 2372.2,369.47 266.7,72.65 365.4,479.85 -2729.72,505.08"
         style="fill:#cae5f7;fill-opacity:1;fill-rule:nonzero;stroke:none"
         id="path74" />
      <path
         d="m 8062.94,5234.99 c -128.7,1134.15 478.44,1877.83 484.57,1885.29 l 16.66,-13.86 c -6.09,-7.36 -607.34,-744.42 -479.69,-1869 l -21.54,-2.43"
         style="fill:#d9f0fb;fill-opacity:1;fill-rule:nonzero;stroke:none"
         id="path76" />
      <path
         d="m 8535.39,7092.25 c 0,0 6.11,69.78 52.4,121.13 16.69,18.6 59.59,38.15 76.94,22.61 17.25,-15.56 10,-51.87 -14.35,-78.95 -46.22,-51.33 -114.99,-64.79 -114.99,-64.79"
         style="fill:#d9f0fb;fill-opacity:1;fill-rule:nonzero;stroke:none"
         id="path78" />
      <path
         d="m 8470.66,6991.32 c 0,0 40.91,47.28 101.92,62.07 22.08,5.4 64.17,-1.2 68.84,-20.62 4.75,-19.5 -19.52,-42.17 -51.71,-49.96 -60.99,-14.8 -119.05,8.51 -119.05,8.51"
         style="fill:#d9f0fb;fill-opacity:1;fill-rule:nonzero;stroke:none"
         id="path80" />
      <path
         d="m 8376.24,6810.79 c 0,0 40.17,41.1 93.2,45.06 19.22,1.43 53.69,-13.05 55.24,-34.04 1.51,-20.9 -21.67,-39.74 -49.6,-41.81 -53.02,-3.92 -98.84,30.79 -98.84,30.79"
         style="fill:#d9f0fb;fill-opacity:1;fill-rule:nonzero;stroke:none"
         id="path82" />
      <path
         d="m 8480.4,6993.72 c 0,0 -52.76,21.98 -75.89,69.48 -8.35,17.27 -7.62,54.37 11.05,63.54 18.78,9.11 44.66,-5.39 56.86,-30.44 23.13,-47.55 7.98,-102.58 7.98,-102.58"
         style="fill:#d9f0fb;fill-opacity:1;fill-rule:nonzero;stroke:none"
         id="path84" />
      <path
         d="m 8062.76,5789.47 c 0,0 -58.44,3.14 -102.58,40.3 -16.01,13.49 -33.38,48.75 -20.77,63.67 12.5,14.87 42.98,9.88 66.21,-9.76 44.13,-37.16 57.14,-94.21 57.14,-94.21"
         style="fill:#d9f0fb;fill-opacity:1;fill-rule:nonzero;stroke:none"
         id="path86" />
      <path
         d="m 8365.2,6817.19 c 0,0 -58.28,29.92 -86.57,87.95 -10.26,21.12 -12.13,65.15 7.42,74.66 19.49,9.45 48.31,-9.57 63.21,-40.18 28.27,-58.13 15.94,-122.43 15.94,-122.43"
         style="fill:#d9f0fb;fill-opacity:1;fill-rule:nonzero;stroke:none"
         id="path88" />
      <path
         d="m 8266.12,6623.67 c 0,0 -61.86,20.78 -86.57,71.58 -8.98,18.39 -5.74,59.26 17.33,70.52 23.09,11.21 53.23,-3.09 66.22,-29.81 24.74,-50.78 3.02,-112.29 3.02,-112.29"
         style="fill:#d9f0fb;fill-opacity:1;fill-rule:nonzero;stroke:none"
         id="path90" />
      <path
         d="m 8282.5,6620.65 c 0,0 35.58,53.55 92,67.04 20.45,4.87 60.34,-5.8 65.91,-29.41 5.64,-23.54 -15.78,-48.89 -45.51,-55.95 -56.43,-13.44 -112.4,18.32 -112.4,18.32"
         style="fill:#d9f0fb;fill-opacity:1;fill-rule:nonzero;stroke:none"
         id="path92" />
      <path
         d="m 8068.05,5780.23 c 0,0 10.08,53.48 58.42,93.32 17.55,14.41 60.82,29.8 76.85,18.1 16.08,-11.65 6.89,-39.49 -18.62,-60.48 -48.34,-39.79 -116.65,-50.94 -116.65,-50.94"
         style="fill:#d9f0fb;fill-opacity:1;fill-rule:nonzero;stroke:none"
         id="path94" />
      <path
         d="m 8137.65,6223.67 c 0,0 31.91,27.74 86.94,29.76 19.95,0.73 60.2,-9.66 67.3,-24.01 7.13,-14.38 -12.62,-26.97 -41.61,-28.08 -55.03,-2 -112.63,22.33 -112.63,22.33"
         style="fill:#d9f0fb;fill-opacity:1;fill-rule:nonzero;stroke:none"
         id="path96" />
      <path
         d="m 8186.48,6414.49 c 0,0 -35.06,18.46 -52.57,64.51 -6.33,16.72 -7.98,54.05 3.53,64.5 11.57,10.47 28.97,-2.31 38.21,-26.63 17.53,-46.05 10.83,-102.38 10.83,-102.38"
         style="fill:#d9f0fb;fill-opacity:1;fill-rule:nonzero;stroke:none"
         id="path98" />
      <path
         d="m 8096.95,5991.04 c 0,0 16.12,66.15 52.57,101.07 13.19,12.66 41.95,17.53 49.39,-3.42 7.4,-20.94 -3.4,-54.02 -22.58,-72.36 -36.43,-34.93 -79.38,-25.29 -79.38,-25.29"
         style="fill:#d9f0fb;fill-opacity:1;fill-rule:nonzero;stroke:none"
         id="path100" />
      <path
         d="m 8140.54,6214.72 c 0,0 -74.13,28.94 -115.3,78.37 -14.91,17.98 -22.36,53.89 0.13,60.07 22.46,6.16 59.66,-11.62 81.32,-37.74 41.21,-49.4 33.85,-100.7 33.85,-100.7"
         style="fill:#d9f0fb;fill-opacity:1;fill-rule:nonzero;stroke:none"
         id="path102" />
      <path
         d="m 8086.74,5983.6 c 0,0 -70.22,27.58 -105.65,73.69 -12.86,16.69 -16.51,49.95 6.33,55.34 22.86,5.4 57.81,-11.46 76.4,-35.7 35.49,-46.14 22.92,-93.33 22.92,-93.33"
         style="fill:#d9f0fb;fill-opacity:1;fill-rule:nonzero;stroke:none"
         id="path104" />
      <path
         d="m 9051.71,6664.99 c 0,0 -58.51,3.15 -102.59,40.25 -15.95,13.53 -33.33,48.86 -20.81,63.78 12.57,14.85 43.04,9.83 66.25,-9.77 44.09,-37.18 57.15,-94.26 57.15,-94.26"
         style="fill:#d9f0fb;fill-opacity:1;fill-rule:nonzero;stroke:none"
         id="path106" />
      <path
         d="m 8064.79,5387.81 c 0,0 10.03,53.49 58.44,93.23 17.49,14.49 60.76,29.88 76.86,18.15 16.07,-11.62 6.84,-39.46 -18.62,-60.44 -48.37,-39.86 -116.68,-50.94 -116.68,-50.94"
         style="fill:#d9f0fb;fill-opacity:1;fill-rule:nonzero;stroke:none"
         id="path108" />
      <path
         d="m 8055.71,5582.56 c 0,0 12.88,40.31 59.24,70.28 16.74,10.81 56.86,22.37 70.54,13.55 13.67,-8.82 3.38,-29.9 -21.04,-45.68 -46.32,-29.91 -108.74,-38.15 -108.74,-38.15"
         style="fill:#d9f0fb;fill-opacity:1;fill-rule:nonzero;stroke:none"
         id="path110" />
      <path
         d="m 8435.72,6372.94 c 0,0 37.21,51.29 82.9,72.01 16.57,7.58 45.01,5.12 44.96,-13.94 -0.17,-18.98 -21.25,-44.06 -45.33,-54.94 -45.66,-20.77 -82.53,-3.13 -82.53,-3.13"
         style="fill:#d9f0fb;fill-opacity:1;fill-rule:nonzero;stroke:none"
         id="path112" />
      <path
         d="m 8061.33,5380.23 c 0,0 -77.18,19.32 -124.25,63.14 -17.07,15.92 -29.06,50.62 -7.52,59.62 21.54,8.89 60.7,-4.04 85.49,-27.15 47.13,-43.87 46.28,-95.61 46.28,-95.61"
         style="fill:#d9f0fb;fill-opacity:1;fill-rule:nonzero;stroke:none"
         id="path114" />
      <path
         d="m 8053.52,5578.41 c 0,0 -70.25,17.86 -107.32,57 -13.46,14.2 -18.78,44.97 3.3,52.7 22.11,7.7 57.17,-4.11 76.72,-24.77 37.16,-39.15 27.3,-84.93 27.3,-84.93"
         style="fill:#d9f0fb;fill-opacity:1;fill-rule:nonzero;stroke:none"
         id="path116" />
      <path
         d="m 8189.11,6399.49 c 0,0 30.84,43.99 93.44,69 22.69,9.01 70.87,14.08 81.84,0.94 11.06,-13.13 -8.84,-35.28 -41.86,-48.41 -62.63,-25 -133.42,-21.53 -133.42,-21.53"
         style="fill:#d9f0fb;fill-opacity:1;fill-rule:nonzero;stroke:none"
         id="path118" />
      <path
         d="m 3436.91,7219.55 c 0,0 -138.36,74.05 -193.26,211.67 -19.9,49.92 -12.45,152.65 39.55,173.38 51.8,20.71 118.93,-26.08 147.89,-98.49 54.9,-137.63 5.82,-286.56 5.82,-286.56"
         style="fill:#9dd1f2;fill-opacity:1;fill-rule:nonzero;stroke:none"
         id="path120" />
      <path
         d="m 3545.03,6997.05 c 0,0 -34.36,132.74 22.37,247.25 20.59,41.47 92.11,95.21 136.67,73.24 44.35,-22.12 54.34,-92.75 24.38,-153.11 -56.83,-114.46 -183.42,-167.38 -183.42,-167.38"
         style="fill:#9dd1f2;fill-opacity:1;fill-rule:nonzero;stroke:none"
         id="path122" />
      <path
         d="m 3618.5,6717.78 c 0,0 22.7,135.24 121.3,216.62 35.79,29.53 123.1,49.34 154.71,11.03 31.52,-38.24 11.62,-106.81 -40.19,-149.7 -98.7,-81.28 -235.82,-77.95 -235.82,-77.95"
         style="fill:#9dd1f2;fill-opacity:1;fill-rule:nonzero;stroke:none"
         id="path124" />
      <path
         d="m 3544.04,6989.22 c 0,0 -118.47,-46.1 -242.35,-15.01 -44.97,11.15 -114.57,62.56 -104.72,101.88 9.89,39.36 74.99,57.02 140.28,40.58 124.01,-31.05 206.79,-127.45 206.79,-127.45"
         style="fill:#9dd1f2;fill-opacity:1;fill-rule:nonzero;stroke:none"
         id="path126" />
      <path
         d="m 3636.22,6722.79 c 0,0 -119.44,-50.16 -243.36,-19.07 -44.93,11.15 -114.18,64.43 -103.72,106.07 10.49,41.57 76.15,61.03 141.43,44.71 124.02,-31.11 205.65,-131.71 205.65,-131.71"
         style="fill:#9dd1f2;fill-opacity:1;fill-rule:nonzero;stroke:none"
         id="path128" />
      <path
         d="m 3694.27,6338.64 c 0,0 -95.7,-56.29 -190.37,-32.49 -34.42,8.56 -85.04,57.15 -74.58,98.82 10.39,41.62 62.43,64.49 112.28,52 94.67,-23.74 152.67,-118.33 152.67,-118.33"
         style="fill:#9dd1f2;fill-opacity:1;fill-rule:nonzero;stroke:none"
         id="path130" />
      <path
         d="m 3709.2,6342.57 c 0,0 8.41,105.64 77.67,182.87 25.1,27.9 90.11,56.99 116.3,33.15 26.53,-23.78 16.04,-78.58 -20.48,-119.24 -69.26,-77.11 -173.49,-96.78 -173.49,-96.78"
         style="fill:#9dd1f2;fill-opacity:1;fill-rule:nonzero;stroke:none"
         id="path132" />
      <path
         d="m 4259.84,4875.18 c 32.78,0.04 52.96,9.41 54.39,10.09 l -11.28,23.48 5.72,-11.65 -5.54,11.76 c -2.27,-1.11 -55.94,-25.17 -132.83,17.95 -86.04,48.56 -164.51,159.13 -232.99,328.83 -94.05,232.77 -166.02,571.11 -213.81,1005.81 -55.79,504.85 -175.62,754.27 -254.93,919.31 -20.27,42.26 -37.96,78.89 -49.96,111.08 l -24.35,-9.11 c 12.38,-33.3 30.21,-70.35 50.79,-113.22 78.52,-163.43 197.45,-410.41 252.57,-910.95 106.59,-967.62 309.84,-1271.04 461.44,-1355.13 39.61,-22 74.27,-28.22 100.78,-28.25"
         style="fill:#9dd1f2;fill-opacity:1;fill-rule:nonzero;stroke:none"
         id="path134" />
      <path
         d="m 8682.87,6353.5 c 0,0 -15.14,73.39 18.55,135.64 12.2,22.57 52.19,51.24 75.64,38.53 23.42,-12.61 26.9,-51.58 9.15,-84.37 -33.64,-62.3 -103.34,-89.8 -103.34,-89.8"
         style="fill:#9dd1f2;fill-opacity:1;fill-rule:nonzero;stroke:none"
         id="path136" />
      <path
         d="m 8634.35,6245.71 c 0,0 38.21,53.27 97.58,67.45 21.55,5.15 63.13,-4.62 68.63,-27.71 5.53,-23.06 -17.35,-48.3 -48.62,-55.78 -59.42,-14.23 -117.59,16.04 -117.59,16.04"
         style="fill:#9dd1f2;fill-opacity:1;fill-rule:nonzero;stroke:none"
         id="path138" />
      <path
         d="m 8554.46,6133.29 c 0,0 56.58,33.05 116.56,21.78 21.76,-4.09 55.75,-30.01 51.35,-53.31 -4.36,-23.3 -35.56,-36.99 -67.17,-31.07 -60.03,11.26 -100.74,62.6 -100.74,62.6"
         style="fill:#9dd1f2;fill-opacity:1;fill-rule:nonzero;stroke:none"
         id="path140" />
      <path
         d="m 8631.18,6243.69 c 0,0 -53.16,29.33 -79.68,84.3 -9.61,19.94 -12.08,61.19 5.36,69.57 17.45,8.46 43.83,-10.06 57.82,-39.01 26.59,-55.03 16.5,-114.86 16.5,-114.86"
         style="fill:#9dd1f2;fill-opacity:1;fill-rule:nonzero;stroke:none"
         id="path142" />
      <path
         d="m 8561.72,6128.34 c 0,0 -55.02,28.43 -81.51,83.43 -9.68,19.89 -11.29,61.55 7.16,70.47 18.51,8.89 45.69,-9.2 59.68,-38.19 26.57,-54.96 14.67,-115.71 14.67,-115.71"
         style="fill:#9dd1f2;fill-opacity:1;fill-rule:nonzero;stroke:none"
         id="path144" />
      <path
         d="m 8438.55,5989.51 c 0,0 -49.94,17.85 -70.19,59.79 -7.36,15.26 -5.02,48.77 13.43,57.67 18.48,8.92 42.78,-3.19 53.45,-25.31 20.28,-42.01 3.31,-92.15 3.31,-92.15"
         style="fill:#9dd1f2;fill-opacity:1;fill-rule:nonzero;stroke:none"
         id="path146" />
      <path
         d="m 8444.6,5985.18 c 0,0 41.27,29.25 90.83,27.45 17.96,-0.64 48.43,-15.52 47.78,-32.53 -0.63,-16.96 -23.94,-29.9 -50.04,-28.94 -49.55,1.82 -88.57,34.02 -88.57,34.02"
         style="fill:#9dd1f2;fill-opacity:1;fill-rule:nonzero;stroke:none"
         id="path148" />
      <path
         d="m 8074.87,5334.13 c 10,-12.03 19.64,-16.57 20.38,-16.87 l 5.14,11.28 -2.61,-5.61 2.64,5.6 c -1.09,0.5 -26.34,12.82 -34.03,54.2 -8.56,46.47 8.05,109.06 49.28,186.12 56.63,105.74 158.72,235.67 303.5,386.29 168.17,174.91 222.94,295.24 259.21,374.86 9.27,20.42 17.33,38.05 25.47,52.27 l -10.8,6.15 c -8.44,-14.73 -16.58,-32.61 -26.02,-53.29 -35.87,-78.85 -90.11,-197.96 -256.81,-371.37 -322.27,-335.28 -371.41,-502.64 -355.85,-584.01 4.04,-21.29 12.4,-35.93 20.5,-45.62"
         style="fill:#9dd1f2;fill-opacity:1;fill-rule:nonzero;stroke:none"
         id="path150" />
      <path
         d="m 2220.69,4229.89 c -35.78,55.01 8.72,101.8 178.73,126.66 185.52,27.16 362.8,8.69 508.63,-24.94 -343.96,166.65 -744.99,400.7 -378.86,427.79 114.18,8.42 289.75,-46.84 485.01,-133.21 -217.81,177.25 -337.66,323.01 -205.68,350.07 122.5,25.14 372.36,-119.05 638.28,-310.42 -151.53,160.37 -239.27,300.34 -171.21,366.36 55.55,53.89 174.06,-7.95 310.36,-122.54 -6.08,100.75 36.25,161.59 132.89,149.4 90.88,-11.48 164.51,-128.13 217.06,-268.05 87.2,217 317.49,349.7 549.79,283.83 272.92,-77.36 53.68,-597.63 -68.41,-844.95 H 2220.69"
         style="fill:#b5d8f3;fill-opacity:1;fill-rule:nonzero;stroke:none"
         id="path152" />
      <path
         d="m 3630.18,4458.54 12.46,3.72 c -88.59,296.68 -248.22,730.2 -505.56,1110.66 -154.09,227.84 -271.97,329.9 -273.14,330.91 l -8.46,-9.86 c 1.17,-0.99 118.04,-102.27 271.23,-328.9 141.42,-209.19 343.55,-570.95 503.47,-1106.53"
         style="fill:#b5d8f3;fill-opacity:1;fill-rule:nonzero;stroke:none"
         id="path154" />
      <path
         d="m 3696.22,4573.66 12.94,1.05 c -50.15,617.82 -361.76,1148.93 -364.91,1154.24 l -11.15,-6.64 c 3.12,-5.27 313.21,-533.92 363.12,-1148.65"
         style="fill:#b5d8f3;fill-opacity:1;fill-rule:nonzero;stroke:none"
         id="path156" />
      <path
         d="m 3463.13,4515.5 12.94,1.1 c -25.28,296.92 -151.03,485.01 -252.09,590.53 -109.64,114.45 -215.02,159.27 -216.04,159.71 l -5.02,-11.99 c 1.03,-0.43 104.32,-44.47 212.13,-157.19 99.42,-103.95 223.18,-289.34 248.08,-582.16"
         style="fill:#b5d8f3;fill-opacity:1;fill-rule:nonzero;stroke:none"
         id="path158" />
      <path
         d="m 2801.87,5981.11 c -85.07,-59.85 -134.31,-136.31 -110.07,-170.75 24.23,-34.47 112.85,-13.87 197.89,45.99 85.05,59.85 134.3,136.31 110.04,170.77 -24.23,34.44 -112.83,13.85 -197.86,-46.01"
         style="fill:#b5d8f3;fill-opacity:1;fill-rule:nonzero;stroke:none"
         id="path160" />
      <path
         d="m 2831.83,5938.54 c -27,-19 -42.67,-43.29 -34.96,-54.22 7.71,-10.94 35.85,-4.42 62.84,14.59 27,19.02 42.66,43.29 34.96,54.21 -7.7,10.95 -35.84,4.43 -62.84,-14.58"
         style="fill:#395fb5;fill-opacity:1;fill-rule:nonzero;stroke:none"
         id="path162" />
      <path
         d="m 3314.61,5759.86 c -35.42,-24.92 -55.93,-56.77 -45.84,-71.12 10.08,-14.33 46.98,-5.75 82.38,19.14 35.43,24.94 55.93,56.78 45.83,71.1 -10.1,14.36 -46.98,5.8 -82.37,-19.12"
         style="fill:#b5d8f3;fill-opacity:1;fill-rule:nonzero;stroke:none"
         id="path164" />
      <path
         d="m 3327.07,5742.13 c -11.26,-7.92 -17.76,-18.03 -14.56,-22.6 3.2,-4.54 14.92,-1.82 26.18,6.1 11.22,7.93 17.74,18.01 14.53,22.58 -3.2,4.55 -14.92,1.84 -26.15,-6.08"
         style="fill:#395fb5;fill-opacity:1;fill-rule:nonzero;stroke:none"
         id="path166" />
      <path
         d="m 2973.96,5287.02 c -35.69,-42.93 -50.51,-89.46 -33.13,-103.92 17.38,-14.42 60.43,8.66 96.1,51.57 35.67,42.94 50.48,89.45 33.12,103.92 -17.42,14.45 -60.43,-8.62 -96.09,-51.57"
         style="fill:#b5d8f3;fill-opacity:1;fill-rule:nonzero;stroke:none"
         id="path168" />
      <path
         d="m 2995.41,5269.16 c -11.29,-13.62 -16.01,-28.42 -10.48,-33 5.51,-4.6 19.19,2.76 30.51,16.38 11.32,13.62 16.05,28.41 10.51,32.99 -5.54,4.6 -19.19,-2.74 -30.54,-16.37"
         style="fill:#395fb5;fill-opacity:1;fill-rule:nonzero;stroke:none"
         id="path170" />
      <path
         d="m 3193.33,4584.23 c -11.67,1.78 -19.78,12.7 -18.02,24.4 1.79,11.73 12.75,19.79 24.44,18.04 11.7,-1.79 19.77,-12.76 18.01,-24.47 -1.78,-11.69 -12.69,-19.76 -24.43,-17.97 z m 48.81,14.76 c -1.45,1.16 -2.93,2.24 -4.41,3.29 0.76,0.28 1.52,0.53 2.3,0.84 20.4,8.01 33.58,23.09 29.38,33.77 -4.2,10.63 -24.13,12.82 -44.48,4.85 -1.77,-0.71 -3.45,-1.46 -5.05,-2.25 0.13,0.8 0.31,1.62 0.41,2.45 3.28,21.66 -3.21,40.6 -14.53,42.33 -11.32,1.69 -23.15,-14.47 -26.43,-36.13 -0.28,-1.85 -0.47,-3.67 -0.62,-5.48 -0.63,0.53 -1.25,1.09 -1.89,1.59 -17.1,13.68 -36.78,17.52 -43.94,8.55 -7.12,-8.91 0.95,-27.26 18.05,-40.92 1.47,-1.18 2.96,-2.23 4.45,-3.27 -0.76,-0.29 -1.54,-0.55 -2.3,-0.84 -20.4,-8 -33.55,-23.11 -29.4,-33.75 4.17,-10.68 24.11,-12.84 44.47,-4.86 1.78,0.69 3.44,1.43 5.07,2.23 -0.15,-0.8 -0.31,-1.64 -0.41,-2.46 -3.31,-21.69 3.24,-40.57 14.54,-42.3 11.31,-1.72 23.16,14.45 26.42,36.12 0.3,1.86 0.47,3.64 0.6,5.47 0.65,-0.54 1.27,-1.09 1.92,-1.6 17.12,-13.67 36.77,-17.5 43.91,-8.59 7.14,8.97 -0.94,27.31 -18.06,40.96"
         style="fill:#ffffff;fill-opacity:1;fill-rule:nonzero;stroke:none"
         id="path172" />
      <path
         d="m 7901.56,4036.3 -37.73,-203.82 h 577.49 c 0,0 3.77,64.17 -64.17,83.03 -67.94,18.88 -252.89,75.5 -301.95,135.89 -49.08,60.38 -173.64,-15.1 -173.64,-15.1"
         style="fill:#cbe6f8;fill-opacity:1;fill-rule:nonzero;stroke:none"
         id="path174" />
      <path
         d="m 7884.24,4070.27 c 0,0 -90.59,724.7 -52.84,905.87 37.74,181.17 45.29,294.4 30.19,384.99 -15.09,90.59 -140.7,1222.43 -140.7,1222.43 l 389.81,408.14 h 98.14 c 0,0 15.1,-936.07 -60.39,-1502.24 -75.49,-566.16 -105.68,-1441.84 -105.68,-1441.84 l -158.53,22.65"
         style="fill:#212a53;fill-opacity:1;fill-rule:nonzero;stroke:none"
         id="path176" />
      <path
         d="m 7627.58,7014.34 c 0,0 -253.96,-205.76 -321.9,-492.62 -67.94,-286.86 -198.98,-1100.19 -214.08,-1153.04 -15.09,-52.84 -128.33,-384.99 -158.52,-468.03 -30.2,-83.04 -158.53,-830.38 -158.53,-830.38 h 150.98 c 0,0 309.5,754.89 362.34,928.52 52.84,173.62 123.81,339.13 123.81,339.13 0,0 495.21,1019.67 593.34,1276.33 98.14,256.67 105.68,377.45 105.68,377.45 l -483.12,22.64"
         style="fill:#4349a6;fill-opacity:1;fill-rule:nonzero;stroke:none"
         id="path178" />
      <path
         d="m 6927.52,4045.74 c 0,0 -7.55,-73.6 -7.55,-96.25 0,-22.65 49.07,-86.82 52.84,-105.68 3.77,-18.88 3.77,-18.88 3.77,-18.88 h -369.89 c 0,0 -7.55,37.74 52.84,86.82 60.39,49.06 79.26,83.03 86.81,145.31 7.55,62.27 181.18,-11.32 181.18,-11.32"
         style="fill:#cbe6f8;fill-opacity:1;fill-rule:nonzero;stroke:none"
         id="path180" />
      <path
         d="m 7644.56,6933.19 c 0,0 -69.71,-69.72 -151.03,-236.18 -49.78,-101.88 -103.9,-240.01 -149.04,-420.57 -155.39,-621.55 -127.15,-832.51 -127.15,-832.51 0,0 -246.52,-543.28 -337.1,-899.97 -90.59,-356.68 -90.59,-356.68 -90.59,-356.68"
         style="fill:none;stroke:#8fb0e1;stroke-width:19.9246;stroke-linecap:butt;stroke-linejoin:miter;stroke-miterlimit:10;stroke-dasharray:none;stroke-opacity:1"
         id="path182" />
      <path
         d="m 7757.79,6876.57 c 0,0 -113.23,-220.8 -237.79,-226.46"
         style="fill:none;stroke:#8fb0e1;stroke-width:19.9246;stroke-linecap:butt;stroke-linejoin:miter;stroke-miterlimit:10;stroke-dasharray:none;stroke-opacity:1"
         id="path184" />
      <path
         d="m 8154.73,8017.62 c 0,0 -234.5,210.58 -53.61,544.77 100.27,185.26 47.67,691.42 -276.91,534.34 -324.66,-157.12 -236.68,38.76 -419.94,-48.61 -183.41,-87.39 -264.42,-218.78 -239.74,-362.19 24.74,-143.32 8.65,-416.59 -104.04,-469.14 -112.7,-52.53 -652.66,-346.36 -304.69,-717.54 348.03,-371.15 1613.37,-98.61 1398.93,518.37"
         style="fill:#212a53;fill-opacity:1;fill-rule:nonzero;stroke:none"
         id="path186" />
      <path
         d="m 7966.04,8010.3 c 0,0 203.12,-649.77 192.15,-735.46 -10.98,-85.69 -76.3,-349.41 -155.28,-305.99 -78.97,43.41 -190.36,289.76 -224.12,486.21 -33.76,196.44 -375.94,840.14 187.25,555.24"
         style="fill:#de1d25;fill-opacity:1;fill-rule:nonzero;stroke:none"
         id="path188" />
      <path
         d="m 7760.65,8083.18 c -26.51,0 -337.92,33.13 -337.92,33.13 l -212.03,-92.76 c 0,0 -106.01,6.63 -79.51,-165.64 26.51,-172.27 304.79,-841.47 357.8,-874.6 53,-33.13 356.73,-151.3 549.94,-178.89 123.67,-17.67 176.68,35.33 176.68,35.33 0,0 -11.05,600.74 2.2,627.24 13.26,26.5 19.89,185.52 -132.51,304.78 -105.01,82.18 -324.65,311.41 -324.65,311.41"
         style="fill:#ee222d;fill-opacity:1;fill-rule:nonzero;stroke:none"
         id="path190" />
      <path
         d="m 7296.84,7944.04 c 0,0 443.92,-596.31 450.55,-682.45 6.63,-86.13 -72.89,-337.91 -159.02,-311.41 -86.13,26.5 -245.15,245.15 -318.04,430.67 -72.88,185.52 -324.65,788.46 26.51,563.19"
         style="fill:#de1d25;fill-opacity:1;fill-rule:nonzero;stroke:none"
         id="path192" />
      <path
         d="m 7416.19,8546.98 39.76,-430.67 278.28,-33.13 -66.25,271.66 -251.79,192.14"
         style="fill:#f6ab7a;fill-opacity:1;fill-rule:nonzero;stroke:none"
         id="path194" />
      <path
         d="m 7704.9,8211.64 c -7.4,2.92 -15.28,6.44 -23.77,10.68 -87.63,43.82 -183.76,107.89 -248.53,167.36 l -16.41,190.43 251.71,-205.87 37,-162.6"
         style="fill:#ed8656;fill-opacity:1;fill-rule:nonzero;stroke:none"
         id="path196" />
      <path
         d="m 7919.66,8792.14 c 0,0 19.87,-218.66 -39.76,-344.54 -59.62,-125.89 -53,-225.28 -185.51,-159.02 -132.52,66.26 -284.92,178.89 -318.04,251.78 -33.13,72.88 19.87,172.26 106.02,125.89 86.13,-46.38 79.5,19.88 165.63,6.62 86.14,-13.25 245.16,0 271.66,119.27"
         style="fill:#f6ab7a;fill-opacity:1;fill-rule:nonzero;stroke:none"
         id="path198" />
      <path
         d="m 8189.42,7250.08 c 4.99,0.62 9.97,1.64 14.96,2.53 v 39.47 c 0,49.7 -19.62,94.94 -51.31,128.74 -3.57,-5.66 -6.87,-10.24 -9.85,-13.22 -27.11,-27.17 -36.26,-62.18 -162.89,-103.21 -192.81,-62.45 -435.45,-70.63 -468.03,-228.11 -32.56,-157.49 197.13,-172.48 197.13,-172.48 l 371.33,302.87 c 0,0 43.47,35.27 108.66,43.41"
         style="fill:#f6ab7a;fill-opacity:1;fill-rule:nonzero;stroke:none"
         id="path200" />
      <path
         d="m 8814.54,7656.82 -146.89,-158.49 155.16,-184.45 6.51,17.78 c 0,0 -39.66,129.13 -23.84,196.96 15.82,67.82 9.06,128.2 9.06,128.2"
         style="fill:#eff7fd;fill-opacity:1;fill-rule:nonzero;stroke:none"
         id="path202" />
      <path
         d="m 8481.08,7675.12 c 0,0 139.73,-107.37 184.73,-159.68 45,-52.31 150.55,-170.01 154.59,-178 0,0 -66.56,182.38 -5.86,319.38 1.03,2.31 35.93,3.37 35.93,3.37 0,0 -36.45,-96.79 -35.11,-162.12 1.35,-65.33 11.22,-146.38 35.9,-205.98 4.66,-11.24 -57.64,-8.88 -57.64,-8.88 l -360.96,354.14 12.89,25.97 35.53,11.8"
         style="fill:#cbe6f8;fill-opacity:1;fill-rule:nonzero;stroke:none"
         id="path204" />
      <path
         d="m 8149.09,7274.05 296.46,389.27 c 0,0 147.72,-103.34 235.48,-202.14 87.75,-98.8 131.5,-172.58 131.5,-172.58 l -351.74,-285.58 c 0,0 -256.89,262.58 -311.7,271.03"
         style="fill:#445fb5;fill-opacity:1;fill-rule:nonzero;stroke:none"
         id="path206" />
      <path
         d="m 8036.19,7507.26 136.01,33.39 155.12,-26.04 75.87,-43.26 c 0,0 25.96,-12.88 6.93,-27.86 -19.03,-14.98 -33.35,-22.41 -44.85,-17.31 -11.52,5.1 -39.54,13.38 -39.54,13.38 0,0 32.24,-14.28 39.04,-26.93 6.78,-12.65 13.05,-14.05 -2.28,-23.79 -15.33,-9.73 -37.58,-16.41 -43.84,-15 -6.27,1.39 -131.95,0.62 -131.95,0.62 0,0 -3.55,-20.47 7.05,-18.28 10.62,2.18 113.16,3.58 113.16,3.58 0,0 22.23,6.67 32.73,-0.73 10.49,-7.41 3.35,-23.52 0.93,-32.09 -2.42,-8.57 -15.83,-23.29 -15.83,-23.29 0,0 5.51,-9.33 6.41,-16.62 0.9,-7.28 -2.27,-23.78 -20.55,-30.83 -18.27,-7.05 -72.73,-24.25 -72.73,-24.25 l -66.33,-16.05 c 0,0 -47.4,-35.47 -72.32,-45.09 -24.92,-9.62 -90.24,-23.37 -90.24,-23.37 l -42.03,-29.58 c 0,0 -84.15,15.24 -84.41,20.87 -0.26,5.63 -39.11,101.35 -25.97,121.69 13.16,20.34 71.57,37.16 71.57,37.16 0,0 91.78,123.23 108.05,209.68"
         style="fill:#f6ab7a;fill-opacity:1;fill-rule:nonzero;stroke:none"
         id="path208" />
      <path
         d="m 8851.26,7292.09 c 0,0 -18.68,-13.41 -38.73,-3.49 -4.66,2.3 -351.74,-285.58 -351.74,-285.58 0,0 4.94,-15.27 24.69,-9.57 19.75,5.72 365.78,298.64 365.78,298.64"
         style="fill:#3a52ac;fill-opacity:1;fill-rule:nonzero;stroke:none"
         id="path210" />
      <path
         d="m 8537.19,7232.93 c 0,0 32.99,-6.36 51.93,-25.77 18.95,-19.42 26.13,-28.1 26.13,-28.1 l 62.8,-29.21 30.4,25.09 0.32,-55.23 c 0,0 -3.67,-30.05 -16.33,-36.84 -12.64,-6.79 -35.52,-11.8 -35.52,-11.8 0,0 -4.58,-22.77 -20.3,-36.47 -15.7,-13.69 -25.67,-17.54 -25.67,-17.54 l -14.82,-20.99 -32.84,-8.86 -13.67,-9.09 -63.92,-7.48 c 0,0 -52.23,56.19 -55.58,79.71 -3.35,23.53 0.14,51.6 6.65,56.97 6.51,5.38 -0.93,32.09 0.47,38.36 1.39,6.27 -6.67,22.24 3.61,25.25 10.29,3.02 24.36,3.68 29.22,-3.99 4.87,-7.67 -9.61,24.92 -9.61,24.92 0,0 0.61,23.15 11.54,24.5 10.93,1.35 36.14,-19.46 36.14,-19.46 0,0 6.72,-5.04 10.11,-11.37 3.4,-6.32 -1.61,16.56 -0.66,26.47 0.95,9.91 5.21,21.1 19.6,20.93"
         style="fill:#f6ab7a;fill-opacity:1;fill-rule:nonzero;stroke:none"
         id="path212" />
      <path
         d="m 4643.21,9387.32 c 308.48,120.47 335.08,-34.06 412.89,-219.88 77.85,-185.77 122.67,-608.61 -39.93,-768.44 -162.61,-159.79 -161.5,-422.69 -284.99,-288.78 -143.82,155.93 -203.56,3.21 -328.01,58.17 -219.12,96.53 -238.89,318.67 -99.82,512.54 139.05,193.81 119.31,234.51 96.33,368.67 -23.08,134.19 147.14,300.08 243.53,337.72"
         style="fill:#1f3b57;fill-opacity:1;fill-rule:nonzero;stroke:none"
         id="path214" />
      <path
         d="m 4553.83,9340.24 c 22.71,19.65 269.63,154.17 433.14,87.21 163.55,-66.96 254.58,-221.94 248.01,-397.82 -6.52,-175.91 -70.63,-228.01 96.36,-366.87 204.05,-169.68 335.78,-291.16 285.93,-408.67 -96.36,-227.11 -478.28,-333.9 -531.32,-220.25 -65.95,141.28 140.5,508.74 -61.07,544.72 -149.39,26.72 -201.35,50.14 -230.72,233.47 -29.34,183.4 133.31,302.5 13.64,299.03 -141.47,-4.22 -450.68,58.75 -253.97,229.18"
         style="fill:#1f3b57;fill-opacity:1;fill-rule:nonzero;stroke:none"
         id="path216" />
      <path
         d="m 5037.37,8605.96 c 0,0 -383.3,-10.39 -392.11,8.65 -8.82,19.03 -48.47,62.25 3.3,91.66 51.76,29.41 159.7,41.52 221.38,39.79 61.69,-1.74 209.77,-5.58 209.77,-24.37 0,-64.82 -24.72,-103.62 -42.34,-115.73"
         style="fill:#d5dded;fill-opacity:1;fill-rule:nonzero;stroke:none"
         id="path218" />
      <path
         d="m 5180.29,8632.17 c 0,0 -131.53,-256.43 -286.27,-291.8 -154.74,-35.36 -369.16,-2.21 -391.27,59.69 -22.11,61.89 32.05,183.47 67.42,214.42 35.36,30.95 150.32,61.9 181.26,119.37 25.24,46.87 17.69,132.63 0,198.95 -17.68,66.31 -70.73,70.75 -17.68,101.69 53.05,30.94 30.94,61.9 84,53.05 53.05,-8.85 84.01,11.04 84.01,-39.79 -0.02,-92.85 -7.6,-223.19 44.2,-282.95 57.47,-66.32 141.48,-53.05 234.33,-132.63"
         style="fill:#f6ab7a;fill-opacity:1;fill-rule:nonzero;stroke:none"
         id="path220" />
      <path
         d="m 4751.43,8932.8 c -17.68,66.31 -70.73,70.75 -17.68,101.69 53.05,30.94 30.94,61.89 84,53.05 9.94,-1.66 19.1,-2.3 27.43,-2.6 7.77,-6.86 15.93,-13.56 24.49,-20.02 10.54,-7.97 21.28,-14.97 32.07,-21.56 -0.1,-38.54 -1.24,-83.01 1.08,-126.15 -24.13,-43.51 -71.9,-73.17 -126.96,-73.17 -3.2,0 -6.33,0.26 -9.47,0.45 -2.24,30.03 -7.62,60.81 -14.96,88.31"
         style="fill:#ed8656;fill-opacity:1;fill-rule:nonzero;stroke:none"
         id="path222" />
      <path
         d="m 5120.8,4427.69 3.32,-381.33 c 0,0 -135.95,-165.79 -185.69,-192.31 -49.73,-26.52 -43.1,-3.32 -39.79,9.95 3.32,13.26 86.22,109.42 99.48,162.47 13.26,53.06 -16.58,378.01 -13.26,394.59 3.31,16.57 135.94,6.63 135.94,6.63"
         style="fill:#f6ab7a;fill-opacity:1;fill-rule:nonzero;stroke:none"
         id="path224" />
      <path
         d="M 5158.38,7067.09 5065.34,5603.7 c 0,0 72.82,-334.04 82.25,-446.63 16.17,-192.75 -2.48,-773.61 -2.48,-773.61 l -194.51,-8.82 c 0,0 -137.05,1313.07 -154.75,1428.01 -17.68,114.95 -216.64,1052.22 -101.69,1282.12 114.96,229.9 464.22,-17.68 464.22,-17.68"
         style="fill:#234465;fill-opacity:1;fill-rule:nonzero;stroke:none"
         id="path226" />
      <path
         d="m 5127.44,4066.27 c 0,0 13.26,-23.22 9.49,-47.74 -3.07,-19.92 -19.44,-78.27 -19.44,-78.27 l -36.48,-16.58 v 26.53 c 0,0 -66.31,-79.58 -99.47,-102.79 -33.16,-23.21 -102.66,-81.02 -142.58,-66.32 -10.58,3.9 -13.26,16.58 -13.26,16.58 0,0 63,69.63 72.94,79.58 9.95,9.94 33.16,-9.95 59.69,6.63 26.53,16.59 102.32,88.99 122.68,112.74 26.53,30.95 46.43,69.64 46.43,69.64"
         style="fill:#1a1915;fill-opacity:1;fill-rule:nonzero;stroke:none"
         id="path228" />
      <path
         d="m 4756.06,4513.9 3.32,-381.32 c 0,0 -135.95,-165.8 -185.69,-192.32 -49.73,-26.52 -43.1,-3.31 -39.79,9.95 3.32,13.26 86.21,109.43 99.48,162.47 13.26,53.06 -16.58,378.01 -13.27,394.59 3.32,16.57 135.95,6.63 135.95,6.63"
         style="fill:#f6ab7a;fill-opacity:1;fill-rule:nonzero;stroke:none"
         id="path230" />
      <path
         d="m 4700.79,7133.41 22.12,-1370.55 44.2,-1313.08 -194.52,-8.83 c 0,0 -137.05,1326.33 -154.74,1441.28 -17.68,114.95 -216.65,1038.96 -101.69,1268.86 114.95,229.9 384.63,-17.68 384.63,-17.68"
         style="fill:#234465;fill-opacity:1;fill-rule:nonzero;stroke:none"
         id="path232" />
      <path
         d="m 4551.13,7049.53 154.23,-199.14 13.2,-818.12 c -54.79,111.33 -95.32,192.69 -108.13,216.11 -21.02,38.45 -105.45,176.16 -200.89,346.47 -0.96,58.85 -1.55,118.1 -1.59,177.27 47.14,102.99 95.12,197.07 143.18,277.41"
         style="fill:#1f3b57;fill-opacity:1;fill-rule:nonzero;stroke:none"
         id="path234" />
      <path
         d="m 4762.7,4152.48 c 0,0 13.26,-23.22 9.49,-47.74 -3.07,-19.92 -19.44,-78.27 -19.44,-78.27 l -36.48,-16.58 v 26.53 c 0,0 -66.31,-79.58 -99.47,-102.79 -33.16,-23.21 -102.66,-81.02 -142.58,-66.32 -10.59,3.9 -13.27,16.58 -13.27,16.58 0,0 63.01,69.63 72.95,79.58 9.95,9.95 33.16,-9.95 59.69,6.63 26.52,16.59 102.32,88.99 122.68,112.74 26.53,30.95 46.43,69.64 46.43,69.64"
         style="fill:#1a1915;fill-opacity:1;fill-rule:nonzero;stroke:none"
         id="path236" />
      <path
         d="m 4339.16,7094.72 h 712.91 l -102.94,604.29 23.36,708.79 c 0,0 -132.63,-51.07 -248.69,-58.36 -76.14,-4.79 -238.74,58.36 -238.74,58.36 l -145.9,-1313.08"
         style="fill:#de1d25;fill-opacity:1;fill-rule:nonzero;stroke:none"
         id="path238" />
      <path
         d="m 4724.9,7062.67 c 0,0 141.48,1074.33 181.27,1153.91 39.79,79.58 70.73,265.26 70.73,265.26 l 8.85,172.43 70.73,57.48 c 0,0 172.44,-75.16 203.39,-119.37 30.94,-44.22 -57.48,-256.43 -79.58,-322.75 -22.12,-66.32 -114.95,-282.95 -119.37,-331.58 -4.44,-48.63 0.94,-160.45 22.09,-212.21 168.01,-411.17 169.33,-683.35 163.59,-680.86 -132.63,57.48 -521.7,17.69 -521.7,17.69"
         style="fill:#d5dded;fill-opacity:1;fill-rule:nonzero;stroke:none"
         id="path240" />
      <path
         d="m 5160.71,8165.74 41.06,-457.64 -4.44,-62.24 228.79,13.26 c 0,0 -26.67,317.62 -36.62,347.46 -9.95,29.84 -33.15,288.48 -29.84,334.9 3.32,46.42 -81.33,357.98 -170.53,228.79 -128.22,-185.69 -28.42,-404.53 -28.42,-404.53"
         style="fill:#b3bee2;fill-opacity:1;fill-rule:nonzero;stroke:none"
         id="path242" />
      <path
         d="m 4645.33,8694.06 c 0,0 -159.16,-101.68 -163.57,-145.9 -4.42,-44.21 -70.74,-278.53 -84,-477.48 -13.27,-198.95 0,-252 -26.53,-393.48 -26.53,-141.48 -66.03,-165.48 -92.84,-340.43 -21.01,-137.05 -26.53,-260.84 -26.53,-260.84 0,0 57.46,-30.95 114.94,8.84 57.48,39.79 145.9,512.85 154.75,632.22 8.84,119.37 8.83,437.69 30.94,517.27 22.11,79.59 103.89,322.75 123.8,344.85 49.7,55.19 -22.12,106.11 -30.96,114.95"
         style="fill:#d5dded;fill-opacity:1;fill-rule:nonzero;stroke:none"
         id="path244" />
      <path
         d="m 5059.81,8730.53 -75.16,-76.26 c 0,0 18.79,11.88 32.61,-27.1 9.96,-28.13 23.21,-62.98 23.21,-62.98 l 72.95,121.23 c 0,0 -30.4,58.38 -53.61,45.11"
         style="fill:#b3bee2;fill-opacity:1;fill-rule:nonzero;stroke:none"
         id="path246" />
      <path
         d="m 4647.54,8706.22 c 0,0 4.49,-12.75 12.16,-21 14.37,-15.48 30.39,-43.11 30.39,-43.11 0,0 -23.2,18.24 -38.12,-1.93 -18.35,-24.8 -39.8,-85.39 -39.8,-85.39 0,0 -30.25,90.04 -13.17,112.69 30.86,40.95 48.54,38.74 48.54,38.74"
         style="fill:#b3bee2;fill-opacity:1;fill-rule:nonzero;stroke:none"
         id="path248" />
      <path
         d="m 4601.35,9220.8 c 3.37,3.27 6.91,6.4 10.62,9.38 33.89,-41.28 102.01,-74.5 184.58,-84.58 20.04,-2.44 39.63,-3.22 58.58,-2.79 l 23.89,-43.09 c 35.37,-63.79 7.78,-146.71 -61.62,-185.19 -69.39,-38.48 -154.34,-17.96 -189.71,45.84 l -53.86,97.15 c 22.26,41.19 33.09,99.61 27.52,163.28"
         style="fill:#f6ab7a;fill-opacity:1;fill-rule:nonzero;stroke:none"
         id="path250" />
      <path
         d="m 4601.57,7605.85 44.46,113.37 c 146.72,-11.12 300.86,6.28 434.6,17.32 286.71,23.65 292.78,-29.9 292.78,-29.9 -74.27,-84.22 -347.25,-136.36 -347.25,-136.36 l -424.59,35.57"
         style="fill:#f6ab7a;fill-opacity:1;fill-rule:nonzero;stroke:none"
         id="path252" />
      <path
         d="m 5262.35,7804.38 -300.65,-51.82 66.68,-226.74 397.92,131.15 c 0,0 -81.15,150.32 -163.95,147.41"
         style="fill:#b3bee2;fill-opacity:1;fill-rule:nonzero;stroke:none"
         id="path254" />
      <path
         d="m 3838.89,8129.99 167.65,-180.88 -177.08,-210.5 -7.42,20.29 c 0,0 45.25,147.37 27.2,224.77 -18.06,77.41 -10.35,146.32 -10.35,146.32"
         style="fill:#eff7fd;fill-opacity:1;fill-rule:nonzero;stroke:none"
         id="path256" />
      <path
         d="m 4219.47,8150.87 c 0,0 -159.48,-122.54 -210.84,-182.23 -51.36,-59.7 -171.81,-194.02 -176.42,-203.14 0,0 75.96,208.14 6.68,364.49 -1.16,2.63 -41,3.84 -41,3.84 0,0 41.61,-110.45 40.07,-185.02 -1.54,-74.56 -12.8,-167.06 -40.98,-235.07 -5.31,-12.83 65.8,-10.14 65.8,-10.14 l 411.94,404.16 -14.7,29.64 -40.55,13.47"
         style="fill:#cbe6f8;fill-opacity:1;fill-rule:nonzero;stroke:none"
         id="path258" />
      <path
         d="m 4598.33,7693.14 -338.31,444.26 c 0,0 -168.6,-117.93 -268.75,-230.68 -100.15,-112.76 -150.08,-196.97 -150.08,-196.97 l 401.42,-325.91 c 0,0 293.19,299.67 355.72,309.3"
         style="fill:#445fb5;fill-opacity:1;fill-rule:nonzero;stroke:none"
         id="path260" />
      <path
         d="m 4559.65,7876.84 -96.6,23.72 -110.18,-18.5 -53.88,-30.72 c 0,0 -18.45,-9.16 -4.93,-19.79 13.52,-10.64 23.69,-15.92 31.86,-12.3 8.18,3.62 28.08,9.51 28.08,9.51 0,0 -22.9,-10.15 -27.72,-19.13 -4.83,-8.99 -9.28,-9.98 1.61,-16.9 10.89,-6.91 26.69,-11.65 31.14,-10.66 4.45,0.99 93.72,0.44 93.72,0.44 0,0 2.53,-14.53 -5.01,-12.98 -7.54,1.55 -80.37,2.54 -80.37,2.54 0,0 -15.8,4.74 -23.25,-0.52 -7.45,-5.25 -2.37,-16.7 -0.66,-22.79 1.72,-6.09 11.24,-16.54 11.24,-16.54 0,0 -3.91,-6.62 -4.55,-11.8 -0.64,-5.17 1.61,-16.89 14.6,-21.9 12.98,-5.01 51.65,-17.22 51.65,-17.22 l 47.12,-11.41 c 0,0 33.66,-25.19 51.36,-32.02 17.71,-6.83 64.1,-16.6 64.1,-16.6 l 29.85,-21.01 c 0,0 59.77,10.83 59.96,14.83 0.18,3.99 27.77,71.98 18.44,86.43 -9.34,14.45 -50.83,26.39 -50.83,26.39 0,0 -65.2,87.53 -76.75,148.93"
         style="fill:#f6ab7a;fill-opacity:1;fill-rule:nonzero;stroke:none"
         id="path262" />
      <path
         d="m 3796.98,7713.74 c 0,0 21.33,-15.31 44.21,-3.99 5.32,2.63 401.42,-325.91 401.42,-325.91 0,0 -5.64,-17.44 -28.17,-10.92 -22.54,6.52 -417.46,340.82 -417.46,340.82"
         style="fill:#3a52ac;fill-opacity:1;fill-rule:nonzero;stroke:none"
         id="path264" />
      <path
         d="m 4135.36,7577.07 c 0,0 -23.37,-4.5 -36.78,-18.24 -13.42,-13.75 -18.49,-19.91 -18.49,-19.91 l -44.49,-20.68 -21.53,17.77 -0.23,-39.12 c 0,0 2.61,-21.28 11.57,-26.09 8.96,-4.81 25.16,-8.36 25.16,-8.36 0,0 3.24,-16.12 14.37,-25.82 11.13,-9.7 18.19,-12.42 18.19,-12.42 l 10.48,-14.87 23.27,-6.27 9.68,-6.44 45.27,-5.3 c 0,0 36.99,39.8 39.36,56.46 2.37,16.66 -0.1,36.53 -4.71,40.34 -4.61,3.81 0.66,22.73 -0.33,27.17 -0.99,4.43 4.72,15.75 -2.56,17.88 -7.29,2.14 -17.25,2.6 -20.7,-2.83 -3.44,-5.43 6.81,17.65 6.81,17.65 0,0 -0.43,16.39 -8.17,17.35 -7.74,0.96 -25.6,-13.78 -25.6,-13.78 0,0 -4.76,-3.57 -7.16,-8.05 -2.41,-4.48 1.14,11.73 0.48,18.74 -0.68,7.02 -3.7,14.95 -13.89,14.82"
         style="fill:#f6ab7a;fill-opacity:1;fill-rule:nonzero;stroke:none"
         id="path266" />
      <path
         d="m 6493.99,8717.77 c 52.99,3.53 92.59,56.98 88.44,119.38 l -30.81,462.77 c -10.89,14.19 -22.86,25.76 -35.86,33.44 -63.88,36.64 -134.06,31.96 -192.62,-12.83 -63.82,-50.33 -83.79,-207.52 -71.72,-284.43 16.24,-110.34 32.52,-220.79 48.79,-331.23 l 193.78,12.9"
         style="fill:#f6ab7a;fill-opacity:1;fill-rule:nonzero;stroke:none"
         id="path268" />
      <path
         d="m 5839.72,8611.15 c 0,0 -130.34,-91.84 -225.48,-645.55 -95.13,-553.7 -34.58,-532.65 -34.58,-532.65 l 17.22,-126.17 242.23,-21.02 138.34,476.6 -137.73,848.79"
         style="fill:#b3bee2;fill-opacity:1;fill-rule:nonzero;stroke:none"
         id="path270" />
      <path
         d="m 6793.16,3866.25 v -65.4 h -363.19 l -8.61,175.58 219.06,7.24 c 0,0 118.17,-108.12 152.74,-117.42"
         style="fill:#1a1915;fill-opacity:1;fill-rule:nonzero;stroke:none"
         id="path272" />
      <path
         d="m 6331.54,6893.16 c 0,0 -188.16,-1076.43 -384.18,-1548.88 -173.79,-418.62 -376.44,125.92 -376.44,125.92 l 317.15,1806.17 522.72,39.63 c 0,0 35.98,-13.24 -79.25,-422.84"
         style="fill:#212a53;fill-opacity:1;fill-rule:nonzero;stroke:none"
         id="path274" />
      <path
         d="m 6287.94,7311.66 -64.23,-694.08 90.58,-53.26 c 0,0 52.48,-1031.01 69.58,-1083.16 98.04,-298.45 351.62,-119.39 386.2,-19.9 34.59,99.47 92.3,835.72 80.8,1372.94 -11.55,537.19 -11.55,537.19 -11.55,537.19 l -551.38,-59.73"
         style="fill:#212a53;fill-opacity:1;fill-rule:nonzero;stroke:none"
         id="path276" />
      <path
         d="m 6405.91,5757.75 c 0,0 -42.02,-183.63 -35.97,-530.81 3.84,-220.18 25.45,-802.94 65.77,-1236.77 2.49,-26.54 219.12,-6.5 219.12,-6.5 0,0 131.96,1408.21 143.56,1680.91 3.47,82.12 -219.54,287.49 -392.48,93.17"
         style="fill:#212a53;fill-opacity:1;fill-rule:nonzero;stroke:none"
         id="path278" />
      <path
         d="m 5832.51,8611.73 381.44,172.18 196.75,-58.84 243.28,27.77 268.19,-116.21 c 0,0 120.97,-116.32 8.59,-490.08 C 6818.3,7772.81 6835.1,7155.7 6835.1,7155.7 l -973.5,-61.75 c 0,0 66.06,1310.15 -29.09,1517.78"
         style="fill:#d5dded;fill-opacity:1;fill-rule:nonzero;stroke:none"
         id="path280" />
      <path
         d="m 6845.15,8629.49 c 0,0 163.82,57.79 281.02,-152.26 199.85,-357.96 255.42,-768.65 268.7,-848.51 13.24,-79.98 9.05,-312.03 -107.81,-360.69 -116.99,-48.68 -244.31,-14.98 -244.31,-14.98 l -116.3,338.02 83.59,25.44 6.13,1.54 c 0,0 -47.15,162.15 -136.69,427.85 -89.55,265.55 -34.33,583.59 -34.33,583.59"
         style="fill:#d5dded;fill-opacity:1;fill-rule:nonzero;stroke:none"
         id="path282" />
      <path
         d="m 6458.8,8733.49 96.2,-105.06 96.21,138.66 -57.72,85.46 -134.69,-119.06"
         style="fill:#b3bee2;fill-opacity:1;fill-rule:nonzero;stroke:none"
         id="path284" />
      <path
         d="m 6247.56,8844.27 185,-119.2 -87.41,-104.99 -144.41,163.83 46.82,60.36"
         style="fill:#b3bee2;fill-opacity:1;fill-rule:nonzero;stroke:none"
         id="path286" />
      <path
         d="m 5658.41,5494.57 c 0,0 60.78,-19.83 253.84,-26.7 192.28,-6.93 -248.1,-1554.8 -248.1,-1554.8 l -273.17,100.42 196.78,1558.25 70.65,-77.17"
         style="fill:#212a53;fill-opacity:1;fill-rule:nonzero;stroke:none"
         id="path288" />
      <path
         d="m 5643.11,3930.05 -25.98,-135.68 h -138.35 c 0,0 -103.76,0 -129.72,0 -25.97,0 -181.67,0 -181.67,0 v 49.86 c 0,0 216.26,74.7 259.46,157.82 43.3,83 216.26,-72 216.26,-72"
         style="fill:#1a1915;fill-opacity:1;fill-rule:nonzero;stroke:none"
         id="path290" />
      <path
         d="m 6474.85,8876.16 c 52.99,3.53 92.59,56.99 88.43,119.38 l -30.81,462.77 c -10.88,14.19 -22.85,25.76 -35.85,33.44 -63.88,36.64 -134.06,31.96 -192.62,-12.82 -63.82,-50.34 -83.79,-207.53 -71.72,-284.44 16.24,-110.34 32.52,-220.79 48.79,-331.23 l 193.78,12.9"
         style="fill:#ed8656;fill-opacity:1;fill-rule:nonzero;stroke:none"
         id="path292" />
      <path
         d="m 6375.76,9575.23 -5.96,89.45 -36.94,-2.46 -97.42,-6.48 -58.83,-3.92 c -64.91,-4.32 -114.09,-60.56 -109.77,-125.55 l 5.95,-89.4 36.97,2.46 97.37,6.48 58.82,3.91 c 64.98,4.33 114.13,60.52 109.81,125.51"
         style="fill:#1f3b57;fill-opacity:1;fill-rule:nonzero;stroke:none"
         id="path294" />
      <path
         d="m 6597.01,9044.6 c 3.85,-57.75 -39.86,-107.7 -97.62,-111.54 l -237.46,-15.81 c -57.76,-3.85 -107.69,39.87 -111.54,97.62 l -31.61,474.75 c -3.85,57.82 39.85,107.83 97.61,111.67 l 237.45,15.81 c 57.76,3.85 107.71,-39.92 111.57,-97.74 l 31.6,-474.76"
         style="fill:#f6ab7a;fill-opacity:1;fill-rule:nonzero;stroke:none"
         id="path296" />
      <path
         d="m 6377.31,9665.18 c 41.14,2.74 78.77,-16.09 101.91,-46.7 l 40.35,2.68 c 50.34,3.36 93.84,-34.75 97.19,-85.09 l 14.99,-225.22 -64.08,-4.27 -6.11,91.59 c -2.35,35.36 -33.08,62.22 -68.41,59.87 l -37.44,-2.49 -97.4,-6.48 -58.77,-3.92 c -65.1,-4.33 -121.16,44.81 -125.5,109.8 l -6.4,96.27 209.67,13.96"
         style="fill:#1f3b57;fill-opacity:1;fill-rule:nonzero;stroke:none"
         id="path298" />
      <path
         d="m 6551.32,9246.76 c -2.05,30.82 21.27,57.36 52.17,59.42 l 4.57,0.31 c 30.83,2.05 57.5,-21.17 59.55,-51.99 l 4.51,-67.84 c 2.05,-30.79 -21.29,-57.46 -52.12,-59.51 l -4.57,-0.31 c -22.84,-1.52 -43.34,10.88 -53.36,29.9"
         style="fill:#f6ab7a;fill-opacity:1;fill-rule:nonzero;stroke:none"
         id="path300" />
      <path
         d="m 5159.02,7937.81 430.82,-249.8 -196.2,-304.39 -26.29,-13.15 -235.64,534.98 27.31,32.36"
         style="fill:#cbe6f8;fill-opacity:1;fill-rule:nonzero;stroke:none"
         id="path302" />
      <path
         d="m 5036.65,7930.73 66.75,-23.26 206.3,-453.06 12.14,-96.08 c 0,0 -29.33,2.02 -33.38,7.08 -4.04,5.06 -251.81,565.32 -251.81,565.32"
         style="fill:#284197;fill-opacity:1;fill-rule:nonzero;stroke:none"
         id="path304" />
      <path
         d="m 5986.27,8016.69 -67.76,-2.02 c 0,0 -246.76,-193.16 -317.55,-290.24 -70.79,-97.09 -210.86,-266.99 -221.48,-329.69 -2.64,-15.59 -4.46,-20.61 -5.05,-24.78 -1.02,-7.08 0,27.81 0,27.81 0,0 1.01,106.19 -23.27,166.87 -24.26,60.67 -192.14,373.17 -192.14,373.17 0,0 -68.77,-26.29 -81.92,-28.32 -13.14,-2.02 230.58,-538.01 230.58,-538.01 0,0 21.24,-26.8 53.6,-18.71 32.36,8.09 49.05,0 72.81,31.86 6.68,8.95 25.29,51.57 25.29,51.57 l 526.89,580.49"
         style="fill:#eff7fd;fill-opacity:1;fill-rule:nonzero;stroke:none"
         id="path306" />
      <path
         d="m 6044.92,8058.16 -16.18,1.01 -600.72,-645.22 c 0,0 -5.05,-13.14 -3.03,-20.22 2.02,-7.08 -9.69,-30.56 -35.9,-32.87 -24.58,-2.17 -60.71,-7.9 -81.41,0.5 -20.18,8.21 -271.03,569.37 -271.03,569.37 l -11.13,-5.05 250.81,-544.09 c 0,0 -6.07,-14.16 2.02,-19.21 8.09,-5.06 47.53,-23.26 57.65,-24.28 10.11,-1.01 611.84,-252.82 611.84,-252.82 l 77.86,30.34 24.28,38.43 405.53,426.77 -410.59,477.34"
         style="fill:#3a52ac;fill-opacity:1;fill-rule:nonzero;stroke:none"
         id="path308" />
      <path
         d="m 6470.69,7611.16 -425.77,447 -601.72,-652.3 585.54,-276.08 469.25,453.06 -27.3,28.32"
         style="fill:#445fb5;fill-opacity:1;fill-rule:nonzero;stroke:none"
         id="path310" />
      <path
         d="m 6675.98,7697.12 c 0,0 -33.38,15.17 -105.18,46.52 -71.8,31.35 -121.35,79.89 -142.6,77.87 -21.23,-2.03 -137.53,-68.77 -137.53,-68.77 l -169.9,-81.92 c 0,0 -32.36,-28.31 -24.27,-45.51 8.09,-17.19 15.17,-16.18 30.34,-15.16 15.17,1.01 175.96,59.66 175.96,59.66 l -223.49,-122.37 -64.73,-41.46 c 0,0 -14.15,-14.16 -15.17,-25.28 -1.01,-11.13 4.05,-25.28 18.21,-24.27 14.15,1.01 24.27,-1.01 39.44,7.08 15.17,8.09 117.31,54.61 117.31,54.61 0,0 -112.25,-53.6 -132.48,-75.85 -20.23,-22.25 -19.22,-32.36 -15.17,-43.49 4.04,-11.12 19.21,-13.14 19.21,-13.14 l 86.98,45.5 c 0,0 -25.29,-14.16 -23.26,-20.22 2.02,-6.07 10.11,-16.18 21.23,-15.17 11.13,1.01 108.21,33.37 108.21,33.37 l 94.06,22.25 122.36,13.15 152.71,38.43 c 0,0 27.31,-7.08 30.34,2.02 3.03,9.1 76.86,153.72 37.42,192.15"
         style="fill:#f6ab7a;fill-opacity:1;fill-rule:nonzero;stroke:none"
         id="path312" />
      <path
         d="m 6025.7,7115.62 -578.46,268 c 0,0 -7.08,-17.2 -36.41,-30.35 -29.32,-13.14 -90,-10.11 -90,-10.11 l 627.01,-257.88 c 0,0 74.83,7.08 77.86,30.34"
         style="fill:#445fb5;fill-opacity:1;fill-rule:nonzero;stroke:none"
         id="path314" />
      <path
         d="m 5589.84,7230.91 c 0,0 -9.11,-16.19 0,-39.44 9.1,-23.26 11.12,-37.42 35.39,-45.52 24.27,-8.08 26.3,-9.1 38.43,1.02 12.13,10.11 63.71,49.55 63.71,49.55 l 40.45,54.61 c 0,0 12.14,25.28 -4.04,31.35 -16.18,6.07 -30.34,8.09 -51.58,-15.17 -21.24,-23.26 -60.67,-43.48 -71.8,-48.54 -11.83,-5.38 -50.56,12.14 -50.56,12.14"
         style="fill:#f6ab7a;fill-opacity:1;fill-rule:nonzero;stroke:none"
         id="path316" />
      <path
         d="m 5649.5,7151.01 c 0,0 -7.08,-18.2 2.03,-30.33 9.1,-12.14 27.3,-27.31 42.47,-26.3 15.17,1.01 112.25,51.57 112.25,51.57 l 73.83,109.23 58.66,88.99 c 0,0 -6.07,19.22 -18.21,21.24 -12.13,2.02 -20.23,4.05 -34.38,-9.1 -14.16,-13.15 -63.72,-89 -63.72,-89 l -66.74,-53.6 c 0,0 -84.95,-54.61 -106.19,-62.7"
         style="fill:#f6ab7a;fill-opacity:1;fill-rule:nonzero;stroke:none"
         id="path318" />
      <path
         d="m 6035.82,7331.03 c 0,0 -5.06,27.3 -21.24,24.27 -16.18,-3.04 -43.48,-30.34 -72.81,-61.69 -29.33,-31.35 -44.5,-49.56 -44.5,-49.56 l -51.57,-36.4 -115.29,-85.96 -10.12,-13.15 c 0,0 -13.14,-19.22 5.06,-24.28 18.2,-5.05 30.34,-25.27 59.67,-12.13 29.32,13.15 125.4,84.95 125.4,84.95 l 60.68,80.91 42.91,61.68 21.81,31.36"
         style="fill:#f6ab7a;fill-opacity:1;fill-rule:nonzero;stroke:none"
         id="path320" />
      <path
         d="m 6030.76,7301.7 c 13.14,-0.51 16.19,-18.21 16.19,-18.21 l -97.09,-142.59 c 0,0 -113.27,-80.9 -124.39,-86.97 -11.13,-6.07 -34.38,-2.02 -40.45,18.2 -6.07,20.23 155.74,142.59 155.74,142.59 0,0 63.71,87.99 90,86.98"
         style="fill:#f6ab7a;fill-opacity:1;fill-rule:nonzero;stroke:none"
         id="path322" />
      <path
         d="m 7098.31,7556.21 -441.29,149.52 c -23.39,-30.97 -39.48,-66.86 -45.19,-106.44 l -10.87,-75.16 c 215.34,-161.03 456.32,-304.64 556.25,-232.35 199.24,144.03 -58.9,264.43 -58.9,264.43"
         style="fill:#f6ab7a;fill-opacity:1;fill-rule:nonzero;stroke:none"
         id="path324" />
    </g>
  </g>
</svg>
