<?xml version="1.0" encoding="UTF-8" standalone="no"?>
<!-- Created with Inkscape (http://www.inkscape.org/) -->

<svg
   version="1.1"
   id="svg2"
   width="1019.9333"
   height="465.94666"
   viewBox="0 0 1019.9333 465.94666"
   sodipodi:docname="reshot-illustration-digital-library-WJYM67C529.eps"
   xmlns:inkscape="http://www.inkscape.org/namespaces/inkscape"
   xmlns:sodipodi="http://sodipodi.sourceforge.net/DTD/sodipodi-0.dtd"
   xmlns="http://www.w3.org/2000/svg"
   xmlns:svg="http://www.w3.org/2000/svg">
  <defs
     id="defs6">
    <clipPath
       clipPathUnits="userSpaceOnUse"
       id="clipPath194">
      <path
         d="M 6645.79,3360.62 H 2733.78 c -47.11,0 -85.73,-35.27 -89.85,-82.11 L 2451.89,1077.78 c -2.83,-34.23 13.39,-57.65 23.43,-68.47 10.04,-11.072 31.92,-29.08 66.16,-29.08 h 3912.28 c 47.11,0 85.72,35.27 89.83,82.12 l 192.04,2200.45 c 2.83,34.5 -13.39,57.66 -23.42,68.74 -10.04,10.8 -31.92,29.08 -66.42,29.08 z"
         id="path192" />
    </clipPath>
  </defs>
  <sodipodi:namedview
     id="namedview4"
     pagecolor="#ffffff"
     bordercolor="#000000"
     borderopacity="0.25"
     inkscape:showpageshadow="2"
     inkscape:pageopacity="0.0"
     inkscape:pagecheckerboard="0"
     inkscape:deskcolor="#d1d1d1" />
  <g
     id="g8"
     inkscape:groupmode="layer"
     inkscape:label="ink_ext_XXXXXX"
     transform="matrix(1.3333333,0,0,-1.3333333,0,465.94667)">
    <g
       id="g10"
       transform="scale(0.1)">
      <path
         d="m 7036.82,1977.04 c -34.81,25.68 -80.49,49.51 -131.49,72.62 -51.01,23.11 -107.3,45.49 -163.35,68.25 -56.03,22.77 -254.67,121.49 -286.91,150.4 248.39,-246.1 413.51,-674 627.72,-500.89 80.09,64.72 23.66,158.26 -45.97,209.62"
         style="fill:#2a3c9a;fill-opacity:1;fill-rule:nonzero;stroke:none"
         id="path12" />
      <path
         d="m 6797.87,1694.53 c -58.03,10.05 -120.6,9.23 -180.08,0.62 -54.07,-7.64 -105.06,-21.03 -147.79,-37.77 28.31,8.57 67.07,2.65 111.64,-10.91 107.13,-20.99 185.45,-99.31 263.77,-167.84 48.93,-29.36 88.09,-88.09 156.62,-58.74 68.52,19.59 9.79,146.85 -51.48,207 -41.17,36.58 -94.65,57.59 -152.68,67.64"
         style="fill:#2a3c9a;fill-opacity:1;fill-rule:nonzero;stroke:none"
         id="path14" />
      <path
         d="m 6470,1657.38 c -4.11,-1.24 -8.01,-2.78 -11.66,-4.65 3.78,1.59 7.73,3.11 11.66,4.65"
         style="fill:#2a3c9a;fill-opacity:1;fill-rule:nonzero;stroke:none"
         id="path16" />
      <path
         d="m 7475.18,1538.33 c -63.8,30.9 -163.15,30.82 -199.05,18.54 -112.03,-38.34 -156.54,-134.24 -97.8,-202.77 58.74,-88.09 283.81,98.43 469.79,-85.93 9.8,91.83 -32.38,202.08 -172.94,270.16"
         style="fill:#2a3c9a;fill-opacity:1;fill-rule:nonzero;stroke:none"
         id="path18" />
      <path
         d="m 6747.51,1341.58 c -78.31,19.58 -166.42,19.58 -239.33,-24.62 77.46,38.01 151.08,-12.07 213.58,-78.39 64.91,-73.19 123.65,-249.398 201.96,-151.51 78.31,97.89 -68.53,225.16 -176.21,254.52"
         style="fill:#2a3c9a;fill-opacity:1;fill-rule:nonzero;stroke:none"
         id="path20" />
      <path
         d="m 7285.55,1027.18 c -47.21,7.51 -88.15,1.67 -119.51,-18.22 -92.58,-58.698 -110.79,-166.698 -17.29,-192.878 44.76,-12.531 92.75,25.41 139.9,52.309 47.16,26.91 95.1,47.07 144.08,12.859 -14.13,86.012 -53.56,131.02 -147.18,145.93"
         style="fill:#2a3c9a;fill-opacity:1;fill-rule:nonzero;stroke:none"
         id="path22" />
      <path
         d="m 6557.22,1086.1 c 13.72,2.92 46.02,-72.57 85.53,-158.69 36.23,-55.719 36.23,-124.23 85.18,-173.18 39.16,-39.16 107.68,-39.16 107.68,9.79 9.8,146.832 -88.1,371.99 -278.39,322.08"
         style="fill:#2a3c9a;fill-opacity:1;fill-rule:nonzero;stroke:none"
         id="path24" />
      <path
         d="m 7243.09,586.16 c -45.97,3.32 -87.42,8.379 -132.15,24.899 -59.98,22.132 -138.97,-12.368 -112.46,-86.887 38.34,-107.762 166.57,-109.543 258.07,-73.422 93,36.711 127.27,-26.91 127.27,-26.91 0,0 19.58,150.73 -140.73,162.32"
         style="fill:#2a3c9a;fill-opacity:1;fill-rule:nonzero;stroke:none"
         id="path26" />
      <path
         d="m 7060.77,1167.82 c 7.46,43.89 14.07,115.02 19.42,159.15 16.08,132.37 45.43,326.65 2.6,440.45 -28.1,74.7 -159.07,206.8 -237.38,224.02 64.84,-31.31 208.35,-170.8 223.92,-229.63 32.6,-108.84 16.74,-206.73 7.76,-317.15 -4.49,-55.21 -11.02,-110.34 -16.43,-165.14 -5.44,-54.73 -40.27,-193.68 -40.27,-193.68 40.38,364.65 -136.25,501.23 -240.1,544.53 -38.42,16.02 -75.61,17.22 -116.01,21.35 -1.98,0.33 -3.48,-1.6 -1.51,-1.98 57.06,-2.36 112.5,-23.1 162.13,-54.71 42.57,-32.45 76.96,-70.1 104.4,-111.58 27.44,-41.49 47.91,-86.79 62.65,-134.56 68.82,-193.3 -30.68,-390.781 -79.64,-586.57 11.41,136.301 7.33,262.47 -32.25,389.6 -15.75,50.54 -84.07,148.79 -142.34,170.08 254.52,-176.21 149.29,-549.418 119.91,-813.738 -39.97,139.918 -101.66,398.449 -168.86,490.699 68.53,-225.16 221.48,-531.082 97.9,-724.422 48.94,78.32 81.91,25.711 81.91,25.711 0,0 1.52,161.23 21.53,170.082 74.64,33.039 239.19,97.898 327.29,39.156 -97.9,78.313 -337.34,-8.558 -337.34,-8.558 0,0 170.91,302.25 298.02,394.429 44.21,31.422 90.72,57.09 137.21,74.231 -79.33,-15.641 -120.3,-34.231 -159.87,-75.149 -65.67,-61.871 -154.61,-168.472 -245.17,-271.152 29.38,186 128.71,469.711 225.16,625.981 24.66,41.5 156.63,328.49 307.14,209.78 -192.6,173.77 -352.3,-266.91 -381.78,-291.23"
         style="fill:#100f0d;fill-opacity:1;fill-rule:nonzero;stroke:none"
         id="path28" />
      <path
         d="m 5904.14,1899.43 c 40.04,-11.53 110.23,-57.38 153.13,-143.27 64.58,-129.29 201.15,-245.74 358.98,-247.79 -125.52,194.91 -61.13,296.45 -512.11,391.06"
         style="fill:#2a3c9a;fill-opacity:1;fill-rule:nonzero;stroke:none"
         id="path30" />
      <path
         d="m 6303.47,1461.12 c -107.7,19.46 -230.37,-4.37 -307.79,-82.99 17.66,20.34 84.6,23.33 121.97,18.11 140.15,-10.14 206.57,-249.04 330.46,-123.1 77.79,79.06 -66.7,173.92 -144.64,187.98"
         style="fill:#2a3c9a;fill-opacity:1;fill-rule:nonzero;stroke:none"
         id="path32" />
      <path
         d="m 6721.4,1547.37 c -126.25,-17.54 -128.85,-171.95 -95.21,-194.27 66.41,-44.07 95.13,62.61 186.43,79.63 30.43,5.68 105.16,-13.71 132.91,-27.44 -73.56,39.82 -63.74,164.38 -224.13,142.08"
         style="fill:#2a3c9a;fill-opacity:1;fill-rule:nonzero;stroke:none"
         id="path34" />
      <path
         d="m 6484.71,1136.14 c -48,33.03 -115.15,57.25 -166.63,63.35 -83.29,-3.09 -135.87,-57.13 -174.28,-117.61 35.91,60.51 114.07,42.6 193.49,9.96 68.15,-28.78 154.67,-100.008 194.62,-63.51 29.02,34.09 0.78,74.79 -47.2,107.81"
         style="fill:#2a3c9a;fill-opacity:1;fill-rule:nonzero;stroke:none"
         id="path36" />
      <path
         d="m 6783,1237.29 c -59.13,-25.55 -95.54,-92.31 -95.48,-148.82 0.07,-56.51 36.94,-120.919 105.07,-83.55 44.95,24.66 20.26,63.72 51.93,115.27 31.66,51.54 73.73,94.33 104.48,57.24 -43.41,65.85 -98.83,84.55 -166,59.86"
         style="fill:#2a3c9a;fill-opacity:1;fill-rule:nonzero;stroke:none"
         id="path38" />
      <path
         d="m 6464.35,841.91 c -93.94,27.52 -224.84,6.039 -267.82,-105.101 62.89,36.812 89.87,4.089 163.52,-40.2 89.08,-53.57 180,-78.121 210.57,15.852 13.7,42.141 -53.12,113.879 -106.27,129.449"
         style="fill:#2a3c9a;fill-opacity:1;fill-rule:nonzero;stroke:none"
         id="path40" />
      <path
         d="m 6797.17,643.711 c 51.18,-52.43 121.37,-29.332 164.06,4.199 42.68,33.539 59.06,181.281 59.06,181.281 0,0 -113.59,-56.371 -186.23,-69.902 -48.66,-15.328 -85.16,-66.148 -36.89,-115.578"
         style="fill:#2a3c9a;fill-opacity:1;fill-rule:nonzero;stroke:none"
         id="path42" />
      <path
         d="m 6755.05,535.988 c 0,0 -31.97,56.543 -32.9,105.481 -2.35,123.031 -17.46,442.521 126,559.871 -149.17,-78.19 -119.82,-285.641 -146.28,-438.488 -13.58,199.539 -218.81,656.978 78.5,734.468 -149.48,-8.99 -185.95,-169.26 -170.53,-313.81 -67.17,157.53 -179.91,352.37 -324.33,451.4 150.09,-129.46 268.87,-378.23 333.36,-555.15 -86.82,161.17 -310.38,351.06 -477.5,332.85 -1.41,-0.16 -2.15,-1.78 -0.72,-1.88 289.9,-13.29 533.23,-350 542.83,-637.921 -50.07,65.742 -142.9,395.971 -384.76,385.911 245.11,-14.12 396.79,-412.118 415.78,-632.161 -65.34,105.23 -170.9,219.82 -274.72,258.41 -38.92,14.472 -86.75,24.871 -126.43,17.453 287.95,-44.563 438.62,-364.211 430.85,-495.891 l 32.5,8.379 c 0,0 -66.65,356.078 155.23,420.262 -144.38,-27.934 -176.88,-199.184 -176.88,-199.184"
         style="fill:#100f0d;fill-opacity:1;fill-rule:nonzero;stroke:none"
         id="path44" />
      <path
         d="m 7006.17,449.23 h -374.3 c -13.66,0 -23.79,-12.699 -20.76,-26.019 l 13.87,-60.93 c 2.21,-9.691 10.82,-16.57 20.76,-16.57 h 346.56 c 9.93,0 18.56,6.879 20.75,16.57 l 13.87,60.93 c 3.04,13.32 -7.09,26.019 -20.75,26.019"
         style="fill:#f03a88;fill-opacity:1;fill-rule:nonzero;stroke:none"
         id="path46" />
      <path
         d="m 6680.96,136.789 c 2.05,-14.16 14.19,-24.68 28.51,-24.68 h 219.1 c 14.32,0 26.46,10.52 28.5,24.68 l 30.14,208.922 h -336.37 l 30.12,-208.922"
         style="fill:#f03a88;fill-opacity:1;fill-rule:nonzero;stroke:none"
         id="path48" />
      <path
         d="m 1857.41,1610.25 397.7,-1498.141 h 37.44 L 1894.84,1610.25 h -37.43"
         style="fill:#100f0d;fill-opacity:1;fill-rule:nonzero;stroke:none"
         id="path50" />
      <path
         d="m 2339.92,1610.25 397.7,-1498.141 h 37.44 l -397.7,1498.141 h -37.44"
         style="fill:#100f0d;fill-opacity:1;fill-rule:nonzero;stroke:none"
         id="path52" />
      <path
         d="m 1934.76,1404.79 4.83,-30.72 h 477.89 l -4.83,30.72 h -477.89"
         style="fill:#100f0d;fill-opacity:1;fill-rule:nonzero;stroke:none"
         id="path54" />
      <path
         d="m 2002.68,1147.98 4.83,-30.72 h 477.89 l -4.83,30.72 h -477.89"
         style="fill:#100f0d;fill-opacity:1;fill-rule:nonzero;stroke:none"
         id="path56" />
      <path
         d="m 2070.6,891.172 4.83,-30.711 h 477.89 l -4.83,30.711 H 2070.6"
         style="fill:#100f0d;fill-opacity:1;fill-rule:nonzero;stroke:none"
         id="path58" />
      <path
         d="m 2138.52,634.371 4.84,-30.73 h 477.88 l -4.83,30.73 h -477.89"
         style="fill:#100f0d;fill-opacity:1;fill-rule:nonzero;stroke:none"
         id="path60" />
      <path
         d="m 2206.45,377.559 4.83,-30.707 h 477.88 l -4.83,30.707 h -477.88"
         style="fill:#100f0d;fill-opacity:1;fill-rule:nonzero;stroke:none"
         id="path62" />
      <path
         d="m 1085.9,112.109 h 37.44 L 1521.03,1610.25 H 1483.6 L 1085.9,112.109"
         style="fill:#5669bb;fill-opacity:1;fill-rule:nonzero;stroke:none"
         id="path64" />
      <path
         d="m 1568.42,112.109 h 37.44 l 397.69,1498.141 h -37.44 L 1568.42,112.109"
         style="fill:#5669bb;fill-opacity:1;fill-rule:nonzero;stroke:none"
         id="path66" />
      <path
         d="m 1166.14,329.379 h 477.88 l 4.83,30.711 h -477.89 l -4.82,-30.711"
         style="fill:#5669bb;fill-opacity:1;fill-rule:nonzero;stroke:none"
         id="path68" />
      <path
         d="m 1234.06,586.18 h 477.89 l 4.83,30.73 h -477.9 l -4.82,-30.73"
         style="fill:#5669bb;fill-opacity:1;fill-rule:nonzero;stroke:none"
         id="path70" />
      <path
         d="m 1301.98,843 h 477.88 l 4.84,30.699 H 1306.8 L 1301.98,843"
         style="fill:#5669bb;fill-opacity:1;fill-rule:nonzero;stroke:none"
         id="path72" />
      <path
         d="m 1369.9,1099.8 h 477.89 l 4.83,30.72 h -477.9 l -4.82,-30.72"
         style="fill:#5669bb;fill-opacity:1;fill-rule:nonzero;stroke:none"
         id="path74" />
      <path
         d="m 1437.83,1356.6 h 477.89 l 4.82,30.73 h -477.89 l -4.82,-30.73"
         style="fill:#5669bb;fill-opacity:1;fill-rule:nonzero;stroke:none"
         id="path76" />
      <path
         d="m 2041.76,1610.25 h 443.64 v 76.66 h -443.64 v -76.66"
         style="fill:#100f0d;fill-opacity:1;fill-rule:nonzero;stroke:none"
         id="path78" />
      <path
         d="m 1338.86,1610.25 h 702.9 v 76.66 h -702.9 v -76.66"
         style="fill:#5669bb;fill-opacity:1;fill-rule:nonzero;stroke:none"
         id="path80" />
      <path
         d="m 2482.09,2760.4 c -6.04,1.05 -14.64,3.06 -20.24,5.55 -29.3,13.03 3.48,47.13 11.46,64.35 18.45,39.87 5.97,80.06 -27.23,109.67 -32.34,28.85 -66.14,31.88 -87.25,72.76 -31.54,61.05 14.17,100.82 -23.17,160.33 -16.41,26.17 -53.4,26.01 -76.45,39.55 -14.42,8.46 -23.07,31.32 -34.08,43.82 -39.73,45.13 -113.36,48.23 -165.73,25.76 -33.46,-14.37 -48.95,-58.92 -88.82,-59.15 -25.77,-0.14 -57.58,-7.07 -66.77,-34.78 -7.07,-21.31 4.96,-41.06 4.13,-62.29 -0.79,-20.24 -8.47,-39.88 -21.99,-55.03 -20.54,-23.01 -51.7,-26.98 -67.03,-55.89 -8,-15.12 -11.4,-32.34 -12.08,-49.44 -1.16,-29.64 5.85,-59.48 19.8,-85.64 13.22,-24.76 32.21,-45.9 42.83,-72.22 16.26,-40.26 -14.76,-82.35 -15.23,-123.23 -1.92,-167.48 120.01,-287 257.09,-336.39 92.42,-33.31 245.87,-10.05 337.6,26.68 114.51,45.85 235.99,157.21 170.39,290.16 -25.67,52.01 -81.22,85.71 -137.23,95.43"
         style="fill:#100f0d;fill-opacity:1;fill-rule:nonzero;stroke:none"
         id="path82" />
      <path
         d="m 2333.12,2026.98 c -99.38,21.2 -684.69,-72.09 -923.44,-153.97 -101.58,-34.83 -75.83,-164.93 22.77,-188.78 263.39,-63.73 584.53,-26.25 802.83,21.37 191.75,41.83 205.13,298.5 97.84,321.38"
         style="fill:#2a3c9a;fill-opacity:1;fill-rule:nonzero;stroke:none"
         id="path84" />
      <path
         d="m 1552.74,899.648 -63.84,-3.406 c 0,0 -0.17,-23.933 -3.08,-36.551 -5.61,-24.332 -104.87,-60.589 -95.53,-88 4.41,-12.929 40.53,-10.421 64.81,-2.152 22.53,7.68 64.98,21.883 78.69,26.801 17.49,6.281 49.31,11.32 53.6,20.14 11.12,22.852 -17.8,37.43 -23.51,54.2 -4.93,14.468 -11.14,28.968 -11.14,28.968"
         style="fill:#100f0d;fill-opacity:1;fill-rule:nonzero;stroke:none"
         id="path86" />
      <path
         d="m 1486.23,898.059 c 0,0 3.4,-19.258 -0.41,-38.368 0,0 -4.08,-8.449 9.74,-11.871 11.33,-2.789 68.32,22.86 68.32,22.86 -4.68,14.562 -14.69,43.16 -14.69,43.16 l -62.96,-15.781"
         style="fill:#f03a88;fill-opacity:1;fill-rule:nonzero;stroke:none"
         id="path88" />
      <path
         d="m 2387.86,2111.4 c -101.61,-0.02 -654.54,-213.5 -870.93,-343.43 -92.05,-55.28 -38.94,-154.99 62.46,-157.72 270.89,-7.32 579.05,22.03 795.7,76.66 214.92,54.19 122.48,424.53 12.77,424.49"
         style="fill:#3c4faa;fill-opacity:1;fill-rule:nonzero;stroke:none"
         id="path90" />
      <path
         d="m 1462.58,1656.28 c 10.27,-442.46 17.96,-771.819 17.96,-771.819 21.12,-14.082 57.64,-14.422 87.58,-9.621 0,0 64.18,337.75 124.22,722.45 39.59,253.66 -233.96,239.48 -229.76,58.99"
         style="fill:#3c4faa;fill-opacity:1;fill-rule:nonzero;stroke:none"
         id="path92" />
      <path
         d="m 1403.75,2107.02 c -6.37,2.09 -12.76,6.17 -14.4,-2.72 -1.55,-5.64 21.16,-17.41 26.95,-17.1 13.66,4.96 10.7,12.93 24.19,15.73 -12.07,-0.73 -24.96,1.1 -36.74,4.09"
         style="fill:#f03a88;fill-opacity:1;fill-rule:nonzero;stroke:none"
         id="path94" />
      <path
         d="m 1409.47,2093.35 c -16.2,-5.72 -50.94,-22.55 -53.36,-23.74 -6.87,-3.82 -25.31,-11.16 -29.63,-15.61 -2.76,-2.84 -7.05,-13.65 -6.29,-18.46 1.01,-6.39 8.07,-7.48 8.07,-7.48 -0.35,-8.4 20.51,-5.25 19.97,-7.27 -2.22,-8.3 8.47,-13.86 35.34,-0.02 1.62,0.82 74.37,21.74 97.05,30.33 -4.15,14.4 -29.19,54.28 -29.96,54.18 -13.46,-2.81 -27.52,-6.97 -41.19,-11.93"
         style="fill:#f03a88;fill-opacity:1;fill-rule:nonzero;stroke:none"
         id="path96" />
      <path
         d="m 1919.92,2703.96 c -32.72,-59.24 -85.18,-271.21 -129.71,-367.87 -54.61,-118.58 47.61,-114.34 75.74,-83.78 74.08,80.49 239.05,336.55 201.3,379.27 -16.36,18.52 -141.4,83.12 -147.33,72.38"
         style="fill:#f03a88;fill-opacity:1;fill-rule:nonzero;stroke:none"
         id="path98" />
      <path
         d="m 1819.67,2327.63 c -5.16,-0.72 -9.76,-2.12 -13.33,-3.91 -65.42,-32.76 -286.47,-196.09 -360.06,-219.39 12.41,-21.84 21.29,-40.86 25.18,-56.36 120.28,40.74 408.28,175.96 406.2,226.65 -1.89,46.45 -35.24,56.23 -57.99,53.01"
         style="fill:#f03a88;fill-opacity:1;fill-rule:nonzero;stroke:none"
         id="path100" />
      <path
         d="m 1919.9,2716.18 c -5.65,-0.88 -10.35,-4.1 -12.87,-8.82 -16.21,-30.38 -36.29,-97.69 -57.52,-168.95 -21.39,-71.63 -43.48,-145.7 -64.11,-192.29 -3.57,-8.03 -6.5,-15.72 -8.92,-23.31 -25.94,-16.47 -60.07,-39.85 -96.08,-64.52 -78.63,-53.88 -176.5,-120.95 -217.88,-134.71 l 35.04,-82.75 c 102.59,36.41 333.69,146.43 388.37,209.7 57.65,64.87 240.69,335.56 189.86,391.42 -17.04,18.69 -131.12,78.11 -155.89,74.23"
         style="fill:#dee4f5;fill-opacity:1;fill-rule:nonzero;stroke:none"
         id="path102" />
      <path
         d="m 1921.6,2075.68 -67.97,-97.25 c 0,0 58.56,-59.08 111.37,-55.18 l 22.54,46.52 6.22,-56.67 c 271.54,-84.2 514.73,16.68 514.73,16.68 10.62,87.4 -7.7,227.89 -7.7,227.89 l -579.19,-81.99"
         style="fill:#f03a88;fill-opacity:1;fill-rule:nonzero;stroke:none"
         id="path104" />
      <path
         d="m 2051.13,2906.02 c 0.64,-6.54 11.55,-94.29 -6.25,-112.1 8.96,-34.18 104.92,-28.43 127.35,32.03 -12.15,15.98 -31.73,102.19 -37.97,135.12 -7.58,-6.42 -56.99,-45.78 -83.13,-55.05"
         style="fill:#f03a88;fill-opacity:1;fill-rule:nonzero;stroke:none"
         id="path106" />
      <path
         d="m 2271.34,2809.66 c -24.94,4.21 -99.11,19.24 -99.11,19.24 0,0 -41.72,-47.01 -84.86,-47.01 -23.53,0 -42.49,14.39 -42.49,14.39 0,0 -82.44,-31.35 -97.15,-41.29 -57,-38.51 -65.43,-98.08 -54.18,-145.23 39.22,-164.36 -22.53,-553.56 28.36,-573.64 69.44,-27.39 481.98,-113.85 601.6,-1.76 0,0 -61.35,478.87 -117.33,637.65 -21.39,60.68 -60.04,125.03 -134.84,137.65"
         style="fill:#dee4f5;fill-opacity:1;fill-rule:nonzero;stroke:none"
         id="path108" />
      <path
         d="m 2045.14,3081.2 c -43.68,-0.02 -77.56,-19.98 -84.37,-61.72 -2.45,-14.94 20.15,-164.68 84.11,-164.68 31.2,0 94.37,56.68 91.45,90.84 0,0 -3.82,28.42 -5.84,43.36 -6.22,46.07 -38.42,92.2 -85.35,92.2"
         style="fill:#f03a88;fill-opacity:1;fill-rule:nonzero;stroke:none"
         id="path110" />
      <path
         d="m 1262.8,1008.91 -62.83,11.79 c 0,0 -5.84,-23.2 -11.65,-34.77 -11.21,-22.309 -116.23,-34.039 -113.64,-62.879 1.22,-13.621 36.9,-19.731 62.46,-17.43 23.7,2.109 68.31,5.871 82.79,7.399 18.48,1.96 50.6,-0.668 56.85,6.871 16.21,19.57 -8.44,40.589 -10.01,58.23 -1.37,15.231 -3.97,30.789 -3.97,30.789"
         style="fill:#100f0d;fill-opacity:1;fill-rule:nonzero;stroke:none"
         id="path112" />
      <path
         d="m 1197.8,1023.11 c 0,0 -1.26,-19.52 -9.48,-37.18 0,0 -5.96,-7.25 6.66,-13.84 10.34,-5.399 71.79,6.031 71.79,6.031 -1.11,15.25 -4.07,45.429 -4.07,45.429 l -64.9,-0.44"
         style="fill:#f03a88;fill-opacity:1;fill-rule:nonzero;stroke:none"
         id="path114" />
      <path
         d="m 1333.18,1775.36 c -82.35,-434.84 -143.61,-758.55 -143.61,-758.55 17.71,-18.189 58.63,-26.4 88.63,-15.78 0,0 128.32,304.98 267.36,668.65 91.7,239.8 -178.78,283.07 -212.38,105.68"
         style="fill:#2a3c9a;fill-opacity:1;fill-rule:nonzero;stroke:none"
         id="path116" />
      <path
         d="m 1687.82,1907.22 c 0,-0.02 -0.01,-0.06 -0.01,-0.1 0,-9.51 7.79,-17.29 17.31,-17.29 h 407.1 c 9.53,0 17.31,7.78 17.31,17.29 0,0.04 -0.01,0.08 -0.01,0.1 h -441.7"
         style="fill:#100f0d;fill-opacity:1;fill-rule:nonzero;stroke:none"
         id="path118" />
      <path
         d="m 1643.87,2266.18 c -3.85,14 -16.74,23.57 -31.25,23.21 l -249.78,0.09 v -395.32 l 344.93,-4.33 c 21.12,0 22.36,16.31 20.96,21.98 l -84.86,354.37"
         style="fill:#100f0d;fill-opacity:1;fill-rule:nonzero;stroke:none"
         id="path120" />
      <path
         d="m 1625.92,2282.12 c -1.22,4.39 -5.22,7.44 -9.78,7.44 h -440.93 c -6.72,0 -11.58,-6.39 -9.78,-12.86 l 82.69,-350.18 c 6.01,-21.68 25.75,-36.69 48.25,-36.69 h 410.58 c 6.7,0 11.57,6.39 9.78,12.86 l -90.81,379.43"
         style="fill:#3c4faa;fill-opacity:1;fill-rule:nonzero;stroke:none"
         id="path122" />
      <path
         d="m 2296.09,2682.41 c -32.45,-82.91 -92.21,-151.36 -137.67,-232.81 -63.19,-113.16 -131.28,-278.71 -233.66,-356.72 110.43,21.06 218.25,57.87 267.91,105.11 71.35,67.83 228.89,346.84 117.29,456.59 -6.43,8.63 -10.99,17.93 -13.87,27.83"
         style="fill:#939fd8;fill-opacity:1;fill-rule:nonzero;stroke:none"
         id="path124" />
      <path
         d="m 1700.56,2082.51 c -6.47,1.78 -13.03,5.55 -14.25,-3.42 -1.27,-5.7 21.97,-16.37 27.73,-15.78 13.42,5.61 10.08,13.44 23.4,16.88 -12.01,-1.31 -24.96,-0.1 -36.88,2.32"
         style="fill:#f03a88;fill-opacity:1;fill-rule:nonzero;stroke:none"
         id="path126" />
      <path
         d="m 1747.5,2083.03 c -13.32,-3.46 -27.16,-8.29 -40.57,-13.9 -15.91,-6.5 -49.78,-24.98 -52.16,-26.29 -6.68,-4.15 -24.74,-12.37 -28.84,-17.02 -2.62,-2.96 -6.38,-13.97 -5.39,-18.74 1.31,-6.33 8.42,-7.09 8.42,-7.09 0.05,-8.4 20.74,-4.25 20.3,-6.29 -1.82,-8.4 9.12,-13.43 35.31,1.68 1.56,0.9 73.22,25.3 95.47,34.98 -4.85,14.17 -31.77,52.8 -32.54,52.67"
         style="fill:#f03a88;fill-opacity:1;fill-rule:nonzero;stroke:none"
         id="path128" />
      <path
         d="m 2187.38,2703.61 c -29.82,-60.74 -72.01,-275.01 -111.84,-373.7 -48.83,-121.07 53.06,-111.91 79.68,-80.03 70.12,83.98 222.57,347.68 182.81,388.53 -17.24,17.71 -145.25,76.2 -150.65,65.2"
         style="fill:#f03a88;fill-opacity:1;fill-rule:nonzero;stroke:none"
         id="path130" />
      <path
         d="m 2105.37,2322.89 c -5.11,-0.97 -9.64,-2.59 -13.13,-4.54 -63.77,-35.88 -276.69,-209.68 -349.08,-236.48 13.46,-21.22 23.24,-39.79 27.87,-55.08 118.18,46.48 399.35,195.41 394.82,245.95 -4.12,46.29 -37.91,54.46 -60.48,50.15"
         style="fill:#f03a88;fill-opacity:1;fill-rule:nonzero;stroke:none"
         id="path132" />
      <path
         d="m 2193.82,2717.16 c -5.6,-1.15 -10.14,-4.59 -12.44,-9.43 -14.71,-31.13 -85.71,-319.15 -104.08,-366.66 -3.17,-8.21 -5.74,-16.03 -7.79,-23.73 -25.12,-17.7 -58.08,-42.7 -92.86,-69.08 -75.95,-57.6 -170.47,-129.3 -211.13,-145.05 l 38.97,-80.95 c 100.72,41.31 326.26,162.32 377.82,228.15 54.47,67.57 224.25,346.76 170.79,400.11 -17.92,17.85 -134.72,71.7 -159.28,66.64"
         style="fill:#dee4f5;fill-opacity:1;fill-rule:nonzero;stroke:none"
         id="path134" />
      <path
         d="m 729.754,738.199 c -37.805,15.02 -71.414,-18.207 -90.402,-50.668 -14.61,-25 -26.582,-52.359 -51.969,-68.929 -9.66,-6.313 -21.02,-10.18 -32.59,-9.883 -42.531,1.113 -54.23,48.703 -40.418,81.429 11.559,27.442 35.457,47.442 56.598,68.532 55.5,55.34 96.449,124.879 117.777,199.98 13.465,47.41 18.316,102.13 -18.125,140.43 -18.945,19.92 -48.203,28.32 -73.789,18.1 -31.43,-12.56 -37.356,-42.89 -42.324,-70.79 -4.153,-23.3 -9.328,-48.298 -29.496,-62.759 -12.95,-9.27 -30.828,-10.692 -42.957,-0.379 -12.215,10.379 -10.782,25.948 -9.93,40.148 5.332,88.71 -26.008,179.1 -85.266,245.9 -32.351,36.46 -87.851,67.32 -127.605,34.28 -10.219,-8.49 -17.285,-20.24 -21.137,-32.89 -9.234,-30.4 -2.242,-60.85 4.688,-90.57 l 37.941,-162.6 c 3.613,-15.47 -13.887,-27.221 -27.062,-18.171 l -113.321,77.761 c -10.508,7.23 -22.676,12.13 -35.437,12.92 -41.848,2.59 -53.762,-33.4 -54.2503,-64.19 -1.0938,-67.791 35.1953,-131.87 83.4613,-179.998 48.281,-48.11 108.062,-82.942 166.355,-118.52 18.113,-11.07 37.078,-23.184 43.563,-44.492 3.683,-12.121 1.156,-25.871 -8.457,-34.199 -16.2,-14.02 -38.922,-4.332 -55.743,6.738 -52.07,34.32 -95.41,82.703 -158.796,97.191 -22.5122,5.141 -46.3599,4.219 -67.7271,-4.429 -66.5625,-26.95 -63.09371,-97.95 -31.5625,-143.5 33.2344,-48.012 82.8316,-79.532 129.8746,-112.731 94.485,-66.719 225.848,-187.129 352.696,-148.988 74.289,22.258 139.543,78.629 186.679,138.168 34.754,43.879 59.856,94.91 71.973,149.449 6.024,27.57 8.867,56.973 -5.723,82.891 -6.171,10.98 -15.753,20.101 -27.519,24.769"
         style="fill:#2a3c9a;fill-opacity:1;fill-rule:nonzero;stroke:none"
         id="path136" />
      <path
         d="m 372.742,1081.85 c -1.797,-0.35 -2.98,-2.09 -2.629,-3.89 56.817,-295.741 73.801,-598.651 50.481,-900.312 -0.149,-1.816 1.219,-3.41 3.047,-3.546 0.086,-0.012 0.175,-0.012 0.261,-0.012 1.711,0 3.157,1.308 3.293,3.058 23.368,302.25 6.348,605.75 -50.578,902.062 -0.351,1.8 -2.09,2.97 -3.875,2.64"
         style="fill:#5669bb;fill-opacity:1;fill-rule:nonzero;stroke:none"
         id="path138" />
      <path
         d="m 623.379,1023.58 c -1.699,0.65 -3.617,-0.2 -4.281,-1.91 -14.383,-37.588 -30.68,-80.19 -54.801,-116.92 -18.379,-28.012 -49.914,-65.051 -95.793,-82.43 -57,-21.629 -130.535,-8.019 -191.914,35.489 -56.184,39.839 -97,96.39 -136.485,151.081 -1.066,1.48 -3.132,1.82 -4.621,0.75 -1.48,-1.07 -1.812,-3.14 -0.742,-4.63 39.785,-55.119 80.938,-112.131 138.02,-152.6 43.191,-30.621 92.375,-46.808 138.015,-46.808 21.094,0 41.418,3.437 60.078,10.519 47.532,18.027 80.063,56.18 98.989,84.988 24.492,37.34 40.933,80.289 55.437,118.201 0.653,1.7 -0.207,3.61 -1.902,4.27"
         style="fill:#5669bb;fill-opacity:1;fill-rule:nonzero;stroke:none"
         id="path140" />
      <path
         d="M 670.586,613.859 C 639.473,558.461 588.965,481.77 509.859,455.352 442.344,432.809 359.676,450.27 288.711,502.02 l -13.574,9.89 C 214.996,555.68 158.18,597 98.668,658.09 c -1.2774,1.32 -3.3789,1.34 -4.6875,0.07 -1.3086,-1.281 -1.3282,-3.379 -0.0586,-4.691 C 153.824,591.98 210.855,550.48 271.246,506.551 l 13.574,-9.879 c 51.684,-37.692 109.551,-57.59 163.672,-57.59 21.992,0 43.371,3.289 63.457,9.988 81.289,27.129 132.754,105.192 164.406,161.539 0.887,1.59 0.325,3.61 -1.269,4.5 -1.582,0.911 -3.613,0.332 -4.5,-1.25"
         style="fill:#5669bb;fill-opacity:1;fill-rule:nonzero;stroke:none"
         id="path142" />
      <path
         d="m 803.816,698.191 c -7.453,2.411 -15.476,2.309 -23.093,0.508 l -82.035,-19.367 c -9.54,-2.262 -16.852,8.418 -11.305,16.5 l 58.23,85.008 c 10.637,15.531 21.485,31.492 23.075,51.031 0.664,8.129 -0.719,16.469 -4.629,23.641 -15.196,27.886 -53.75,22.547 -80.379,8.82 -48.789,-25.16 -86.992,-70.113 -103.946,-122.32 -2.714,-8.352 -5.398,-17.621 -14.699,-20.871 -9.234,-3.2 -19.09,1.609 -24.375,9.828 -8.222,12.832 -5.535,28.371 -2.652,42.691 3.457,17.149 1.715,42.149 -8.149,50.172 -9.019,7.328 -35.254,10.309 -46.093,6.098 -20.371,-7.918 -38.946,-46.418 -41.961,-76.7 -4.778,-47.949 2.879,-97.089 22,-141.32 7.297,-16.859 16.386,-33.719 16.797,-52.07 0.492,-21.91 -16.903,-46.66 -41.368,-37.789 -6.66,2.41 -12.246,7.179 -16.328,12.969 -10.722,15.21 -11.367,33.621 -14.058,51.261 -3.5,22.91 -15.137,49.539 -40.051,49.367 -7.754,-0.058 -15.266,-3.168 -21.25,-8.097 -14.152,-11.641 -19.152,-29.18 -21.934,-46.391 -5.39,-34.058 -2.59,-69.019 7.305,-102.031 13.43,-44.77 37.883,-91.777 75.168,-121.199 63.621,-50.301 163.902,-25.84 232.73,-8.621 34.27,8.582 71.25,31 100.989,51.171 28.211,19.141 46.191,59.2 14.367,89.579 -10.227,9.761 -23.598,15.621 -37.57,17.691 -39.368,5.852 -74.93,-12.27 -112.317,-20.359 -12.066,-2.61 -27.187,-3.102 -33.25,8.597 -3.594,6.934 -1.941,15.41 2.891,21.543 8.484,10.809 22.019,13.539 34.824,15.84 41.211,7.418 83.098,14.078 121.418,30.938 38.328,16.882 73.426,45.613 88.074,84.839 6.66,17.813 7.988,41.172 -16.426,49.043"
         style="fill:#2a3c9a;fill-opacity:1;fill-rule:nonzero;stroke:none"
         id="path144" />
      <path
         d="m 650.633,755.211 c -1.961,1.211 -4.551,0.641 -5.789,-1.32 -99.281,-157.821 -177.422,-328.7 -232.27,-507.903 -0.672,-2.207 0.567,-4.558 2.793,-5.238 0.227,-0.07 0.449,-0.109 0.676,-0.148 2.004,-0.262 3.953,0.949 4.559,2.937 54.628,178.481 132.461,348.68 231.347,505.891 1.231,1.949 0.649,4.55 -1.316,5.781"
         style="fill:#5669bb;fill-opacity:1;fill-rule:nonzero;stroke:none"
         id="path146" />
      <path
         d="m 764.313,661.211 c -34.657,-22.531 -70.489,-45.82 -111.102,-56.063 -44.031,-11.117 -88.211,-2.687 -115.266,22 -21.757,19.864 -31.211,47.762 -35.3,67.672 -5.403,26.309 -5.09,54.321 -4.817,79.039 0.031,2.313 -1.816,4.282 -4.148,4.243 -2.317,0.019 -4.219,-1.84 -4.25,-4.153 -0.274,-25.129 -0.594,-53.629 5,-80.808 4.336,-21.141 14.425,-50.801 37.863,-72.192 16.426,-14.988 38.562,-24.437 63.152,-27.719 19.004,-2.539 39.453,-1.359 59.825,3.77 41.953,10.59 78.378,34.27 113.617,57.172 1.941,1.258 2.5,3.867 1.226,5.797 -1.25,1.941 -3.855,2.48 -5.8,1.242"
         style="fill:#5669bb;fill-opacity:1;fill-rule:nonzero;stroke:none"
         id="path148" />
      <path
         d="m 709.148,450.371 c -47.511,-21.75 -89.101,-32.781 -133.136,-44.48 l -9.879,-2.629 c -51.391,-13.711 -101.66,-5.403 -134.465,22.199 -38.516,32.391 -49.863,87.269 -55.051,125.711 -0.301,2.297 -2.398,3.879 -4.715,3.609 -2.297,-0.32 -3.918,-2.429 -3.601,-4.73 5.371,-39.832 17.222,-96.75 57.965,-131.02 18.73,-15.761 42.714,-25.621 69.269,-29.16 22.899,-3.062 47.727,-1.383 72.742,5.289 l 9.883,2.621 c 44.395,11.789 86.328,22.91 134.485,44.969 2.097,0.949 3.035,3.441 2.07,5.559 -0.965,2.089 -3.457,3.05 -5.567,2.062"
         style="fill:#5669bb;fill-opacity:1;fill-rule:nonzero;stroke:none"
         id="path150" />
      <path
         d="m 478.379,491.781 c -3.664,2.43 -8.09,3.75 -12.465,3.328 -14.078,-1.347 -19.101,-17.058 -19.742,-30.211 -0.492,-10.109 0.215,-20.546 -4.945,-29.75 -1.969,-3.519 -4.852,-6.527 -8.473,-8.277 -13.293,-6.441 -24.555,6.52 -25.551,18.918 -0.84,10.391 3.313,20.43 6.445,30.383 8.223,26.09 9.68,54.289 4.192,81.09 -3.469,16.91 -10.774,34.726 -28.164,40.859 -9.043,3.18 -19.422,1.129 -25.672,-6.141 -7.68,-8.921 -4.633,-19.308 -1.684,-28.8 2.473,-7.91 4.895,-16.532 0.996,-24.25 -2.5,-4.95 -7.793,-8.25 -13.191,-6.969 -5.441,1.277 -7.488,6.359 -9.512,10.918 -12.617,28.492 -36.808,51.652 -65.82,63.012 -15.84,6.211 -37.922,6.961 -44.871,-9.672 -1.789,-4.27 -2.082,-9.059 -1.234,-13.61 2.035,-10.937 9.082,-19.32 15.996,-27.48 l 37.832,-44.59 c 3.617,-4.25 0.097,-10.699 -5.418,-9.98 l -47.453,6.152 c -4.403,0.578 -8.946,0.16 -13.004,-1.621 -13.332,-5.871 -11.211,-18.988 -6.426,-28.649 10.562,-21.312 32.051,-35.48 54.676,-42.781 22.625,-7.281 46.66,-8.601 70.363,-10.398 7.359,-0.551 15.164,-1.301 20.586,-6.903 3.086,-3.187 4.508,-7.89 2.887,-12 -2.743,-6.968 -11.305,-7.57 -18.282,-6.789 -21.57,2.379 -42.715,10.551 -64.597,4.942 -7.762,-1.981 -14.969,-6.071 -20.176,-12.172 -16.199,-19.008 -3.723,-40.578 13.332,-49.738 17.957,-9.661 38.316,-11.571 58.172,-14.422 39.875,-5.711 99.734,-22.282 132.734,9.832 19.336,18.789 30.399,46.758 35.379,72.82 3.664,19.207 3.203,39.109 -1.816,58.039 -2.578,9.551 -6.422,19.16 -15.094,24.91"
         style="fill:#100f0d;fill-opacity:1;fill-rule:nonzero;stroke:none"
         id="path152" />
      <path
         d="m 303.965,546.43 c -1.172,1.48 -3.313,1.75 -4.785,0.57 -1.489,-1.148 -1.742,-3.301 -0.586,-4.781 64.937,-82.93 118.765,-174.418 159.961,-271.938 0.562,-1.312 1.851,-2.101 3.203,-2.07 0.426,0 0.847,0.09 1.265,0.258 1.739,0.742 2.54,2.73 1.821,4.472 -41.449,98.071 -95.571,190.079 -160.879,273.489"
         style="fill:#5669bb;fill-opacity:1;fill-rule:nonzero;stroke:none"
         id="path154" />
      <path
         d="m 386.98,569.289 c -1.867,-0.219 -3.214,-1.91 -3,-3.777 1.594,-13.891 3.403,-29.641 1.887,-44.68 -1.133,-11.332 -4.785,-27.402 -15.742,-39.691 -13.605,-15.27 -37.703,-22.493 -62.883,-18.801 -23.347,3.39 -44.859,14.41 -65.672,25.07 -1.672,0.86 -3.742,0.199 -4.582,-1.48 -0.867,-1.668 -0.203,-3.731 1.477,-4.59 21.301,-10.91 43.332,-22.192 67.801,-25.75 5.375,-0.781 10.664,-1.129 15.824,-1.031 21.558,0.363 40.738,8.16 53.125,22.043 12.176,13.66 16.199,31.218 17.437,43.546 1.582,15.774 -0.269,31.903 -1.89,46.141 -0.215,1.871 -1.946,3.16 -3.782,3"
         style="fill:#5669bb;fill-opacity:1;fill-rule:nonzero;stroke:none"
         id="path156" />
      <path
         d="m 468.902,450.281 c -1.824,0.117 -3.457,-1.402 -3.515,-3.293 -0.684,-21.84 -3.856,-53.226 -23.465,-73.519 -16.692,-17.25 -44.246,-24.739 -73.731,-20.047 l -5.808,0.918 c -25.473,4.031 -49.543,7.82 -77.524,17.301 -1.796,0.578 -3.726,-0.352 -4.324,-2.141 -0.605,-1.77 0.36,-3.711 2.141,-4.309 28.523,-9.66 52.871,-13.519 78.648,-17.582 l 5.805,-0.918 c 6.766,-1.07 13.445,-1.562 19.937,-1.441 23.926,0.41 45.422,8.672 59.758,23.492 21.25,21.969 24.656,55.067 25.379,78.039 0.059,1.879 -1.426,3.461 -3.301,3.5"
         style="fill:#5669bb;fill-opacity:1;fill-rule:nonzero;stroke:none"
         id="path158" />
      <path
         d="M 573.609,331.5 H 330.035 c -8.894,0 -15.484,-8.27 -13.515,-16.941 l 9.027,-39.649 c 1.441,-6.308 7.051,-10.781 13.512,-10.781 H 564.59 c 6.465,0 12.066,4.473 13.512,10.781 l 9.027,39.649 c 1.969,8.671 -4.629,16.941 -13.52,16.941"
         style="fill:#f03a88;fill-opacity:1;fill-rule:nonzero;stroke:none"
         id="path160" />
      <path
         d="m 361.98,128.18 c 1.329,-9.219 9.231,-16.071 18.543,-16.071 h 142.602 c 9.313,0 17.203,6.852 18.531,16.071 l 19.61,135.949 H 342.383 L 361.98,128.18"
         style="fill:#f03a88;fill-opacity:1;fill-rule:nonzero;stroke:none"
         id="path162" />
      <path
         d="m 1579.53,474.422 c -101.91,-5.363 -180.26,-85.34 -180.19,-182.09 0.03,-48.973 19.94,-94.902 56,-129.32 35.63,-34.032 82.9,-52.742 133.1,-52.723 l 1860.31,0.711 -0.33,364.129 -1868.89,-0.707"
         style="fill:#939fd8;fill-opacity:1;fill-rule:nonzero;stroke:none"
         id="path164" />
      <path
         d="m 4697.85,147.262 c -85.1,-0.102 -154.11,65.867 -154.2,147.238 -0.07,73.699 56.55,134.789 130.45,145.699 l -1331.9,-0.648 c -81.15,-4.27 -145.43,-68.52 -145.35,-147.199 -0.03,-81.364 69.1,-147.34 154.2,-147.243 l 1351.2,0.582 v 1.579 l -4.4,-0.008"
         style="fill:#dee3f5;fill-opacity:1;fill-rule:evenodd;stroke:none"
         id="path166" />
      <path
         d="m 3351,179.898 c -32.15,-0.027 -62.32,11.864 -84.94,33.454 -22.19,21.187 -34.43,49.257 -34.46,79.007 -0.03,59.743 49.35,109.153 112.48,112.493 l 1419.92,0.679 -0.08,69.598 -1421.73,-0.707 c -101.92,-5.363 -180.28,-85.34 -180.2,-182.09 0.03,-48.973 19.93,-94.902 56,-129.32 35.63,-34.032 82.91,-52.742 133.09,-52.723 L 4764.26,111 4764.18,180.621 3351,179.898"
         style="fill:#100f0d;fill-opacity:1;fill-rule:nonzero;stroke:none"
         id="path168" />
      <path
         d="m 3701.62,0 60.33,52.4102 60.38,-50.73832 V 339.91 H 3701.62 V 0"
         style="fill:#f03a88;fill-opacity:1;fill-rule:evenodd;stroke:none"
         id="path170" />
      <path
         d="m 2882.2,292.719 87.55,-67.25 87.57,67.25 -87.57,67.242 -87.55,-67.242"
         style="fill:#3c4faa;fill-opacity:1;fill-rule:nonzero;stroke:none"
         id="path172" />
      <path
         d="m 6735.96,3494.57 h -3447 c -116.54,0 -213.74,-89.09 -223.86,-205.18 L 2873.17,1090.48 c -11.45,-131.332 92.05,-244.269 223.88,-244.269 h 3447 c 116.53,0 213.74,89.09 223.88,205.189 l 191.9,2198.91 c 11.47,131.32 -92.05,244.26 -223.87,244.26"
         style="fill:#100f0d;fill-opacity:1;fill-rule:nonzero;stroke:none"
         id="path174" />
      <path
         d="M 6646,3494.63 H 3197.28 c -116.05,0 -212.88,-88.91 -223.06,-204.5 L 2782.17,1089.45 c -2.05,-22.39 -0.69,-44.11 3.61,-64.69 20.81,-101.131 110.4,-178.498 219.43,-178.498 h 3448.73 c 116.05,0 212.87,88.687 223.05,204.278 l 192.07,2200.68 c 11.31,130.74 -91.85,243.41 -223.06,243.41"
         style="fill:#2a3c9a;fill-opacity:1;fill-rule:nonzero;stroke:none"
         id="path176" />
      <path
         d="M 6645.79,3360.62 H 3197.35 c -47.11,0 -85.72,-35.27 -89.84,-82.11 L 2915.47,1077.78 c -2.84,-34.23 13.39,-57.65 23.42,-68.47 10.04,-11.072 31.92,-29.08 66.17,-29.08 h 3448.7 c 47.11,0 85.72,35.27 89.83,82.12 l 192.04,2200.45 c 2.83,34.5 -13.39,57.66 -23.42,68.74 -10.04,10.8 -31.92,29.08 -66.42,29.08"
         style="fill:#5669bb;fill-opacity:1;fill-rule:nonzero;stroke:none"
         id="path178" />
      <path
         d="m 3990.32,179.059 c 0,-36.977 29.98,-66.95 66.95,-66.95 h 757.82 v 133.903 h -757.82 c -36.97,0 -66.95,-29.973 -66.95,-66.953"
         style="fill:#2a3c9a;fill-opacity:1;fill-rule:nonzero;stroke:none"
         id="path180" />
      <path
         d="m 5194.48,848.602 h -764.72 l -24.64,-254.93 c -3.74,-38.621 10,-76.902 37.44,-104.34 l 242.8,-243.32 h 741.31 l -241.95,291.527 9.76,311.063"
         style="fill:#2a3c9a;fill-opacity:1;fill-rule:nonzero;stroke:none"
         id="path182" />
      <path
         d="m 4418.96,736.859 h 772.01 l 3.51,111.743 h -764.72 l -10.8,-111.743"
         style="fill:#2a3c9a;fill-opacity:1;fill-rule:nonzero;stroke:none"
         id="path184" />
      <path
         d="m 5267.15,584.012 27.02,264.59 h -134.49 l -24.65,-254.93 c -3.73,-38.621 10,-76.902 37.44,-104.34 l 243.32,-243.32 h -628.6 c -36.98,0 -66.96,-29.961 -66.96,-66.953 0,-36.977 29.98,-66.95 66.96,-66.95 h 638.4 c 60.71,0 113.95,41.762 127.22,103.493 9.5,44.199 -7.32,90.078 -39.29,122.027 l -246.37,246.383"
         style="fill:#100f0d;fill-opacity:1;fill-rule:nonzero;stroke:none"
         id="path186" />
      <g
         id="g188">
        <g
           id="g190"
           clip-path="url(#clipPath194)">
          <path
             d="m 6552.07,1416.44 h -835.36 v -181.76 h 835.36 c 50.19,0 90.88,40.68 90.88,90.88 0,50.19 -40.69,90.88 -90.88,90.88"
             style="fill:#2a3c9a;fill-opacity:1;fill-rule:nonzero;stroke:none"
             id="path196" />
          <path
             d="m 5935.92,1416.44 h -498.05 v -37.76 h 498.06 c 29.34,0 53.13,-23.79 53.13,-53.12 0,-29.36 -23.79,-53.15 -53.13,-53.15 h -498.06 v -37.73 h 498.05 c 50.19,0 90.88,40.68 90.88,90.88 0,50.19 -40.69,90.88 -90.88,90.88"
             style="fill:#dee3f5;fill-opacity:1;fill-rule:nonzero;stroke:none"
             id="path198" />
          <path
             d="m 5935.93,1378.68 h -465.58 c 29.35,0 53.14,-23.79 53.14,-53.12 0,-29.36 -23.79,-53.15 -53.14,-53.15 h 465.58 c 29.34,0 53.13,23.79 53.13,53.15 0,29.33 -23.79,53.12 -53.13,53.12"
             style="fill:#ffffff;fill-opacity:1;fill-rule:nonzero;stroke:none"
             id="path200" />
          <path
             d="m 5459.11,1633.49 c -23.04,-22.95 -37.29,-54.81 -37.29,-89.91 0,-70.23 56.99,-127.12 127.21,-127.12 h 687.86 v 254.32 h -687.86 c -35.12,0 -66.96,-14.25 -89.92,-37.29"
             style="fill:#5669bb;fill-opacity:1;fill-rule:nonzero;stroke:none"
             id="path202" />
          <path
             d="m 6114.77,1543.6 c 0,-70.23 56.94,-127.16 127.16,-127.16 H 6740 v 37.73 h -498.07 c -49.39,0 -89.43,40.04 -89.43,89.43 0,49.39 40.04,89.43 89.43,89.43 H 6740 v 37.73 h -498.07 c -70.22,0 -127.16,-56.93 -127.16,-127.16"
             style="fill:#100f0d;fill-opacity:1;fill-rule:nonzero;stroke:none"
             id="path204" />
          <path
             d="M 6113.31,1670.78 H 5829.4 c -31.67,-2.18 -59.98,-15.88 -81.02,-37.02 -23.14,-23.05 -37.39,-54.98 -37.39,-90.18 0,-66.88 51.54,-121.87 117.14,-127.12 h 283.91 c -65.61,5.25 -117.14,60.24 -117.14,127.12 0,35.2 14.25,67.13 37.38,90.18 21.06,21.14 49.36,34.84 81.03,37.02"
             style="fill:#100f0d;fill-opacity:1;fill-rule:nonzero;stroke:none"
             id="path206" />
          <path
             d="m 6716.77,1633.03 h -474.84 c -49.39,0 -89.43,-40.04 -89.43,-89.43 0,-49.39 40.04,-89.43 89.43,-89.43 h 474.84 c -49.39,0 -89.43,40.04 -89.43,89.43 0,49.39 40.04,89.43 89.43,89.43"
             style="fill:#dee3f5;fill-opacity:1;fill-rule:nonzero;stroke:none"
             id="path208" />
          <path
             d="m 5255.59,1197.39 c -23.04,-22.96 -37.29,-54.8 -37.29,-89.92 0,-70.23 56.98,-127.118 127.21,-127.118 h 808 v 254.328 h -808 c -35.11,0 -66.96,-14.24 -89.92,-37.29"
             style="fill:#f03a88;fill-opacity:1;fill-rule:nonzero;stroke:none"
             id="path210" />
          <path
             d="m 6031.39,1107.5 c 0,-70.23 56.94,-127.168 127.17,-127.168 h 712.83 v 37.748 h -712.84 c -49.39,0 -89.43,40.03 -89.43,89.42 0,49.39 40.04,89.43 89.43,89.43 h 712.84 v 37.73 h -712.83 c -70.23,0 -127.17,-56.93 -127.17,-127.16"
             style="fill:#100f0d;fill-opacity:1;fill-rule:nonzero;stroke:none"
             id="path212" />
          <path
             d="m 6848.16,1196.93 h -689.61 c -49.39,0 -89.43,-40.04 -89.43,-89.43 0,-49.38 40.04,-89.42 89.43,-89.42 h 689.61 c -49.38,0 -89.42,40.04 -89.42,89.42 0,49.39 40.04,89.43 89.42,89.43"
             style="fill:#dee3f5;fill-opacity:1;fill-rule:nonzero;stroke:none"
             id="path214" />
          <path
             d="m 6530.66,1960.26 h -559.03 v -290.64 h 559.03 c 80.26,0 145.31,65.06 145.31,145.31 0,80.26 -65.05,145.33 -145.31,145.33"
             style="fill:#2a3c9a;fill-opacity:1;fill-rule:nonzero;stroke:none"
             id="path216" />
          <path
             d="m 6530.66,1922.53 h -531.99 v -215.17 h 531.99 c 59.43,0 107.58,48.17 107.58,107.59 0,59.41 -48.15,107.58 -107.58,107.58"
             style="fill:#dee3f5;fill-opacity:1;fill-rule:nonzero;stroke:none"
             id="path218" />
          <path
             d="m 6007.46,1922.53 h -684.13 c 59.41,0 107.58,-48.17 107.58,-107.58 0,-59.42 -48.17,-107.59 -107.58,-107.59 h 684.13 c 59.41,0 107.59,48.17 107.59,107.59 0,59.41 -48.18,107.58 -107.59,107.58"
             style="fill:#ffffff;fill-opacity:1;fill-rule:nonzero;stroke:none"
             id="path220" />
          <path
             d="m 5302.15,1922.53 h 669.48 v 37.74 h -669.48 v -37.74"
             style="fill:#939fd8;fill-opacity:1;fill-rule:nonzero;stroke:none"
             id="path222" />
          <path
             d="m 5302.15,1669.62 h 669.48 v 37.74 h -669.48 v -37.74"
             style="fill:#939fd8;fill-opacity:1;fill-rule:nonzero;stroke:none"
             id="path224" />
          <path
             d="m 5381.52,2546.93 h -902.59 v -196.39 h 902.59 c 54.24,0 98.19,43.96 98.19,98.19 0,54.23 -43.95,98.2 -98.19,98.2"
             style="fill:#2a3c9a;fill-opacity:1;fill-rule:nonzero;stroke:none"
             id="path226" />
          <path
             d="m 4715.79,2546.93 h -538.14 v -40.79 h 538.15 c 31.71,0 57.41,-25.7 57.41,-57.42 0,-31.7 -25.7,-57.4 -57.41,-57.4 h -538.15 v -40.78 h 538.14 c 54.23,0 98.18,43.96 98.18,98.19 0,54.23 -43.95,98.2 -98.18,98.2"
             style="fill:#dee3f5;fill-opacity:1;fill-rule:nonzero;stroke:none"
             id="path228" />
          <path
             d="m 4715.8,2506.14 h -503.04 c 31.7,0 57.4,-25.7 57.4,-57.42 0,-31.7 -25.7,-57.4 -57.4,-57.4 h 503.04 c 31.71,0 57.41,25.7 57.41,57.4 0,31.72 -25.7,57.42 -57.41,57.42"
             style="fill:#ffffff;fill-opacity:1;fill-rule:nonzero;stroke:none"
             id="path230" />
          <path
             d="M 5392.37,1940.34 H 4465.8 v -166 h 926.57 c 45.84,0 83.01,37.16 83.01,83 0,45.84 -37.17,83 -83.01,83"
             style="fill:#2a3c9a;fill-opacity:1;fill-rule:nonzero;stroke:none"
             id="path232" />
          <path
             d="m 4666.02,1940.34 h -586.71 v -34.47 h 586.72 c 26.8,0 48.53,-21.73 48.53,-48.53 0,-26.8 -21.73,-48.53 -48.53,-48.53 h -586.72 v -34.47 h 586.71 c 45.84,0 83,37.16 83,83 0,45.84 -37.16,83 -83,83"
             style="fill:#dee3f5;fill-opacity:1;fill-rule:nonzero;stroke:none"
             id="path234" />
          <path
             d="m 4666.03,1905.87 h -557.05 c 26.81,0 48.54,-21.73 48.54,-48.53 0,-26.8 -21.73,-48.53 -48.54,-48.53 h 557.05 c 26.8,0 48.53,21.73 48.53,48.53 0,26.8 -21.73,48.53 -48.53,48.53"
             style="fill:#ffffff;fill-opacity:1;fill-rule:nonzero;stroke:none"
             id="path236" />
          <path
             d="m 4051.99,1197.36 c -23.05,-22.95 -37.29,-54.8 -37.29,-89.92 0,-70.22 56.98,-127.12 127.21,-127.12 h 840.42 v 254.34 h -840.42 c -35.12,0 -66.97,-14.25 -89.92,-37.3"
             style="fill:#2a3c9a;fill-opacity:1;fill-rule:nonzero;stroke:none"
             id="path238" />
          <path
             d="m 4860.21,1107.47 c 0,-70.23 56.94,-127.169 127.17,-127.169 h 555.18 v 37.739 h -555.19 c -49.39,0 -89.43,40.04 -89.43,89.43 0,49.4 40.04,89.43 89.43,89.43 h 555.19 v 37.74 h -555.18 c -70.23,0 -127.17,-56.93 -127.17,-127.17"
             style="fill:#100f0d;fill-opacity:1;fill-rule:nonzero;stroke:none"
             id="path240" />
          <path
             d="m 4706.18,1234.66 h -283.91 c -31.67,-2.19 -59.97,-15.88 -81.02,-37.03 -23.14,-23.04 -37.38,-54.98 -37.38,-90.19 0,-66.86 51.54,-121.85 117.13,-127.12 h 283.91 c -65.6,5.27 -117.14,60.26 -117.14,127.12 0,35.21 14.25,67.15 37.38,90.19 21.06,21.15 49.37,34.84 81.03,37.03"
             style="fill:#f03a88;fill-opacity:1;fill-rule:nonzero;stroke:none"
             id="path242" />
          <path
             d="m 5519.32,1196.9 h -531.95 c -49.39,0 -89.42,-40.03 -89.42,-89.43 0,-49.39 40.03,-89.43 89.42,-89.43 h 531.95 c -49.38,0 -89.42,40.04 -89.42,89.43 0,49.4 40.04,89.43 89.42,89.43"
             style="fill:#dee3f5;fill-opacity:1;fill-rule:nonzero;stroke:none"
             id="path244" />
          <path
             d="m 5335.51,2702.98 h -605.45 v -156.05 h 605.45 c 21.54,0 41.08,8.73 55.17,22.87 14.14,14.1 22.88,33.63 22.88,55.18 0,43.09 -34.97,78 -78.05,78"
             style="fill:#100f0d;fill-opacity:1;fill-rule:nonzero;stroke:none"
             id="path246" />
          <path
             d="m 4726.96,2702.99 h -398.03 v -23.15 h 398.03 c 30.31,0 54.87,-24.57 54.87,-54.88 0,-30.3 -24.56,-54.87 -54.87,-54.87 h -398.03 v -23.16 h 398.03 c 43.1,0 78.03,34.94 78.03,78.03 0,43.1 -34.93,78.03 -78.03,78.03"
             style="fill:#100f0d;fill-opacity:1;fill-rule:nonzero;stroke:none"
             id="path248" />
          <path
             d="m 5074.48,2702.98 h -174.2 c 40.25,-3.23 71.87,-36.97 71.87,-78 0,-21.61 -8.73,-41.2 -22.93,-55.34 -12.92,-12.97 -30.29,-21.38 -49.72,-22.71 h 174.2 c 19.43,1.33 36.81,9.74 49.72,22.71 14.2,14.14 22.94,33.73 22.94,55.34 0,41.03 -31.63,74.77 -71.88,78"
             style="fill:#f03a88;fill-opacity:1;fill-rule:nonzero;stroke:none"
             id="path250" />
          <path
             d="m 4726.96,2679.84 h -383.77 c 30.3,0 54.86,-24.57 54.86,-54.88 0,-30.3 -24.56,-54.87 -54.86,-54.87 h 383.77 c 30.31,0 54.87,24.57 54.87,54.87 0,30.31 -24.56,54.88 -54.87,54.88"
             style="fill:#dee3f5;fill-opacity:1;fill-rule:nonzero;stroke:none"
             id="path252" />
          <path
             d="m 2855.55,2138.31 c -14.14,-14.08 -22.88,-33.62 -22.88,-55.16 0,-43.1 34.96,-78 78.06,-78 h 605.44 v 156.05 h -605.44 c -21.55,0 -41.09,-8.75 -55.18,-22.89"
             style="fill:#100f0d;fill-opacity:1;fill-rule:nonzero;stroke:none"
             id="path254" />
          <path
             d="m 3441.25,2083.16 c 0,-43.09 34.93,-78.03 78.03,-78.03 h 398.02 v 23.16 h -398.03 c -30.31,0 -54.88,24.57 -54.88,54.87 0,30.31 24.57,54.88 54.88,54.88 h 398.03 v 23.14 h -398.02 c -43.1,0 -78.03,-34.92 -78.03,-78.02"
             style="fill:#100f0d;fill-opacity:1;fill-rule:nonzero;stroke:none"
             id="path256" />
          <path
             d="m 3346.74,2161.2 h -174.21 c -19.43,-1.34 -36.8,-9.74 -49.72,-22.71 -14.19,-14.14 -22.93,-33.74 -22.93,-55.34 0,-41.04 31.62,-74.78 71.88,-78 h 174.19 c -40.25,3.22 -71.87,36.96 -71.87,78 0,21.6 8.74,41.2 22.94,55.34 12.91,12.97 30.28,21.37 49.72,22.71"
             style="fill:#f03a88;fill-opacity:1;fill-rule:nonzero;stroke:none"
             id="path258" />
          <path
             d="m 3903.04,2138.04 h -383.77 c -30.31,0 -54.88,-24.57 -54.88,-54.88 0,-30.3 24.57,-54.87 54.88,-54.87 h 383.77 c -30.3,0 -54.87,24.57 -54.87,54.87 0,30.31 24.57,54.88 54.87,54.88"
             style="fill:#dee3f5;fill-opacity:1;fill-rule:nonzero;stroke:none"
             id="path260" />
          <path
             d="m 4165.15,2313.26 c -23.04,-22.95 -37.29,-54.79 -37.29,-89.91 0,-70.23 56.98,-127.12 127.21,-127.12 h 687.86 v 254.33 h -687.86 c -35.11,0 -66.96,-14.24 -89.92,-37.3"
             style="fill:#939fd8;fill-opacity:1;fill-rule:nonzero;stroke:none"
             id="path262" />
          <path
             d="m 4820.81,2223.38 c 0,-70.23 56.93,-127.17 127.17,-127.17 h 498.05 v 37.75 h -498.06 c -49.39,0 -89.43,40.04 -89.43,89.42 0,49.38 40.04,89.42 89.43,89.42 h 498.06 v 37.74 h -498.05 c -70.24,0 -127.17,-56.94 -127.17,-127.16"
             style="fill:#2a3c9a;fill-opacity:1;fill-rule:nonzero;stroke:none"
             id="path264" />
          <path
             d="m 4819.35,2350.56 h -283.91 c -31.66,-2.18 -59.97,-15.88 -81.03,-37.01 -23.13,-23.05 -37.38,-54.99 -37.38,-90.2 0,-66.87 51.54,-121.85 117.14,-127.12 h 283.91 c -65.6,5.27 -117.14,60.25 -117.14,127.12 0,35.21 14.24,67.15 37.38,90.2 21.05,21.13 49.36,34.83 81.03,37.01"
             style="fill:#100f0d;fill-opacity:1;fill-rule:nonzero;stroke:none"
             id="path266" />
          <path
             d="m 5422.81,2312.8 h -474.84 c -49.39,0 -89.43,-40.04 -89.43,-89.42 v -0.01 c 0,-49.37 40.04,-89.41 89.43,-89.41 h 474.84 c -49.39,0 -89.43,40.04 -89.43,89.41 v 0.01 c 0,49.38 40.04,89.42 89.43,89.42"
             style="fill:#dee3f5;fill-opacity:1;fill-rule:nonzero;stroke:none"
             id="path268" />
          <path
             d="m 4043.87,1742.37 c -23.04,-22.95 -37.29,-54.8 -37.29,-89.92 0,-70.23 56.98,-127.12 127.21,-127.12 h 808 v 254.33 h -808 c -35.11,0 -66.96,-14.24 -89.92,-37.29"
             style="fill:#5669bb;fill-opacity:1;fill-rule:nonzero;stroke:none"
             id="path270" />
          <path
             d="m 4819.68,1652.48 c 0,-70.23 56.93,-127.17 127.16,-127.17 h 712.84 v 37.74 h -712.85 c -49.39,0 -89.43,40.04 -89.43,89.42 0,49.4 40.04,89.44 89.43,89.44 h 712.85 v 37.73 h -712.84 c -70.23,0 -127.16,-56.93 -127.16,-127.16"
             style="fill:#100f0d;fill-opacity:1;fill-rule:nonzero;stroke:none"
             id="path272" />
          <path
             d="m 5636.44,1741.91 h -689.61 c -49.39,0 -89.43,-40.04 -89.43,-89.43 v -0.01 c 0,-49.38 40.04,-89.42 89.43,-89.42 h 689.61 c -49.38,0 -89.42,40.04 -89.42,89.42 v 0.01 c 0,49.39 40.04,89.43 89.42,89.43"
             style="fill:#dee3f5;fill-opacity:1;fill-rule:nonzero;stroke:none"
             id="path274" />
          <path
             d="m 4185.39,2073.37 c -14.12,-14.07 -22.85,-33.59 -22.85,-55.11 0,-43.03 34.92,-77.91 77.96,-77.91 h 659.22 v 155.87 H 4240.5 c -21.53,0 -41.04,-8.73 -55.11,-22.85"
             style="fill:#5669bb;fill-opacity:1;fill-rule:nonzero;stroke:none"
             id="path276" />
          <path
             d="m 4824.88,2018.27 c 0,-43.03 34.89,-77.93 77.94,-77.93 h 594.28 v 23.13 h -594.29 c -30.26,0 -54.8,24.54 -54.8,54.8 0,30.28 24.54,54.81 54.8,54.81 h 594.29 v 23.13 h -594.28 c -43.05,0 -77.94,-34.89 -77.94,-77.94"
             style="fill:#100f0d;fill-opacity:1;fill-rule:nonzero;stroke:none"
             id="path278" />
          <path
             d="m 5482.87,2073.08 h -580.06 c -30.26,0 -54.8,-24.53 -54.8,-54.81 0,-30.26 24.54,-54.8 54.8,-54.8 h 580.06 c -30.27,0 -54.82,24.54 -54.82,54.8 0,30.28 24.55,54.81 54.82,54.81"
             style="fill:#dee3f5;fill-opacity:1;fill-rule:nonzero;stroke:none"
             id="path280" />
          <path
             d="m 5318.93,1525.31 h -559.02 v -290.63 h 559.02 c 80.27,0 145.33,65.06 145.33,145.31 0,80.27 -65.06,145.32 -145.33,145.32"
             style="fill:#2a3c9a;fill-opacity:1;fill-rule:nonzero;stroke:none"
             id="path282" />
          <path
             d="m 5318.95,1487.59 h -532 v -215.17 h 532 c 59.41,0 107.57,48.18 107.57,107.59 0,59.42 -48.16,107.58 -107.57,107.58"
             style="fill:#dee3f5;fill-opacity:1;fill-rule:nonzero;stroke:none"
             id="path284" />
          <path
             d="m 4795.74,1487.59 h -684.13 c 59.41,0 107.58,-48.16 107.58,-107.58 0,-59.41 -48.17,-107.59 -107.58,-107.59 h 684.13 c 59.41,0 107.58,48.18 107.58,107.59 0,59.42 -48.17,107.58 -107.58,107.58"
             style="fill:#ffffff;fill-opacity:1;fill-rule:nonzero;stroke:none"
             id="path286" />
          <path
             d="m 4090.44,1487.59 h 669.47 v 37.74 h -669.47 v -37.74"
             style="fill:#939fd8;fill-opacity:1;fill-rule:nonzero;stroke:none"
             id="path288" />
          <path
             d="m 4090.44,1234.68 h 669.47 v 37.74 h -669.47 v -37.74"
             style="fill:#939fd8;fill-opacity:1;fill-rule:nonzero;stroke:none"
             id="path290" />
          <path
             d="M 4050.59,1571 H 3028.24 v -278.96 h 1022.35 c 77.03,0 139.49,62.44 139.49,139.48 0,77.03 -62.46,139.48 -139.49,139.48"
             style="fill:#2a3c9a;fill-opacity:1;fill-rule:nonzero;stroke:none"
             id="path292" />
          <path
             d="m 3155.57,1538.53 h -562.04 c 28.32,-26.92 46.08,-64.86 46.08,-107.01 0,-42.16 -17.76,-80.1 -46.08,-107.02 h 562.04 c 59.11,0 107.02,47.91 107.02,107.02 0,59.1 -47.91,107.01 -107.02,107.01"
             style="fill:#ffffff;fill-opacity:1;fill-rule:nonzero;stroke:none"
             id="path294" />
          <path
             d="m 3155.52,1571 h -579.78 v -32.47 h 579.79 c 59.1,0 107.01,-47.91 107.01,-107.01 0,-59.11 -47.91,-107.02 -107.01,-107.02 h -579.79 v -32.46 h 579.78 c 77.03,0 139.48,62.44 139.48,139.48 0,77.03 -62.45,139.48 -139.48,139.48"
             style="fill:#dee3f5;fill-opacity:1;fill-rule:nonzero;stroke:none"
             id="path296" />
          <path
             d="m 2690.22,1245.88 c -28.2,-28.09 -45.62,-67.06 -45.62,-110.02 0,-85.93 69.71,-155.54 155.63,-155.54 h 841.61 v 311.19 h -841.61 c -42.96,0 -81.92,-17.44 -110.01,-45.63"
             style="fill:#5669bb;fill-opacity:1;fill-rule:nonzero;stroke:none"
             id="path298" />
          <path
             d="m 3492.43,1135.89 c 0,-85.92 69.66,-155.589 155.6,-155.589 h 609.38 v 46.179 h -609.4 c -60.42,0 -109.42,48.98 -109.42,109.41 0,60.43 49,109.42 109.42,109.42 h 609.4 v 46.18 h -609.38 c -85.94,0 -155.6,-69.66 -155.6,-155.6"
             style="fill:#100f0d;fill-opacity:1;fill-rule:nonzero;stroke:none"
             id="path300" />
          <path
             d="m 3490.64,1291.51 h -347.37 c -38.74,-2.67 -73.38,-19.43 -99.13,-45.3 -28.31,-28.19 -45.74,-67.27 -45.74,-110.35 0,-81.82 63.05,-149.09 143.32,-155.54 h 347.37 c -80.26,6.45 -143.32,73.72 -143.32,155.54 0,43.08 17.43,82.16 45.73,110.35 25.76,25.87 60.39,42.63 99.14,45.3"
             style="fill:#100f0d;fill-opacity:1;fill-rule:nonzero;stroke:none"
             id="path302" />
          <path
             d="m 4228.98,1245.31 h -580.97 c -60.42,0 -109.42,-48.99 -109.42,-109.42 0,-60.43 49,-109.41 109.42,-109.41 h 580.97 c -60.43,0 -109.41,48.98 -109.41,109.41 0,60.43 48.98,109.42 109.41,109.42"
             style="fill:#dee3f5;fill-opacity:1;fill-rule:nonzero;stroke:none"
             id="path304" />
          <path
             d="m 2782.12,1978.15 c -16.68,-16.62 -27,-39.68 -27,-65.09 0,-50.82 41.25,-92 92.08,-92 h 584.82 v 184.07 H 2847.2 c -25.42,0 -48.46,-10.3 -65.08,-26.98"
             style="fill:#5669bb;fill-opacity:1;fill-rule:nonzero;stroke:none"
             id="path306" />
          <path
             d="m 3343.63,1913.08 c 0,-50.83 41.21,-92.03 92.04,-92.03 h 515.94 v 27.3 h -515.95 c -35.74,0 -64.72,28.99 -64.72,64.73 0,35.75 28.98,64.72 64.72,64.72 h 515.95 v 27.33 h -515.94 c -50.83,0 -92.04,-41.21 -92.04,-92.05"
             style="fill:#100f0d;fill-opacity:1;fill-rule:nonzero;stroke:none"
             id="path308" />
          <path
             d="m 3934.79,1977.8 h -499.13 c -35.74,0 -64.72,-28.97 -64.72,-64.72 0,-35.74 28.98,-64.73 64.72,-64.73 h 499.13 c -35.75,0 -64.72,28.99 -64.72,64.73 0,35.75 28.97,64.72 64.72,64.72"
             style="fill:#dee3f5;fill-opacity:1;fill-rule:nonzero;stroke:none"
             id="path310" />
          <path
             d="M 4000.4,1821.03 H 3421.2 V 1571 h 579.2 c 69.04,0 125.02,55.96 125.02,125.01 0,69.04 -55.98,125.02 -125.02,125.02"
             style="fill:#2a3c9a;fill-opacity:1;fill-rule:nonzero;stroke:none"
             id="path312" />
          <path
             d="m 4000.41,1788.57 h -555.95 v -185.1 h 555.95 c 51.11,0 92.55,41.44 92.55,92.56 0,51.11 -41.44,92.54 -92.55,92.54"
             style="fill:#dee3f5;fill-opacity:1;fill-rule:nonzero;stroke:none"
             id="path314" />
          <path
             d="m 3452.03,1788.57 h -711.41 c 51.12,0 92.55,-41.43 92.55,-92.54 0,-51.12 -41.43,-92.56 -92.55,-92.56 h 711.41 c 51.11,0 92.55,41.44 92.55,92.56 0,51.11 -41.44,92.54 -92.55,92.54"
             style="fill:#ffffff;fill-opacity:1;fill-rule:nonzero;stroke:none"
             id="path316" />
          <path
             d="m 2722.41,1788.58 h 698.79 v 32.47 h -698.79 v -32.47"
             style="fill:#939fd8;fill-opacity:1;fill-rule:nonzero;stroke:none"
             id="path318" />
          <path
             d="m 2722.41,1571 h 698.79 v 32.47 H 2722.41 V 1571"
             style="fill:#939fd8;fill-opacity:1;fill-rule:nonzero;stroke:none"
             id="path320" />
        </g>
      </g>
      <path
         d="m 5607.41,3216.81 c -8.43,-11.18 -8.37,-23.4 -4.1,-29.22 5.31,-7.22 8.99,-8.01 10.57,-8.36 5.4,-1.15 13.71,0.42 23.35,2.19 16.19,2.99 36.44,6.62 60.99,0.78 26.38,-6.28 40.29,-28.54 33.95,-53.7 -3.85,-15.32 -14.59,-28.96 -29.34,-37.58 -12.02,-7.02 -32.11,-13.97 -60.27,-7.49 -550.4,126.21 -1122.37,126.21 -1672.77,0 -46.15,-10.63 -81.72,14.19 -89.58,45.06 -6.35,25.17 7.56,47.42 33.94,53.71 24.54,5.84 44.8,2.21 60.97,-0.78 9.65,-1.78 17.95,-3.36 23.36,-2.19 1.58,0.35 5.26,1.14 10.57,8.36 4.27,5.82 4.35,18.05 -4.08,29.22 -5.64,7.45 -23.12,24.1 -62.16,15.27 -107.16,-24.37 -213.53,-53.34 -318.83,-86.89 24.43,-36.04 78.72,-74.36 122.97,-76.9 16.66,-0.91 33.28,-1.93 49.84,-3.06 -14.18,-8.75 -28.3,-17.58 -42.33,-26.51 -37.83,-23.92 -62.68,-84.57 -56.69,-130.25 69.14,22.06 138.78,42.01 208.82,59.85 8.84,-34.7 17.68,-69.42 26.51,-104.12 8.76,-34.4 10.8,-42.25 58.73,-30.62 535.28,128.29 1093.41,128.29 1628.68,-0.01 47.94,-11.62 49.98,-3.75 58.75,30.64 8.82,34.69 17.67,69.41 26.51,104.11 70.03,-17.84 139.68,-37.79 208.82,-59.85 5.99,45.68 -18.86,106.33 -56.69,130.25 -14.03,8.93 -28.15,17.76 -42.34,26.51 16.57,1.13 33.19,2.15 49.85,3.06 44.24,2.54 98.53,40.86 122.98,76.9 -105.31,33.55 -211.68,62.52 -318.84,86.89 -39.06,8.83 -56.51,-7.82 -62.14,-15.27"
         style="fill:#939fd8;fill-opacity:1;fill-rule:nonzero;stroke:none"
         id="path322" />
      <path
         d="m 5662.62,2830.68 c -3.07,-1.45 -6.9,-2.18 -11.74,-2.15 16.32,65.25 45.38,186.78 53.1,263.01 4.05,2.48 7.68,5.37 11.03,8.55 -6.66,-78.2 -34.33,-196.82 -52.39,-269.41 z m -40.16,2.26 c 14.06,57.9 41.79,175.56 51.07,248.58 5.14,0.59 9.78,1.52 13.98,2.83 -8.68,-75.88 -36.1,-192.34 -51.31,-254.36 -4.03,0.72 -8.72,1.77 -13.74,2.95 z m -12.04,2.69 c -5.29,1.26 -10.62,2.34 -15.91,3.56 12.49,53.17 40.64,175.33 50,243.78 5.56,-1.16 10.78,-1.81 15.69,-2.04 -9.24,-71.97 -36.18,-188.26 -49.78,-245.3 z m -43.83,9.83 c 10.83,47.88 40.86,181.95 49.58,243.42 5.93,-1.31 11.88,-2.46 17.79,-3.81 -8.96,-67.07 -36.99,-190.53 -49.28,-243.67 -6.03,1.37 -12.06,2.71 -18.09,4.06 z m -27.9,6.25 c 8.65,39.9 41.79,193.19 49.49,243.18 6.61,-1.42 13.24,-2.81 19.86,-4.25 -8.33,-59.79 -38.39,-195.58 -49.1,-243.47 -6.75,1.49 -13.48,3.08 -20.25,4.54 z m -27.89,5.97 c 16.7,81.02 33.4,162.04 50.1,243.05 7.16,-1.46 14.31,-3.08 21.47,-4.6 -6.63,-43.46 -35.1,-178.06 -49.13,-243.21 -7.48,1.59 -14.95,3.21 -22.44,4.76 z m -1405.05,0.82 c -16.63,81.06 -33.26,162.12 -49.88,243.18 495.35,101.39 1006.18,101.32 1501.52,-0.18 -16.63,-81.06 -33.26,-162.12 -49.89,-243.19 -462.42,94.77 -939.3,94.83 -1401.75,0.19 z m -25.99,-5.42 c -14.2,65.96 -42.31,199.02 -49.14,243.19 7.24,1.53 14.46,3.16 21.7,4.66 16.7,-81.04 33.41,-162.05 50.11,-243.07 -7.57,-1.56 -15.12,-3.17 -22.67,-4.78 z m -25.93,-5.8 c -11.04,49.35 -40.67,183.38 -49.1,243.43 6.67,1.47 13.36,2.88 20.04,4.3 7.85,-50.5 40.35,-201.01 49.49,-243.16 -6.82,-1.47 -13.62,-3.08 -20.43,-4.57 z m -25.98,-5.83 c -12.54,54.19 -40.23,176.45 -49.28,243.66 5.97,1.35 11.97,2.52 17.95,3.85 8.83,-61.7 38.44,-194.08 49.58,-243.42 -6.08,-1.36 -12.17,-2.7 -18.25,-4.09 z m -25.99,-5.82 c -13.79,57.87 -40.44,173.21 -49.77,245.26 5.11,0.2 10.4,0.93 15.84,2.07 9.45,-68.57 37.26,-189.53 50,-243.73 -5.35,-1.25 -10.73,-2.34 -16.07,-3.6 z m -26.01,-5.7 c -15.37,62.76 -42.54,178.46 -51.31,254.46 4.46,-1.39 9.17,-2.41 14.11,-2.99 9.39,-73.13 36.81,-189.79 51.05,-248.48 -5.05,-1.2 -9.8,-2.26 -13.85,-2.99 z m -27.81,1.4 c -18.01,72.2 -46.39,193.27 -52.38,270.64 3.6,-3.67 7.62,-6.99 12.19,-9.85 7.75,-76.33 36.63,-197.43 53.15,-263.57 -5.42,0.03 -9.74,0.82 -12.96,2.78 z m 1640.37,347.51 c 25.9,-35.43 56.45,-0.88 106.06,-12.59 43.45,-10.63 16.27,-82.33 -48.28,-67.23 -262.76,60.25 -530.41,91.85 -798.3,94.83 -295.69,3.28 -591.68,-28.33 -881.71,-94.83 -64.55,-15.1 -91.74,56.6 -48.28,67.23 49.6,11.71 80.15,-22.85 106.07,12.59 19.84,26.52 -8.91,85.79 -84.75,68.83 -114.71,-26.1 -228.53,-57.42 -341.11,-94.01 19.53,-45.6 89.24,-98.57 146.78,-101.87 -50.54,-31.95 -77.41,-112.74 -60.15,-164.75 72.43,23.54 145.4,44.73 218.82,63.58 4.34,-30.28 8.76,-60.55 13.27,-90.8 10.72,-41.19 20.71,-56.31 78.78,-42.19 19.57,4.75 515.72,112.73 849.15,95.55 333.15,5.41 773.16,-91.27 772,-95.55 58.08,-14.12 68.05,1 78.78,42.19 5.18,30.07 10.3,60.17 15.36,90.27 72.71,-18.72 145,-39.74 216.73,-63.05 17.26,52.02 -9.62,132.8 -60.16,164.75 57.54,3.3 127.25,56.26 146.79,101.87 -112.58,36.59 -226.4,67.91 -341.12,94.01 -75.83,16.95 -104.59,-42.3 -84.73,-68.83"
         style="fill:#2a3c9a;fill-opacity:1;fill-rule:nonzero;stroke:none"
         id="path324" />
      <path
         d="m 6155.5,1175.97 c -14.65,-16.54 -174.12,-0.22 -200.45,17.38 -0.22,-44 148.89,-977.041 148.89,-977.041 0.77,-1.848 38.07,-3.137 60.13,17.589 0,0 -8.95,922.952 -8.57,942.072"
         style="fill:#f03a88;fill-opacity:1;fill-rule:nonzero;stroke:none"
         id="path326" />
      <path
         d="m 5871.27,1531.61 c 6.83,-99.39 38.1,-304.02 101.6,-603.059 73.55,-346.449 117.16,-686.449 117.16,-686.449 22.03,20.507 60.18,24.648 80.14,10.937 0,0 19.09,935.681 21.8,1398.461 -22.39,-5.59 -239.3,-51.14 -324.61,-62.17 0,0 2.91,-43.28 3.91,-57.72"
         style="fill:#dee4f5;fill-opacity:1;fill-rule:nonzero;stroke:none"
         id="path328" />
      <path
         d="m 6177.11,236.16 c -11.53,10 -13.04,16.18 -13.04,16.18 0,0 -55.13,15.082 -63.8,-21.219 -3.26,-13.66 0.05,-41.5 10.42,-56.48 5.94,-8.629 40.48,-47.832 57.82,-56.52 13.91,-7 35.93,-6.93 60.87,-4.242 24.93,2.691 54.72,17.851 53.73,32.422 -1.95,28.89 -85.86,72.371 -106,89.859"
         style="fill:#2a3c9a;fill-opacity:1;fill-rule:nonzero;stroke:none"
         id="path330" />
      <path
         d="m 6164.45,214.738 c -23.65,17.801 -66.43,-9.886 -39.6,-50.039 4.9,-7.347 34.09,-40.269 48.7,-47.609 11.71,-5.899 30.26,-5.809 51.25,-3.559 21,2.258 46.09,15.028 45.25,27.309 -1.64,24.308 -81.22,55.539 -105.6,73.898"
         style="fill:#100f0d;fill-opacity:1;fill-rule:nonzero;stroke:none"
         id="path332" />
      <path
         d="m 4982.33,3140.81 c -6.13,1.12 -16.54,-24.17 -15.65,-30.3 6.56,-14.09 14.76,-10.18 19.01,-24.27 -1.91,12.78 -1.17,26.67 0.9,39.51 1.62,6.98 5.37,14.15 -4.26,15.06"
         style="fill:#f03a88;fill-opacity:1;fill-rule:nonzero;stroke:none"
         id="path334" />
      <path
         d="m 4942.26,3172.94 c -4.71,6.97 -14.27,25.9 -19.41,30.09 -3.28,2.67 -15.2,6.21 -20.25,4.95 -6.7,-1.66 -7.21,-9.29 -7.21,-9.29 -8.97,-0.42 -3.65,-22.33 -5.85,-21.95 -9.04,1.57 -13.96,-10.32 3.3,-37.65 1.03,-1.64 30.16,-77.13 41.45,-100.47 14.93,5.77 55.03,36.2 54.87,37.01 -4.26,14.07 -10.02,28.64 -16.58,42.72 -7.62,16.72 -28.82,52.13 -30.32,54.59"
         style="fill:#f03a88;fill-opacity:1;fill-rule:nonzero;stroke:none"
         id="path336" />
      <path
         d="m 5255.26,2717.46 c -41.04,66.58 -235.79,286.58 -267.53,362.75 -22.09,-15.3 -41.49,-26.53 -57.63,-32.15 54.7,-124.22 225.81,-418.18 279.6,-411.17 49.27,6.38 56.55,42.82 50.98,66.74 -1.27,5.42 -3.18,10.19 -5.42,13.83"
         style="fill:#f03a88;fill-opacity:1;fill-rule:nonzero;stroke:none"
         id="path338" />
      <path
         d="m 5670.84,2632.33 c -66.14,29.26 -296.81,65.14 -403.94,103.46 -131.4,46.98 -117.26,-61.46 -82.08,-88.53 92.71,-71.29 380.91,-222.85 422.83,-178.64 18.19,19.16 75.19,158.39 63.19,163.71"
         style="fill:#f03a88;fill-opacity:1;fill-rule:nonzero;stroke:none"
         id="path340" />
      <path
         d="m 5246.18,2759.07 c -20.12,27.06 -224.94,283.26 -243.35,327.43 l -87.71,-45.02 c 48.13,-109.32 187.17,-353.28 260.81,-407.99 75.63,-57.85 306.81,-235 458.03,-235 27.76,0 37.59,279.45 32.34,276.83 -43.01,-21.53 -411.61,81.7 -420.12,83.75"
         style="fill:#939fd8;fill-opacity:1;fill-rule:nonzero;stroke:none"
         id="path342" />
      <path
         d="m 6806.2,2176.96 c -10.73,-7.32 -22.99,-13.9 -35.36,-17.61 14.55,2.16 14.52,-6.94 30.05,-6.89 5.92,1.81 24.38,21.98 20.76,27.06 -4.93,8.32 -9.82,1.89 -15.45,-2.56"
         style="fill:#f03a88;fill-opacity:1;fill-rule:nonzero;stroke:none"
         id="path344" />
      <path
         d="m 6903.26,2152.16 c -5.96,2.86 -27.18,3.47 -35.48,4.77 -2.88,0.29 -43.93,4.43 -62.3,4.2 -15.54,-0.04 -31.18,-1.03 -45.73,-3.15 -0.81,-0.2 -11.29,-49.44 -10.15,-65.4 25.94,-0.3 106.64,5.46 108.56,5.22 32.07,-3.99 40.75,5.49 35.47,13.02 -1.29,1.84 20.82,6.34 17.38,14.64 0,0 6.68,3.69 5.35,10.47 -1.01,5.12 -9.29,14.39 -13.1,16.23"
         style="fill:#f03a88;fill-opacity:1;fill-rule:nonzero;stroke:none"
         id="path346" />
      <path
         d="m 6322.42,2246.47 c -4.25,0.47 -9.37,0.16 -14.82,-0.98 -24.02,-5.15 -53.89,-27.24 -38.72,-74.54 16.55,-51.66 355.36,-81.49 491.06,-78.17 -1.79,17 0.13,39.36 4.57,65.84 -82.45,-3.67 -364.38,79.01 -442.09,87.85"
         style="fill:#f03a88;fill-opacity:1;fill-rule:nonzero;stroke:none"
         id="path348" />
      <path
         d="m 6068.6,2586.36 c -9.89,8.59 -111.66,-102.21 -121.28,-126.82 -22.18,-56.76 237.56,-253.12 341.52,-306.7 39.46,-20.31 143.63,13.01 45.21,111.95 -80.23,80.65 -210.83,274.15 -265.45,321.57"
         style="fill:#f03a88;fill-opacity:1;fill-rule:nonzero;stroke:none"
         id="path350" />
      <path
         d="m 6487.69,2227.52 c -46.58,11.14 -90.71,21.73 -123.75,28.41 -5.47,6.84 -11.48,13.55 -18.29,20.39 -39.42,39.63 -91.11,106.86 -141.11,171.86 -49.73,64.68 -80.13,107.46 -133.42,189.35 -3.19,4.92 -168.6,-254.86 -145.88,-270.78 73.98,-51.82 270.4,-183.97 354.92,-227.8 80.83,-43.38 360.78,-65.44 480.18,-62.5 l 3.43,98.52 c -47.8,-2.13 -174.38,28.19 -276.08,52.55"
         style="fill:#939fd8;fill-opacity:1;fill-rule:nonzero;stroke:none"
         id="path352" />
      <path
         d="m 5626.89,1182.16 c 0.98,-19.1 20.81,-941.89 20.81,-941.89 22.7,-20.02 59.94,-17.559 60.65,-15.7 0,0 119.95,937.26 118.36,981.21 -25.79,-18.4 -184.66,-39.69 -199.82,-23.62"
         style="fill:#f03a88;fill-opacity:1;fill-rule:nonzero;stroke:none"
         id="path354" />
      <path
         d="m 5570.76,1907.41 c -11.48,-65.05 70.83,-1640.32 70.83,-1640.32 19.53,14.351 55.67,13.601 78.33,-6.18 0,0 54.16,301.5 106.81,660.828 44.31,302.492 51.13,464.902 73.17,624.752 10.96,79.44 11.63,320.55 11.63,320.55 -123.09,-3.61 -300.69,21.04 -340.77,40.37"
         style="fill:#dee4f5;fill-opacity:1;fill-rule:nonzero;stroke:none"
         id="path356" />
      <path
         d="m 5986.23,1839.58 c -122.46,-15.37 -245.19,-16.17 -368.34,-18.75 -28.43,-0.58 -56.28,-1.11 -83.54,-0.13 3.15,-102.72 11.19,-168.22 23.93,-258.16 242.13,-40.16 299.34,-19.05 407.05,-19.05 135.47,0 242.43,21.42 244.83,27.61 2.73,94.59 3.12,212.02 -13.24,325.18 -64.31,-28.56 -134.9,-47.19 -210.69,-56.7"
         style="fill:#100f0d;fill-opacity:1;fill-rule:nonzero;stroke:none"
         id="path358" />
      <path
         d="m 5844.83,2858.23 c -8.56,-6.27 -97.22,-55.42 -122.53,-51.57 0.2,-7.01 20.41,-65.5 4.01,-105.37 7.03,-37.12 112.05,-68.25 140.43,-5.42 -11.78,17.93 -26.94,128.17 -21.91,162.36"
         style="fill:#f03a88;fill-opacity:1;fill-rule:nonzero;stroke:none"
         id="path360" />
      <path
         d="m 5751.88,2981.38 c -46.59,3.2 -102.81,3.07 -102.02,-51.56 0.24,-16.19 2.98,-157.99 78.86,-179.59 32.09,-9.14 93.77,45.72 96.35,83.09 0,0 3.51,50.95 3.54,51.47 3.41,49.56 -26.69,93.13 -76.73,96.59"
         style="fill:#f03a88;fill-opacity:1;fill-rule:nonzero;stroke:none"
         id="path362" />
      <path
         d="m 5993.5,2690.17 c -86.59,10.84 -130.16,13.06 -130.16,13.06 0,0 -26.69,-26.73 -70.26,-23.95 -48.49,3.06 -66.77,22.01 -66.77,22.01 0,0 -74.13,-32.41 -99.23,-42.42 -75.32,-30.03 -92.2,-93.51 -85.68,-161.96 1.59,-16.63 -55.67,-555.92 -5.91,-906.84 11.73,0.85 42.2,1.3 57.15,1.63 l 11.01,227.77 48.47,-227.39 c 155.34,-0.8 389.71,-11.54 494.27,14.32 l 4.29,206.35 32.25,-192.72 c 7.9,4.73 36.03,16.67 38.44,22.83 9.27,322.83 -99.39,863.3 -105.87,903.53 -6.82,42.24 -52.48,135.09 -122,143.78"
         style="fill:#939fd8;fill-opacity:1;fill-rule:nonzero;stroke:none"
         id="path364" />
      <path
         d="m 5649.08,255.988 c -4.04,-2.929 -10.41,-8.566 -19.72,-18.816 -17.94,-19.762 -96.86,-59.242 -97.92,-88.152 -0.52,-14.59 29.82,-30.961 54.83,-32.879 25.01,-1.891 46.91,0.847 60.6,8.289 17.06,9.218 50.36,49.468 56.04,58.3 9.89,15.29 14.59,44.329 9.39,58.102 -11.75,31.168 -49.63,25 -63.22,15.156"
         style="fill:#2a3c9a;fill-opacity:1;fill-rule:nonzero;stroke:none"
         id="path366" />
      <path
         d="m 5647.92,221.102 c -23.8,-19.09 -102.37,-52.793 -103.24,-77.141 -0.45,-12.289 25.01,-24.262 46.07,-25.879 21.06,-1.613 39.6,-1.102 51.12,5.148 14.37,7.79 42.52,41.622 47.18,49.11 25.59,40.969 -18.05,67.308 -41.13,48.762"
         style="fill:#100f0d;fill-opacity:1;fill-rule:nonzero;stroke:none"
         id="path368" />
      <path
         d="m 5854.89,3048.82 c -62.92,47.97 -182.63,22.81 -211.7,-53.18 -21.7,-56.68 62.38,-80.22 92.98,-96.03 -12.02,14.29 -30.28,49.86 -13.87,47.63 14.94,-2.03 62.07,-208.57 128.89,-188.17 21.01,6.41 38.68,66.84 48.97,102.52 23.41,81.16 19.74,137.67 -45.27,187.23"
         style="fill:#dee3f5;fill-opacity:1;fill-rule:nonzero;stroke:none"
         id="path370" />
    </g>
  </g>
</svg>
